<?xml version="1.0" encoding="utf-8"?>
<!-- Generator: Adobe Illustrator 19.2.0, SVG Export Plug-In . SVG Version: 6.00 Build 0)  -->
<svg version="1.1" id="Layer_1" xmlns="http://www.w3.org/2000/svg" xmlns:xlink="http://www.w3.org/1999/xlink" x="0px" y="0px"
	 viewBox="0 0 1000 160.6" style="enable-background:new 0 0 1000 160.6;" xml:space="preserve">
<style type="text/css">
	.st0{fill:#FFFFFF;}
</style>
<path class="st0" d="M99.5,118.8c-10.1,5-25.9,8.3-40.2,8.3c-18.3,0-33.7-6.4-44.4-18.5C5.3,97.7,0,82.9,0,66.8
	c0-8.1,1.3-16.1,4-23.6c2.7-7.9,6.8-14.9,12-20.8C27.7,8.9,44.6,1.8,64.7,1.8c12.3,0,24.9,2.9,33.9,7.7h0.1v25.6l-0.2-0.6
	c-5.2-14.6-18.7-23-37.2-23c-13.6,0-25.2,5.5-33.6,15.8c-7.7,9.5-11.9,22.3-11.9,36c0,13.9,4.3,26.9,12.1,36.6
	c8.7,10.9,21.1,16.6,35.8,16.6c6.4,0,15.7-1.7,21.2-3.9V85.4c0-14.1-8.2-15.2-8.6-15.3v-0.2h31.5v0.2c-0.8,0.1-8.2,1.4-8.2,15.1
	L99.5,118.8L99.5,118.8z M189.2,117.4l-14,10.4l0,0c-7.5-1.3-13.1-7.7-14.3-13.2c-4.4,7.6-14.9,12.5-26.9,12.5
	c-6.6,0-12.7-1.8-17-5.1c-4.7-3.6-7.2-8.7-7.2-14.7c0-3.1,0.9-6.2,2.6-9.1c1.8-3.1,4.7-6.1,8.4-8.8c8.4-6.1,21.3-11.1,38.3-14.9
	v-9.2c0-12.9-6.1-19.9-17.1-19.9c-12.4,0-18,6.2-18,12.2c0,3.8,1.8,7,4.4,8l0.3,0.1l-15,6.1v-0.1c-1.1-2.1-2.4-5.6-2.4-9.9
	c0-12.1,11.7-24.3,33.9-24.3c8.9,0,15.9,2.4,20.6,7.2c4.3,4.4,6.6,10.6,6.6,18.1v38.7c0,10.4,5,16.5,13.3,16.5
	c0.7,0,1.7-0.1,2.9-0.4L189.2,117.4z M159.1,82c-24.6,5.6-35.6,12.6-35.6,22.8c0,4.1,1.5,7.5,4.3,9.9c2.7,2.3,6.4,3.6,10.6,3.6
	c5.1,0,10.3-1.9,14.3-5.1c4.1-3.4,6.4-7.8,6.4-12.5V82z M265.8,117.4h-2.4c-3.4,0-5.3-0.8-6.7-2.6c-1.5-2.1-2.3-6-2.3-12V40.2H233
	l0.5,0.2c0.2,0.1,0.4,0.1,0.6,0.2c2.1,0.7,6.9,2.4,6.9,15.1v36.5c0,5.5-2.8,11.7-7.6,16.6c-4.9,5-11,7.9-16.7,7.9
	c-9.8,0-15.6-7.8-15.6-20.8V40.2h-23.7l0.6,0.2c0.2,0.1,0.4,0.1,0.7,0.2c2.6,0.7,8.8,2.5,8.8,16.5V98c0,10.1,2.2,17.7,6.5,22.6
	c3.9,4.3,9.4,6.6,16.6,6.6c5.8,0,11.7-1.6,17.1-4.5c5.5-3,10.1-7.3,13.5-12.4v17.5L265.8,117.4z M318,124.2v0.2h27.5v-0.2
	c-1.2-0.1-7.1-1.6-7.1-15.5V65c0-9.5-2.5-16.7-7.3-21.5c-5.1-5.1-11.6-6.2-16.2-6.2c-10.9,0-24.5,7.2-30.5,16V36.7L259.9,47h2.5
	c5.9,0,8.7,2.4,8.7,16v45.8c0,13.2-5.6,15-7.3,15.3v0.2h27.9v-0.2c-0.5-0.1-2.4-0.5-4.1-2.7c-2-2.6-3.1-6.8-3.1-12.4V70.7
	c0-12.7,13.3-23,24.3-23c10,0,15.8,7.6,15.8,20.8v40.3C324.7,122.2,319.5,123.9,318,124.2z M371.4,127.1c11,0,19-7.4,22-20.3
	l0.1-0.5l-0.3,0.4c-4.7,6-11.2,9.8-16.6,9.8c-7,0-10.9-5.7-10.9-16.2V49.2h24.8v-9h-24.8V20.3L341.3,49l-0.2,0.2h11.3V104
	C352.5,118,359.9,127.1,371.4,127.1z M418.5,124.4v-0.2c-1.2-0.1-7.1-1.6-7.1-15.5V0l-24.8,9.8h2c5.9,0,9.1,2.6,9.1,16.5v82.4
	c0,13.8-5.9,15.3-7.1,15.5v0.2C390.6,124.4,418.5,124.4,418.5,124.4z M488.5,99.6l-0.2,0.6c-2.5,8.7-6.6,15.5-12.2,20.1
	c-5.5,4.6-12.4,6.9-20.5,6.9c-11.7,0-21.4-4.6-28.3-13.3c-6.1-7.8-9.5-18.5-9.5-30.1c0-12.7,3.6-24.3,10.1-32.8
	c6.8-8.9,16.1-13.5,27-13.5c10.2,0,18.6,4.7,24.3,13.5c4.9,7.6,7.8,18.2,8.2,29.9V81h-56.1c0,10.5,3,19.4,8.7,25.8
	c5.2,5.9,12.4,9.1,20.2,9.1c10.2,0,20.4-5.7,27.9-15.7L488.5,99.6z M431.5,73.3h40.7c0-4.2-0.6-12-4.1-18.7
	c-3.3-6.2-8.2-9.4-14.4-9.4c-6.5,0-12,3.2-16.1,9.2C434.1,59.5,431.9,66.3,431.5,73.3z M585.6,106.7c-4.7,6-11.2,9.8-16.6,9.8
	c-7,0-10.9-5.7-10.9-16.2V49.2h24.8v-9h-24.8V20.3L533.6,49l-0.2,0.2v-9h-24.8V20.3L484.3,49l-0.2,0.2h11.3V104c0,14,7.4,23,18.9,23
	c11,0,19-7.4,22-20.3l0.1-0.5l-0.3,0.4c-4.7,6-11.2,9.8-16.6,9.8c-7,0-10.9-5.7-10.9-16.2v-51h24.8l0,0h11.3V104
	c0,14,7.4,23,18.9,23C574.6,127,582.6,119.6,585.6,106.7l0.1-0.5L585.6,106.7z M650.3,117.9c-14.3,0-26.3-5.7-34.7-16.6
	c-7.4-9.6-11.5-22.6-11.5-36.5c0-13.5,4-26.2,11.2-35.5c8.1-10.5,19.6-16.1,33.2-16.1c9,0,16.6,2.1,22.6,6.1
	c5.8,4,10.2,9.9,13.1,17.8l0.2,0.6V11h-0.1c-5.3-2.9-16.6-7.7-32.4-7.7c-19.7,0-36.3,7.1-48,20.5c-5.2,6-9.2,13-12,20.9
	c-2.7,7.6-4,15.6-4,23.7c0,16,5.2,30.7,14.6,41.5c10.7,12.2,26.2,18.6,44.8,18.6c8.2,0,15.9-1.6,22.9-4.8c6.5-3,12.2-7.2,17-12.6
	l0,0v-12l-0.2,0.2C677.2,111,663.4,117.9,650.3,117.9z M771.5,125.6v0.2h-27.1v-0.2c1.5-0.2,6.4-2.1,6.4-15.1V70
	c0-7.2-1.6-12.7-4.8-16.2c-2.7-3-6.6-4.6-11.2-4.6c-5.5,0-11.6,2.5-16.3,6.8c-5,4.5-7.8,10.3-7.8,16.2v38.3c0,5.7,1,9.9,3,12.5
	c1.6,2.1,3.3,2.5,4,2.6v0.2H690v-0.2c1.2-0.2,7.3-1.7,7.3-15.5V27.9c0-14.2-3.3-16.9-9.3-16.9h-2.2l24.9-10.5v53.9
	c5.6-8.7,19-15.7,30.1-15.7c14.9,0,23.4,10.1,23.4,27.7v43.7C764.2,124,770.3,125.5,771.5,125.6z M813.8,117.2
	c-7.8,0-14.9-3.2-20.2-9.1c-5.7-6.4-8.7-15.3-8.7-25.8H841v-0.1c-0.4-11.7-3.3-22.3-8.2-29.9c-5.7-8.8-14.1-13.5-24.3-13.5
	c-10.8,0-20.1,4.7-27,13.5c-6.5,8.4-10.1,20.1-10.1,32.8c0,11.6,3.4,22.3,9.5,30.1c6.8,8.7,16.6,13.3,28.3,13.3
	c8.1,0,14.9-2.3,20.5-6.9s9.7-11.3,12.2-20.1l0.2-0.6l-0.4,0.5C834.2,111.5,824,117.2,813.8,117.2z M785.2,74.7
	c0.4-7,2.6-13.8,6-18.9c4.1-6,9.6-9.2,16.1-9.2c6.3,0,11.1,3.2,14.4,9.4c3.5,6.6,4.1,14.5,4.1,18.7H785.2z M923.8,125.8h-27.5v-0.2
	c1.6-0.2,6.8-2,6.8-15.3V70c0-13.2-5.8-20.8-15.8-20.8c-11,0-24.3,10.3-24.3,23v38.3c0,5.6,1,9.8,3.1,12.4c1.7,2.2,3.6,2.6,4.1,2.7
	v0.2h-27.9v-0.2c1.7-0.2,7.3-2.1,7.3-15.3V64.5c0-13.6-2.8-16-8.8-16h-2.5l24.5-10.3v16.6c6-8.9,19.6-16,30.5-16
	c4.5,0,11,1.1,16.2,6.2c4.8,4.8,7.3,12.1,7.3,21.5v43.7c0,13.9,5.9,15.3,7.1,15.5L923.8,125.8z M985.2,43c-4.1,0-8.1-0.6-12.1-2
	c-4.9-1.5-9.5-2.3-13.8-2.3c-10.4,0-19.2,3.4-25.4,9.8c-5.5,5.7-8.5,13.4-8.5,21.7c0,5.7,1.6,11,4.7,15.5c3,4.4,7.3,7.9,12.5,9.9
	c-7.5,3.6-15.6,10.4-15.6,17c0,5.5,4.2,9.8,11.1,11.7c-6.9,2.8-16.8,10.7-16.8,19.3c0,5.4,3.5,9.8,10.2,12.9
	c5.6,2.6,13.3,4.1,21,4.1c14.6,0,26.9-3,35.5-8.7c7.5-4.9,11.8-11.8,11.8-18.8c0-4.8-2-8.9-5.8-12c-4.4-3.6-10.9-5.5-19.3-5.6
	L953,115c-8.2-0.2-13.5-2.6-13.5-6.2c0-3.7,4.5-7.7,11.7-10.6c2.1,0.4,4.8,0.5,7.8,0.5c9.9,0,18.2-2.9,24.1-8.5
	c5.4-5.1,8.4-12.3,8.4-20.1c0-7.2-2.3-13.8-6.2-18.3c4.7,0,12-0.6,14.4-1.3h0.1V38.8l-0.2,0.1C995.9,41.7,991,43,985.2,43z
	 M946.5,126.4c0.9,0,21.8,0.5,22,0.5c13.5,0.4,19.2,3.3,19.2,9.9c0,4.6-3,8.3-8.5,10.8c-5.2,2.3-12.5,3.5-21.2,3.5
	c-15,0-23.9-4.2-23.9-11.4C934.2,135,938.2,130.6,946.5,126.4z M973.2,84.3c-3.2,4.2-7.8,6.4-13.3,6.4c-6.1,0-11.4-2.5-15.2-7.3
	c-3.5-4.4-5.5-10.4-5.5-16.7c0-13.7,9.1-19.8,18.2-19.8c7.9,0,12.7,4.1,15.3,7.5c3.2,4.2,5,10,5,15.8
	C977.7,75.6,976.1,80.6,973.2,84.3z"/>
</svg>
