<?xml version="1.0" encoding="utf-8"?>
<!-- Generator: Adobe Illustrator 19.2.1, SVG Export Plug-In . SVG Version: 6.00 Build 0)  -->
<svg version="1.1" id="Layer_1" xmlns="http://www.w3.org/2000/svg" xmlns:xlink="http://www.w3.org/1999/xlink" x="0px" y="0px"
	 viewBox="0 0 1000 156.5" style="enable-background:new 0 0 1000 156.5;" xml:space="preserve">
<path d="M97,115.8c-9.9,4.9-25.3,8-39.2,8c-17.9,0-32.8-6.2-43.3-18C5.2,95.2,0,80.8,0,65.1c0-7.9,1.3-15.7,3.9-23
	c2.7-7.7,6.6-14.5,11.7-20.3C27,8.7,43.4,1.8,63.1,1.8c12,0,24.3,2.8,33,7.5h0.1v25L96,33.7c-5-14.3-18.2-22.4-36.2-22.4
	c-13.2,0-24.6,5.3-32.7,15.4c-7.5,9.2-11.6,21.7-11.6,35.1c0,13.6,4.2,26.2,11.8,35.7c8.5,10.6,20.6,16.2,34.9,16.2
	c6.2,0,15.3-1.7,20.7-3.8V83.3c0-13.7-8-14.9-8.4-14.9v-0.2H105v0.2c-0.8,0.1-8,1.4-8,14.7V115.8L97,115.8z M186,114.6
	c-1.2,0.2-2.1,0.3-2.8,0.3c-8.1,0-12.9-6-12.9-16.1V61.1c0-7.3-2.2-13.4-6.4-17.7c-4.6-4.7-11.4-7-20.1-7
	c-21.7,0-33.1,11.9-33.1,23.7c0,4.2,1.3,7.6,2.3,9.7v0.1l14.6-5.9l-0.3-0.1c-2.6-0.9-4.3-4-4.3-7.8c0-5.9,5.4-11.9,17.5-11.9
	c10.7,0,16.6,6.9,16.6,19.4v9c-16.6,3.7-29.2,8.6-37.4,14.5c-3.7,2.7-6.4,5.6-8.2,8.6c-1.7,2.8-2.5,5.8-2.5,8.9
	c0,5.9,2.4,10.9,7,14.3c4.2,3.2,10.1,5,16.6,5c11.7,0,22-4.8,26.2-12.2c1.2,5.4,6.6,11.7,14,12.9l0,0l13.7-10.1L186,114.6z
	 M157.2,98.1c0,4.6-2.2,8.9-6.3,12.2c-3.8,3.1-8.9,5-13.9,5c-4,0-7.7-1.2-10.3-3.5c-2.8-2.4-4.2-5.7-4.2-9.7
	c0-9.9,10.7-16.8,34.7-22.2V98.1z M263.3,114.4H261c-3.3,0-5.2-0.7-6.5-2.5c-1.5-2.1-2.2-5.8-2.2-11.7v-61h-20.9l0.5,0.2
	c0.2,0.1,0.3,0.1,0.6,0.2c2,0.7,6.8,2.3,6.8,14.7v35.6c0,5.4-2.8,11.4-7.4,16.1c-4.8,4.9-10.7,7.7-16.3,7.7
	c-9.5,0-15.2-7.6-15.2-20.3V39.2h-23.1l0.6,0.2c0.2,0.1,0.4,0.1,0.7,0.2c2.6,0.7,8.6,2.4,8.6,16.1v39.8c0,9.9,2.1,17.3,6.3,22
	c3.8,4.2,9.2,6.4,16.2,6.4c5.7,0,11.4-1.5,16.7-4.4s9.9-7.1,13.2-12.1v17.1L263.3,114.4z M316.2,121v0.2H343V121
	c-1.2-0.1-7-1.5-7-15.1V63.4c0-9.2-2.4-16.3-7.1-21c-5-5-11.3-6-15.7-6c-10.6,0-23.8,7-29.7,15.6V35.8l-23.9,10h2.5
	c5.8,0,8.5,2.3,8.5,15.6v44.7c0,12.9-5.5,14.7-7.1,14.9v0.2h27.2V121c-0.5-0.1-2.3-0.4-4-2.6c-2-2.6-3-6.7-3-12.1V68.9
	c0-12.4,13-22.4,23.7-22.4c9.8,0,15.4,7.4,15.4,20.3v39.3C322.8,119.1,317.8,120.8,316.2,121z M370.5,123.9
	c10.7,0,18.5-7.2,21.4-19.8l0.1-0.5l-0.3,0.4c-4.6,5.8-10.9,9.6-16.1,9.6c-6.9,0-10.6-5.6-10.6-15.8V47.9h24.2v-8.8H365V19.8
	l-23.8,28L341,48h11v53.5C352,115.1,359.3,123.9,370.5,123.9z M418.5,121.2V121c-1.2-0.1-7-1.5-7-15.1V0l-24.1,9.5h2
	c5.8,0,8.9,2.6,8.9,16.1v80.3c0,13.4-5.8,14.9-7,15.1v0.2H418.5z M488.4,97.5c-7.4,9.7-17.3,15.3-27.2,15.3
	c-7.6,0-14.5-3.2-19.6-8.9c-5.5-6.2-8.4-14.9-8.5-25.1h54.7v-0.1c-0.4-11.4-3.2-21.8-8-29.2c-5.6-8.6-13.8-13.2-23.7-13.2
	c-10.5,0-19.6,4.6-26.3,13.2c-6.3,8.2-9.8,19.6-9.8,31.9c0,11.3,3.3,21.8,9.2,29.4c6.6,8.5,16.2,13,27.5,13c7.8,0,14.6-2.3,20-6.7
	c5.4-4.5,9.4-11,11.9-19.6l0.2-0.6L488.4,97.5z M439.1,53.1c4-5.9,9.4-9,15.7-9c6.1,0,10.9,3.1,14.1,9.2c3.4,6.5,4,14.1,4,18.2
	h-39.6C433.7,64.7,435.8,58,439.1,53.1z M585.5,104c-4.6,5.8-10.9,9.6-16.1,9.6c-6.9,0-10.6-5.6-10.6-15.8V47.9H583v-8.8h-24.2V19.8
	l-23.8,28l-0.1,0.2v-8.8h-24.2V19.8l-23.8,28l-0.2,0.2h11.1v53.5c0,13.6,7.2,22.5,18.4,22.5c10.7,0,18.5-7.2,21.4-19.8l0.1-0.5
	l-0.3,0.4c-4.6,5.8-10.9,9.6-16.1,9.6c-6.9,0-10.6-5.6-10.6-15.8v-50h24.1l0,0h11.1v53.5c0,13.6,7.2,22.5,18.4,22.5
	c10.7,0,18.5-7.2,21.4-19.8l0.1-0.5L585.5,104z M686.6,96.8l0.2-0.2v11.7l0,0c-4.7,5.3-10.3,9.4-16.6,12.3
	c-6.8,3.1-14.3,4.7-22.3,4.7c-18.2,0-33.3-6.3-43.7-18.1c-9.2-10.5-14.3-24.9-14.3-40.4c0-8,1.3-15.7,3.9-23.1
	c2.7-7.7,6.6-14.5,11.7-20.4c11.4-13.1,27.5-20,46.7-20c15.4,0,26.4,4.7,31.6,7.5h0.1v26l-0.2-0.6c-2.8-7.6-7.1-13.5-12.8-17.3
	c-5.8-4-13.2-6-22-6c-13.3,0-24.5,5.4-32.4,15.7c-7,9.1-10.9,21.5-10.9,34.7c0,13.5,4,26.2,11.2,35.5c8.2,10.6,19.9,16.2,33.8,16.2
	C663.5,114.9,676.9,108.1,686.6,96.8z M763.9,107.3V64.8c0-17.2-8.3-27-22.9-27c-10.8,0-23.8,6.8-29.3,15.3V0.5l-24.3,10.2h2.1
	c5.9,0,9.1,2.6,9.1,16.5v80.1c0,13.4-5.9,14.9-7.1,15.1v0.2h27v-0.2c-0.7-0.1-2.4-0.5-3.9-2.5c-1.9-2.5-2.9-6.7-2.9-12.2V70.3
	c0-5.8,2.7-11.4,7.6-15.8c4.6-4.1,10.5-6.6,15.9-6.6c4.5,0,8.2,1.5,10.9,4.5c3.1,3.5,4.7,8.8,4.7,15.8v39.5
	c0,12.7-4.8,14.5-6.3,14.7v0.2H771v-0.2C769.8,122.3,763.9,120.9,763.9,107.3z M841.6,98.9c-7.4,9.7-17.3,15.3-27.2,15.3
	c-7.6,0-14.5-3.2-19.6-8.9c-5.5-6.2-8.4-14.9-8.5-25.1H841v-0.1c-0.4-11.4-3.2-21.8-8-29.2c-5.6-8.6-13.8-13.2-23.7-13.2
	c-10.5,0-19.6,4.6-26.3,13.2c-6.3,8.2-9.8,19.6-9.8,31.9c0,11.3,3.3,21.8,9.2,29.4c6.6,8.5,16.2,13,27.5,13c7.8,0,14.6-2.3,20-6.7
	c5.4-4.5,9.4-11,11.9-19.6l0.2-0.6L841.6,98.9z M792.3,54.4c4-5.9,9.4-9,15.7-9c6.1,0,10.9,3.1,14.1,9.1c3.4,6.5,4,14.1,4,18.2
	h-39.6C786.8,66.1,788.9,59.4,792.3,54.4z M923.6,122.4c-1.2-0.1-7-1.5-7-15.1V64.8c0-9.2-2.4-16.3-7.1-21c-5-5-11.3-6-15.7-6
	c-10.6,0-23.8,7-29.7,15.6V37.2l-23.9,10h2.5c5.8,0,8.5,2.3,8.5,15.6v44.7c0,12.9-5.5,14.7-7.1,14.9v0.2h27.2v-0.2
	c-0.5-0.1-2.3-0.4-4-2.6c-2-2.6-3-6.7-3-12.1V70.3c0-12.4,13-22.4,23.7-22.4c9.8,0,15.4,7.4,15.4,20.3v39.3c0,13-5.1,14.7-6.6,14.9
	v0.2h26.8L923.6,122.4z M1000,49.1V37.8l-0.2,0.1c-3.8,2.7-8.6,4-14.2,4c-4,0-7.9-0.6-11.8-1.9c-4.8-1.5-9.3-2.3-13.4-2.3
	c-10.2,0-18.7,3.3-24.8,9.5c-5.4,5.6-8.3,13.1-8.3,21.1c0,5.5,1.6,10.7,4.6,15.1c3,4.3,7.2,7.7,12.2,9.7
	c-7.4,3.5-15.2,10.2-15.2,16.6c0,5.4,4.1,9.6,10.9,11.4c-6.7,2.7-16.3,10.4-16.3,18.8c0,5.2,3.4,9.6,9.9,12.6c5.5,2.5,12.9,4,20.5,4
	c14.3,0,26.2-2.9,34.6-8.5c7.3-4.8,11.5-11.5,11.5-18.4c0-4.7-2-8.7-5.7-11.7c-4.3-3.5-10.6-5.3-18.8-5.5l-21.2-0.5
	c-8-0.2-13.1-2.5-13.1-6c0-3.6,4.4-7.5,11.4-10.4c2.1,0.3,4.7,0.5,7.6,0.5c9.6,0,17.7-2.9,23.5-8.3c5.3-5,8.2-12,8.2-19.6
	c0-7-2.2-13.5-6-17.9C990.5,50.4,997.5,49.8,1000,49.1L1000,49.1z M947.9,123.2c0.9,0,21.3,0.5,21.5,0.5c13.1,0.4,18.8,3.2,18.8,9.7
	c0,4.5-2.9,8.1-8.3,10.6c-5.1,2.3-12.2,3.5-20.7,3.5c-14.6,0-23.3-4.1-23.3-11.1C935.8,131.6,939.8,127.3,947.9,123.2z M973.9,82.2
	c-3.2,4.1-7.6,6.2-12.9,6.2c-6,0-11.1-2.5-14.8-7.2c-3.5-4.3-5.4-10.1-5.4-16.3c0-13.3,8.9-19.3,17.7-19.3c7.7,0,12.4,4,14.9,7.3
	c3.1,4.1,4.9,9.7,4.9,15.4C978.3,73.7,976.7,78.5,973.9,82.2z"/>
</svg>
