<?xml version="1.0" encoding="utf-8"?>
<!-- Generator: Adobe Illustrator 19.2.1, SVG Export Plug-In . SVG Version: 6.00 Build 0)  -->
<svg version="1.1" id="Layer_1" xmlns="http://www.w3.org/2000/svg" xmlns:xlink="http://www.w3.org/1999/xlink" x="0px" y="0px"
	 viewBox="0 0 212.2 156.5" style="enable-background:new 0 0 212.2 156.5;" xml:space="preserve">
<style type="text/css">
	.st0{fill:#FFFFFF;}
</style>
<path class="st0" d="M97,115.8c-9.9,4.9-25.3,8-39.2,8c-17.9,0-32.8-6.2-43.3-18C5.2,95.2,0,80.8,0,65.1c0-7.9,1.3-15.7,3.9-23
	c2.7-7.7,6.6-14.5,11.7-20.3C27,8.7,43.4,1.8,63.1,1.8c12,0,24.3,2.8,33,7.5h0.1v25L96,33.7c-5-14.3-18.2-22.4-36.2-22.4
	c-13.2,0-24.6,5.3-32.7,15.4c-7.5,9.2-11.6,21.7-11.6,35.1c0,13.6,4.2,26.2,11.8,35.7c8.5,10.6,20.6,16.2,34.9,16.2
	c6.2,0,15.3-1.7,20.7-3.8V83.3c0-13.7-8-14.9-8.4-14.9v-0.2H105v0.2c-0.8,0.1-8,1.4-8,14.7V115.8L97,115.8z M211.2,96.8l0.2-0.2
	v11.7l0,0c-4.7,5.3-10.3,9.4-16.6,12.3c-6.8,3.1-14.3,4.7-22.3,4.7c-18.2,0-33.3-6.3-43.7-18.1c-9.2-10.5-14.3-24.9-14.3-40.4
	c0-8,1.3-15.7,3.9-23.1c2.7-7.7,6.6-14.5,11.7-20.4c11.4-13.1,27.5-20,46.7-20c15.4,0,26.4,4.7,31.6,7.5h0.1v26l-0.2-0.6
	c-2.8-7.6-7.1-13.5-12.8-17.3c-5.8-4-13.2-6-22-6c-13.3,0-24.5,5.4-32.4,15.7c-7,9.1-10.9,21.5-10.9,34.7c0,13.5,4,26.2,11.2,35.5
	c8.2,10.6,19.9,16.2,33.8,16.2C188.1,114.9,201.5,108.1,211.2,96.8z"/>
</svg>
