<?xml version="1.0" encoding="utf-8"?>
<!-- Generator: Adobe Illustrator 21.0.2, SVG Export Plug-In . SVG Version: 6.00 Build 0)  -->
<svg version="1.1" id="Layer_1" xmlns="http://www.w3.org/2000/svg" xmlns:xlink="http://www.w3.org/1999/xlink" x="0px" y="0px"
	 viewBox="0 0 1262 472" style="enable-background:new 0 0 1262 472;" xml:space="preserve">
<style type="text/css">
	.st0{fill:#FFFFFF;}
</style>
<g>
	<path class="st0" d="M17.8,60.8c0,1.9,0.2,3.5,0.6,4.6c0.4,1.2,0.9,2.1,1.4,2.7c0.5,0.6,1,1.1,1.5,1.3c0.5,0.2,0.9,0.4,1.1,0.4H5.3
		c0.2,0,0.6-0.1,1.1-0.3c0.5-0.2,1-0.6,1.5-1.2c0.5-0.6,0.9-1.5,1.4-2.7c0.4-1.2,0.6-2.8,0.6-4.8V12.3c0-2-0.2-3.6-0.6-4.8
		C8.8,6.4,8.3,5.5,7.8,4.8c-0.6-0.6-1.1-1-1.6-1.2c-0.5-0.2-0.9-0.3-1-0.4h17.3c-0.1,0-0.4,0.1-0.9,0.3c-0.5,0.2-1,0.6-1.6,1.2
		c-0.5,0.6-1,1.5-1.4,2.8c-0.4,1.2-0.7,2.8-0.7,4.8V60.8z"/>
	<path class="st0" d="M44.2,15.4c0,2.4-0.2,4.6-0.6,6.5c-0.4,1.9-0.8,3.6-1.3,4.9c-0.5,1.6-1.1,3-1.8,4.2h-0.2
		c-0.7-1.2-1.3-2.6-1.8-4.2c-0.5-1.3-0.9-3-1.2-4.9c-0.3-1.9-0.5-4.1-0.5-6.5V3.2h7.4V15.4z"/>
	<path class="st0" d="M111.4,7.7c0-0.9-0.2-1.7-0.5-2.2c-0.3-0.6-0.7-1-1.1-1.4c-0.4-0.3-0.9-0.6-1.3-0.7c-0.4-0.1-0.8-0.2-0.9-0.2
		h16.7c-0.1,0-0.5,0.1-1,0.4c-0.6,0.2-1.2,0.7-2.1,1.5c-0.8,0.7-1.7,1.8-2.6,3.2c-1,1.4-1.9,3.3-2.9,5.8l-24,58.6L67.7,13.7
		c-0.9-2.3-1.9-4.1-2.8-5.4c-0.9-1.4-1.8-2.4-2.6-3.2c-0.8-0.7-1.5-1.2-2-1.4c-0.6-0.2-1-0.4-1.2-0.5h18.6c-0.1,0-0.4,0.1-0.6,0.1
		c-0.3,0.1-0.6,0.3-1,0.6c-0.3,0.3-0.6,0.7-0.9,1.2c-0.3,0.5-0.4,1.2-0.4,2c0,1.3,0.5,3.3,1.6,5.8l16.9,41.4l16.8-42
		c0.4-1,0.7-1.9,1-2.6C111.3,9,111.4,8.3,111.4,7.7z"/>
	<path class="st0" d="M179.1,69.8h-41.6c0.2,0,0.6-0.1,1.1-0.3c0.5-0.2,1-0.6,1.6-1.3c0.6-0.7,1.1-1.6,1.5-2.9
		c0.4-1.2,0.6-2.9,0.6-5V12.6c0-2.1-0.2-3.7-0.6-4.9c-0.4-1.2-1-2.2-1.6-2.8c-0.6-0.6-1.2-1.1-1.8-1.3c-0.6-0.2-0.9-0.4-1.1-0.4h40
		V14c-0.1-0.3-0.2-0.7-0.5-1.4c-0.2-0.7-0.7-1.3-1.4-2c-0.7-0.7-1.7-1.2-3.1-1.8c-1.4-0.5-3.2-0.8-5.5-0.8h-16.3v25.2h13.6
		c1.6,0,2.9-0.2,3.9-0.5c1-0.4,1.7-0.8,2.2-1.2c0.5-0.5,0.9-0.9,1.1-1.4c0.2-0.4,0.3-0.8,0.3-1v13.1c0-0.1-0.1-0.4-0.2-0.9
		c-0.2-0.4-0.5-0.9-1-1.4c-0.5-0.5-1.3-0.9-2.2-1.3c-1-0.4-2.2-0.6-3.9-0.6h-13.7v26.6h16.8c2,0,3.7-0.1,5.1-0.3
		c1.4-0.2,2.7-0.6,3.8-1.1c1.1-0.5,2-1.2,2.7-2.1c0.7-0.9,1.5-2.1,2.2-3.5L179.1,69.8z"/>
	<path class="st0" d="M308.8,52.5c0,2.2-0.4,4.3-1.2,6.4c-0.8,2.1-2,3.9-3.5,5.5c-1.6,1.6-3.5,2.9-5.9,3.9c-2.4,1-5.1,1.5-8.2,1.5
		h-27.7c0.2,0,0.5-0.1,1-0.3c0.5-0.2,1-0.6,1.5-1.3c0.5-0.7,1-1.6,1.4-2.9c0.4-1.3,0.6-3,0.6-5.1V12.6c0-2.1-0.2-3.7-0.6-4.9
		c-0.4-1.2-0.9-2.2-1.5-2.8c-0.5-0.6-1.1-1.1-1.6-1.3c-0.5-0.2-0.9-0.4-1.1-0.4h25.2c3.2,0,6,0.5,8.2,1.4c2.3,0.9,4.2,2.1,5.7,3.6
		s2.6,3.2,3.3,5.1c0.7,1.9,1.1,3.8,1.1,5.8c0,1.9-0.3,3.7-0.9,5.5c-0.6,1.8-1.4,3.4-2.5,4.8c-1.1,1.4-2.4,2.6-4,3.6
		c-1.5,1-3.2,1.6-5,2c2.5,0.3,4.7,0.9,6.6,2c1.9,1.1,3.6,2.4,5,4c1.4,1.6,2.4,3.4,3.1,5.4C308.4,48.3,308.8,50.4,308.8,52.5z
		 M296.9,19.7c0-1.8-0.3-3.4-1-4.9c-0.7-1.4-1.6-2.6-2.7-3.6c-1.1-1-2.5-1.8-4-2.3c-1.5-0.5-3.1-0.8-4.8-0.8h-9.7v24.8h10.4
		c3.4,0,6.2-1.2,8.4-3.5C295.8,27.1,296.9,23.8,296.9,19.7z M300.2,52.1c0-4.3-1.3-7.7-3.9-10.3c-2.6-2.6-6-4-10.4-4h-11.1v27h12.1
		c2.7,0,4.9-0.4,6.6-1.1c1.7-0.8,3.1-1.8,4.1-3c1-1.2,1.7-2.5,2.1-4C300,55.1,300.2,53.6,300.2,52.1z"/>
	<path class="st0" d="M367.5,69.8h-41.6c0.2,0,0.6-0.1,1.1-0.3c0.5-0.2,1-0.6,1.6-1.3c0.6-0.7,1.1-1.6,1.5-2.9
		c0.4-1.2,0.6-2.9,0.6-5V12.6c0-2.1-0.2-3.7-0.6-4.9c-0.4-1.2-1-2.2-1.6-2.8c-0.6-0.6-1.2-1.1-1.8-1.3c-0.6-0.2-0.9-0.4-1.1-0.4h40
		V14c-0.1-0.3-0.2-0.7-0.5-1.4c-0.2-0.7-0.7-1.3-1.4-2c-0.7-0.7-1.7-1.2-3.1-1.8c-1.4-0.5-3.2-0.8-5.5-0.8h-16.3v25.2h13.6
		c1.6,0,2.9-0.2,3.9-0.5c1-0.4,1.7-0.8,2.2-1.2c0.5-0.5,0.9-0.9,1.1-1.4c0.2-0.4,0.3-0.8,0.3-1v13.1c0-0.1-0.1-0.4-0.2-0.9
		c-0.2-0.4-0.5-0.9-1-1.4c-0.5-0.5-1.3-0.9-2.2-1.3c-1-0.4-2.2-0.6-3.9-0.6h-13.7v26.6h16.8c2,0,3.7-0.1,5.1-0.3
		c1.4-0.2,2.7-0.6,3.8-1.1c1.1-0.5,2-1.2,2.7-2.1c0.7-0.9,1.5-2.1,2.2-3.5L367.5,69.8z"/>
	<path class="st0" d="M425.6,69.8H384c0.2,0,0.6-0.1,1.1-0.3c0.5-0.2,1-0.6,1.6-1.3c0.6-0.7,1.1-1.6,1.5-2.9c0.4-1.2,0.6-2.9,0.6-5
		V12.6c0-2.1-0.2-3.7-0.6-4.9c-0.4-1.2-1-2.2-1.6-2.8c-0.6-0.6-1.2-1.1-1.8-1.3c-0.6-0.2-0.9-0.4-1.1-0.4h40V14
		c-0.1-0.3-0.2-0.7-0.5-1.4c-0.2-0.7-0.7-1.3-1.4-2c-0.7-0.7-1.7-1.2-3.1-1.8c-1.4-0.5-3.2-0.8-5.5-0.8h-16.3v25.2h13.6
		c1.6,0,2.9-0.2,3.9-0.5c1-0.4,1.7-0.8,2.2-1.2c0.5-0.5,0.9-0.9,1.1-1.4c0.2-0.4,0.3-0.8,0.3-1v13.1c0-0.1-0.1-0.4-0.2-0.9
		c-0.2-0.4-0.5-0.9-1-1.4c-0.5-0.5-1.3-0.9-2.2-1.3c-1-0.4-2.2-0.6-3.9-0.6h-13.7v26.6h16.8c2,0,3.7-0.1,5.1-0.3
		c1.4-0.2,2.7-0.6,3.8-1.1c1.1-0.5,2-1.2,2.7-2.1c0.7-0.9,1.5-2.1,2.2-3.5L425.6,69.8z"/>
	<path class="st0" d="M492.2,12.5c0-2-0.2-3.6-0.6-4.8c-0.4-1.2-1-2.1-1.6-2.8c-0.6-0.6-1.2-1.1-1.8-1.3c-0.6-0.2-0.9-0.4-1.1-0.5
		h15.8c-0.2,0-0.6,0.1-1.1,0.3c-0.5,0.2-1.1,0.6-1.6,1.3c-0.6,0.7-1.1,1.6-1.6,2.8c-0.5,1.2-0.7,2.8-0.7,4.9v60.2l-45.4-56.1v44
		c0,2,0.2,3.6,0.7,4.8c0.5,1.2,1,2.1,1.6,2.8c0.6,0.6,1.2,1.1,1.8,1.3c0.6,0.2,1,0.4,1.2,0.4h-16.1c0.2,0,0.6-0.1,1.1-0.3
		c0.5-0.2,1.1-0.6,1.6-1.2c0.6-0.6,1.1-1.6,1.5-2.8c0.5-1.2,0.7-2.8,0.7-4.9V13.5c0-1.7-0.3-3.1-0.9-4.3c-0.6-1.2-1.2-2.2-2-3
		c-0.8-0.8-1.6-1.4-2.5-1.9c-0.9-0.5-1.6-0.8-2.2-1.1h13l40.1,49.7V12.5z"/>
	<path class="st0" d="M631.4,14.4c-0.3-1.1-0.8-2.1-1.2-2.9c-0.5-0.8-1.2-1.5-2-2c-0.9-0.5-2-0.9-3.3-1c-1.3-0.2-3-0.3-5-0.3h-11.5
		v52.3c0,2,0.2,3.6,0.6,4.8c0.4,1.2,0.9,2.2,1.4,2.8c0.5,0.6,1,1.1,1.5,1.3c0.5,0.2,0.9,0.4,1.1,0.4h-17.3c0.2,0,0.5-0.1,1-0.3
		c0.5-0.2,1-0.6,1.5-1.2c0.5-0.6,1-1.6,1.4-2.8c0.4-1.2,0.6-2.9,0.6-5V8.2h-11.6c-1.9,0-3.5,0.1-4.8,0.3c-1.3,0.2-2.4,0.5-3.3,0.9
		c-0.9,0.4-1.6,1.1-2.2,1.9c-0.6,0.8-1,1.8-1.4,3l0.8-11.1h52.8L631.4,14.4z"/>
	<path class="st0" d="M707.8,35.7c0,5-0.8,9.7-2.3,14c-1.6,4.3-3.8,8.1-6.7,11.3c-2.9,3.2-6.4,5.7-10.4,7.5c-4,1.8-8.5,2.8-13.5,2.8
		c-4.7,0-9-0.9-12.9-2.6c-3.9-1.7-7.2-4.1-9.9-7.1c-2.7-3-4.8-6.6-6.3-10.8c-1.5-4.2-2.2-8.7-2.2-13.7c0-5.1,0.8-9.8,2.4-14.1
		c1.6-4.3,3.9-8.1,6.8-11.3c2.9-3.2,6.4-5.7,10.4-7.5c4.1-1.8,8.6-2.7,13.5-2.7c4.7,0,8.9,0.9,12.8,2.6c3.9,1.7,7.1,4.1,9.8,7.2
		c2.7,3,4.8,6.6,6.3,10.8C707.1,26.3,707.8,30.8,707.8,35.7z M699.8,38c0-4.5-0.6-8.6-1.8-12.4c-1.2-3.8-2.8-7-5-9.8
		c-2.2-2.8-4.8-4.9-8-6.5C682,7.8,678.5,7,674.6,7c-3.4,0-6.5,0.6-9.3,1.9c-2.8,1.3-5.2,3.1-7.2,5.6c-2,2.4-3.6,5.3-4.7,8.6
		c-1.1,3.3-1.7,7-1.7,11.1c0,4.6,0.6,8.8,1.8,12.7c1.2,3.9,2.9,7.2,5.1,10c2.2,2.8,4.8,5,8,6.5c3.1,1.6,6.5,2.4,10.3,2.4
		c3.4,0,6.5-0.7,9.4-2c2.8-1.3,5.2-3.2,7.2-5.7c2-2.5,3.6-5.4,4.7-8.8C699.3,45.9,699.8,42.1,699.8,38z"/>
	<path class="st0" d="M836.4,22.5c0,2.7-0.5,5.2-1.5,7.6c-1,2.4-2.4,4.6-4.4,6.5c-2,1.9-4.4,3.4-7.2,4.5c-2.9,1.1-6.2,1.7-10,1.7
		c-1.9,0-3.9-0.1-5.8-0.4c-2-0.3-3.4-0.6-4.3-0.9v19c0,2,0.2,3.6,0.6,4.8c0.4,1.2,0.9,2.1,1.4,2.8c0.5,0.6,1.1,1.1,1.6,1.3
		c0.5,0.2,0.9,0.4,1.2,0.4h-17.2c0.2,0,0.5-0.1,1-0.3c0.5-0.2,1-0.6,1.5-1.2c0.5-0.6,1-1.6,1.4-2.8c0.4-1.2,0.6-2.8,0.6-4.9v-48
		c0-2.1-0.2-3.7-0.6-4.9c-0.4-1.2-0.9-2.2-1.5-2.8c-0.6-0.6-1.1-1.1-1.7-1.3c-0.5-0.2-0.9-0.4-1.1-0.4h24.7c3.5,0,6.6,0.5,9.3,1.6
		c2.7,1.1,4.9,2.5,6.6,4.3c1.8,1.8,3.1,3.9,4,6.2C836,17.6,836.4,20,836.4,22.5z M828.1,23.1c0-2-0.3-3.9-1-5.8
		c-0.7-1.8-1.6-3.4-2.9-4.8c-1.3-1.3-2.9-2.4-4.8-3.2c-1.9-0.8-4.1-1.2-6.6-1.2h-9.7v28.4c0.9,0.3,2.3,0.6,4.2,0.8
		c1.9,0.2,3.8,0.3,5.8,0.3c2.4,0,4.5-0.4,6.4-1.1c1.9-0.8,3.4-1.8,4.7-3.1c1.3-1.3,2.2-2.8,2.9-4.6
		C827.8,27.1,828.1,25.2,828.1,23.1z"/>
	<path class="st0" d="M893.7,58.3c1,2.5,2,4.5,3,6c1,1.5,1.9,2.7,2.7,3.5c0.8,0.8,1.5,1.3,2.1,1.6c0.6,0.3,1,0.4,1.2,0.4h-18.3
		c0.1,0,0.4,0,0.7-0.1c0.3-0.1,0.7-0.3,1-0.6c0.4-0.3,0.7-0.7,1-1.2c0.3-0.5,0.4-1.3,0.4-2.2c0-0.7-0.2-1.6-0.5-2.5
		c-0.3-0.9-0.7-2.1-1.2-3.4l-4.1-10.6h-25.7l-4,10.2c-0.5,1.2-0.8,2.2-1.1,3.1c-0.3,0.9-0.4,1.7-0.4,2.5c0,1,0.2,1.8,0.5,2.4
		c0.3,0.6,0.7,1.1,1.1,1.5c0.4,0.3,0.9,0.6,1.2,0.7c0.4,0.1,0.7,0.2,0.9,0.2h-16.3c0.1,0,0.5-0.1,1-0.4c0.5-0.2,1.1-0.7,1.9-1.5
		c0.8-0.8,1.6-1.9,2.6-3.4c1-1.5,2-3.6,3.1-6.3l23.7-57.8L893.7,58.3z M868.7,16.8l-10.9,27.4h21.8L868.7,16.8z"/>
	<path class="st0" d="M954.2,69.8l-14-23.4c-1.3-2.3-2.6-3.9-4-4.6c-1.3-0.8-2.8-1.2-4.6-1.2h-2.5v20c0,2,0.2,3.6,0.6,4.8
		c0.4,1.2,0.9,2.1,1.4,2.8c0.5,0.7,1,1.1,1.5,1.3c0.5,0.2,0.9,0.3,1.1,0.3h-17.1c0.2,0,0.5-0.1,1-0.3c0.5-0.2,1-0.6,1.5-1.2
		c0.5-0.6,1-1.6,1.4-2.8c0.4-1.2,0.6-2.8,0.6-4.9V12.7c0-2.1-0.2-3.7-0.6-4.9c-0.4-1.2-0.9-2.2-1.5-2.9c-0.6-0.7-1.1-1.1-1.7-1.3
		c-0.5-0.2-0.9-0.3-1.1-0.4h23.4c3.3,0,6.2,0.5,8.9,1.4c2.7,0.9,5,2.2,6.8,3.9c1.9,1.7,3.4,3.6,4.4,5.8c1,2.2,1.5,4.6,1.5,7.2
		c0,2-0.3,4-1,6.1c-0.7,2.1-1.8,4-3.2,5.7c-1.5,1.7-3.4,3.2-5.7,4.4c-2.3,1.2-5,1.9-8.2,2.1c0.9,0.3,1.8,1,2.7,2
		c0.9,1,1.8,2.1,2.5,3.3l11.6,19c1.3,2.1,2.7,3.6,4.2,4.2c1.5,0.7,2.7,1.2,3.8,1.5H954.2z M953.1,22c0-1.7-0.3-3.4-1-5.1
		c-0.6-1.7-1.6-3.1-2.8-4.5c-1.3-1.3-2.9-2.4-4.8-3.1c-1.9-0.8-4.1-1.2-6.6-1.2h-9.1v27.8h9.1c2.8,0,5.2-0.4,7.1-1.1
		c1.9-0.8,3.4-1.8,4.6-3.1c1.2-1.3,2.1-2.7,2.6-4.4C952.9,25.6,953.1,23.9,953.1,22z"/>
	<path class="st0" d="M1034.1,58.3c1,2.5,2,4.5,3,6c1,1.5,1.9,2.7,2.7,3.5c0.8,0.8,1.5,1.3,2.1,1.6c0.6,0.3,1,0.4,1.2,0.4h-18.3
		c0.1,0,0.4,0,0.7-0.1c0.3-0.1,0.7-0.3,1-0.6c0.4-0.3,0.7-0.7,1-1.2c0.3-0.5,0.4-1.3,0.4-2.2c0-0.7-0.2-1.6-0.5-2.5
		c-0.3-0.9-0.7-2.1-1.2-3.4l-4.1-10.6h-25.7l-4,10.2c-0.5,1.2-0.8,2.2-1.1,3.1c-0.3,0.9-0.4,1.7-0.4,2.5c0,1,0.2,1.8,0.5,2.4
		c0.3,0.6,0.7,1.1,1.1,1.5c0.4,0.3,0.9,0.6,1.2,0.7c0.4,0.1,0.7,0.2,0.9,0.2h-16.3c0.1,0,0.5-0.1,1-0.4c0.5-0.2,1.1-0.7,1.9-1.5
		c0.8-0.8,1.6-1.9,2.6-3.4c1-1.5,2-3.6,3.1-6.3l23.7-57.8L1034.1,58.3z M1009.1,16.8l-10.9,27.4h21.8L1009.1,16.8z"/>
	<path class="st0" d="M1114.7,35.9c0,4.6-0.7,8.9-2.1,13c-1.4,4.1-3.5,7.7-6.3,10.8c-2.8,3.1-6.3,5.5-10.5,7.3
		c-4.2,1.8-9.2,2.7-15,2.7h-26c0.2,0,0.5-0.1,1-0.4c0.5-0.2,1-0.7,1.6-1.4c0.6-0.7,1-1.7,1.4-3c0.4-1.3,0.6-3.1,0.6-5.4v-47
		c0-2.1-0.2-3.7-0.7-4.9c-0.4-1.2-0.9-2.2-1.5-2.8c-0.5-0.6-1.1-1.1-1.6-1.3c-0.5-0.2-0.9-0.4-1.2-0.5h26.5c5.3,0,10,0.8,14.2,2.4
		c4.2,1.6,7.7,3.9,10.5,6.8c2.9,2.9,5.1,6.4,6.6,10.4C1114,26.7,1114.7,31.1,1114.7,35.9z M1105.9,36.5c0-9.1-2.2-16.1-6.7-21
		c-4.5-4.9-11.2-7.4-20.1-7.4h-11.5v56.7h14.1c4.3,0,8-0.8,11.1-2.5c3.1-1.7,5.6-3.9,7.5-6.5c1.9-2.7,3.3-5.7,4.2-9.1
		C1105.5,43.3,1105.9,39.9,1105.9,36.5z"/>
	<path class="st0" d="M1143.4,60.8c0,1.9,0.2,3.5,0.6,4.6c0.4,1.2,0.8,2.1,1.3,2.7c0.5,0.6,1,1.1,1.5,1.3c0.5,0.2,0.9,0.4,1.1,0.4
		h-17.1c0.2,0,0.5-0.1,1-0.3c0.5-0.2,1-0.6,1.5-1.2c0.5-0.6,1-1.5,1.4-2.7c0.4-1.2,0.6-2.8,0.6-4.8V12.3c0-2-0.2-3.6-0.6-4.8
		c-0.4-1.2-0.9-2.1-1.5-2.7c-0.6-0.6-1.1-1-1.6-1.2c-0.5-0.2-0.9-0.3-1.1-0.4h17.3c-0.1,0-0.5,0.1-1,0.3c-0.5,0.2-1,0.6-1.5,1.2
		c-0.5,0.6-1,1.5-1.5,2.8c-0.4,1.2-0.7,2.8-0.7,4.8V60.8z"/>
	<path class="st0" d="M1202.8,53.3c0,1.9-0.3,3.9-0.9,5.8c-0.6,1.9-1.5,3.6-2.8,5.1c-1.8,2.3-4.2,4-7.2,5.2c-3,1.2-6.7,1.9-11.1,1.9
		c-3.3,0-6.5-0.5-9.4-1.5c-2.9-1-5.5-2.2-7.8-3.8V50.9c1.7,5.5,4.2,9.5,7.4,11.8c3.2,2.3,6.9,3.5,11,3.5c1.7,0,3.3-0.2,4.9-0.7
		c1.6-0.5,3-1.2,4.2-2.1c1.2-0.9,2.2-2,3-3.4c0.8-1.4,1.1-3.1,1.1-5c0-2.9-0.8-5.4-2.3-7.3c-1.5-1.9-3.4-3.7-5.7-5.2
		c-2.3-1.5-4.8-3-7.4-4.3c-2.7-1.3-5.2-2.9-7.5-4.5c-2.3-1.7-4.2-3.7-5.7-6c-1.5-2.3-2.3-5.1-2.3-8.6c0-2.7,0.5-5.2,1.6-7.3
		c1.1-2.2,2.6-4,4.5-5.6c1.9-1.5,4.1-2.7,6.5-3.5c2.4-0.8,5-1.2,7.8-1.2c2.8,0,5.5,0.4,8.2,1.3c2.6,0.9,4.7,1.9,6.2,3.2v13.2
		c-1.3-4.5-3.4-7.8-6.2-9.8c-2.8-2-5.9-2.9-9.4-2.9c-1.9,0-3.7,0.3-5.2,0.9s-2.8,1.4-3.8,2.4c-1,1-1.8,2.2-2.4,3.5
		c-0.6,1.3-0.8,2.7-0.8,4.1c0,2.7,0.8,4.9,2.3,6.6c1.6,1.8,3.5,3.4,5.8,4.8c2.3,1.4,4.8,2.8,7.6,4.2c2.7,1.4,5.2,2.9,7.5,4.7
		c2.3,1.8,4.2,3.9,5.8,6.3C1202.1,46.6,1202.8,49.6,1202.8,53.3z"/>
	<path class="st0" d="M1259.8,69.8h-41.6c0.2,0,0.5-0.1,1-0.3c0.5-0.2,1-0.6,1.6-1.3c0.6-0.7,1-1.6,1.5-2.9c0.4-1.2,0.6-2.9,0.6-5
		V12.6c0-2.1-0.2-3.7-0.6-4.9c-0.4-1.2-1-2.2-1.5-2.8c-0.6-0.6-1.2-1.1-1.8-1.3c-0.6-0.2-1-0.4-1.2-0.4h40V14
		c-0.1-0.3-0.2-0.7-0.5-1.4c-0.2-0.7-0.7-1.3-1.4-2c-0.7-0.7-1.7-1.2-3.1-1.8c-1.4-0.5-3.2-0.8-5.5-0.8H1231v25.2h13.6
		c1.6,0,2.9-0.2,3.9-0.5c1-0.4,1.7-0.8,2.2-1.2c0.5-0.5,0.9-0.9,1-1.4c0.2-0.4,0.3-0.8,0.3-1v13.1c0-0.1-0.1-0.4-0.2-0.9
		c-0.2-0.4-0.5-0.9-1-1.4c-0.5-0.5-1.3-0.9-2.2-1.3c-1-0.4-2.2-0.6-3.8-0.6H1231v26.6h16.8c2,0,3.7-0.1,5.2-0.3
		c1.4-0.2,2.7-0.6,3.8-1.1c1.1-0.5,2-1.2,2.7-2.1c0.7-0.9,1.5-2.1,2.2-3.5L1259.8,69.8z"/>
	<path class="st0" d="M52.1,252.5c0,2.2-0.4,4.3-1.2,6.4c-0.8,2.1-2,3.9-3.5,5.5c-1.6,1.6-3.5,2.9-5.9,3.9c-2.4,1-5.1,1.5-8.2,1.5
		H5.5c0.2,0,0.5-0.1,1-0.3s1-0.6,1.5-1.3c0.5-0.7,1-1.6,1.4-2.9c0.4-1.3,0.6-3,0.6-5.1v-47.6c0-2.1-0.2-3.7-0.6-5
		c-0.4-1.2-0.9-2.2-1.5-2.8c-0.5-0.6-1.1-1.1-1.6-1.3c-0.5-0.2-0.9-0.3-1.1-0.3h25.2c3.2,0,6,0.4,8.2,1.3c2.3,0.9,4.2,2.1,5.7,3.6
		s2.6,3.2,3.3,5.1c0.7,1.9,1.1,3.8,1.1,5.8c0,1.9-0.3,3.7-0.9,5.5c-0.6,1.8-1.4,3.4-2.5,4.8c-1.1,1.4-2.4,2.6-4,3.6
		c-1.5,1-3.2,1.6-5,1.9c2.5,0.3,4.7,0.9,6.6,2c1.9,1.1,3.6,2.4,5,4c1.4,1.6,2.4,3.4,3.1,5.4C51.7,248.3,52.1,250.4,52.1,252.5z
		 M40.2,219.7c0-1.8-0.3-3.4-1-4.9c-0.7-1.4-1.6-2.6-2.7-3.6c-1.1-1-2.5-1.8-4-2.3c-1.5-0.5-3.1-0.8-4.8-0.8h-9.7v24.8h10.4
		c3.4,0,6.2-1.2,8.4-3.5C39.1,227.1,40.2,223.8,40.2,219.7z M43.5,252.1c0-4.3-1.3-7.7-3.9-10.3c-2.6-2.6-6-4-10.4-4H18.1v27h12.1
		c2.7,0,4.9-0.4,6.6-1.2c1.7-0.8,3.1-1.8,4.1-2.9c1-1.2,1.7-2.6,2.1-4.1C43.3,255.1,43.5,253.6,43.5,252.1z"/>
	<path class="st0" d="M116.2,212.6c0-2-0.2-3.6-0.6-4.8c-0.4-1.2-0.9-2.2-1.5-2.8c-0.6-0.6-1.1-1.1-1.7-1.3c-0.6-0.2-1-0.4-1.2-0.4
		h16.5c-0.2,0-0.6,0.1-1.1,0.3c-0.6,0.2-1.1,0.6-1.7,1.3c-0.6,0.7-1.1,1.6-1.5,2.8c-0.4,1.2-0.7,2.9-0.7,5v34.5c0,7.9-1.9,14-5.8,18
		c-3.8,4.1-10.2,6.2-19.1,6.2c-8.9,0-15.2-2-19-6c-3.8-4-5.8-9.9-5.8-17.8v-35.1c0-2-0.2-3.6-0.6-4.8s-0.9-2.1-1.5-2.8
		c-0.6-0.7-1.1-1.1-1.6-1.3s-0.9-0.3-1.1-0.3h17.4c-0.1,0-0.4,0.1-0.9,0.3s-1,0.6-1.6,1.2c-0.5,0.6-1,1.5-1.4,2.7
		c-0.4,1.2-0.6,2.8-0.6,4.9v35c0,6.5,1.4,11.2,4.2,14.2c2.8,3,7.4,4.4,13.6,4.4c3.4,0,6.2-0.4,8.4-1.3c2.2-0.9,4-2.2,5.3-3.8
		c1.3-1.6,2.2-3.6,2.8-5.8c0.5-2.2,0.8-4.7,0.8-7.5V212.6z"/>
	<path class="st0" d="M194.7,214.4c-0.3-1.1-0.8-2.1-1.2-2.9s-1.2-1.5-2-2c-0.9-0.5-2-0.8-3.3-1c-1.3-0.2-3-0.3-5-0.3h-11.5v52.3
		c0,2,0.2,3.6,0.6,4.8c0.4,1.2,0.9,2.2,1.4,2.8c0.5,0.6,1,1.1,1.5,1.3c0.5,0.2,0.9,0.3,1.1,0.3h-17.3c0.2,0,0.5-0.1,1-0.3
		s1-0.6,1.5-1.2c0.5-0.6,1-1.5,1.4-2.8c0.4-1.2,0.6-2.9,0.6-5v-52.3h-11.6c-1.9,0-3.5,0.1-4.8,0.3c-1.3,0.2-2.4,0.5-3.3,1
		s-1.6,1-2.2,1.8c-0.6,0.8-1,1.8-1.4,3l0.8-11.1h52.8L194.7,214.4z"/>
	<path class="st0" d="M496.8,260.8c0,1.9,0.2,3.5,0.6,4.7c0.4,1.2,0.9,2.1,1.4,2.7c0.5,0.6,1,1.1,1.5,1.3c0.5,0.2,0.9,0.3,1.1,0.3
		h-17.1c0.2,0,0.6-0.1,1.1-0.3s1-0.6,1.5-1.2c0.5-0.6,0.9-1.5,1.4-2.7c0.4-1.2,0.6-2.8,0.6-4.8v-48.5c0-2-0.2-3.6-0.6-4.8
		c-0.4-1.2-0.9-2.1-1.5-2.7c-0.6-0.6-1.1-1-1.6-1.2s-0.9-0.3-1-0.4h17.3c-0.1,0-0.4,0.1-0.9,0.3s-1,0.6-1.6,1.2
		c-0.5,0.6-1,1.5-1.4,2.8c-0.4,1.2-0.7,2.8-0.7,4.8V260.8z"/>
	<path class="st0" d="M523.2,215.4c0,2.4-0.2,4.6-0.6,6.5c-0.4,1.9-0.8,3.6-1.3,4.9c-0.5,1.6-1.1,3-1.8,4.2h-0.2
		c-0.7-1.2-1.3-2.6-1.8-4.2c-0.5-1.3-0.9-3-1.2-4.9c-0.3-1.9-0.5-4.1-0.5-6.5v-12.2h7.4V215.4z"/>
	<path class="st0" d="M590.4,207.7c0-0.9-0.2-1.7-0.5-2.2c-0.3-0.6-0.7-1-1.1-1.4c-0.4-0.3-0.9-0.6-1.3-0.7
		c-0.4-0.1-0.8-0.2-0.9-0.2h16.7c-0.1,0-0.5,0.1-1,0.3c-0.6,0.2-1.2,0.7-2.1,1.5c-0.8,0.7-1.7,1.8-2.6,3.2c-1,1.4-1.9,3.3-2.9,5.8
		l-24,58.6l-23.8-58.9c-0.9-2.3-1.9-4.1-2.8-5.5c-0.9-1.4-1.8-2.4-2.6-3.2c-0.8-0.7-1.5-1.2-2-1.5c-0.6-0.2-1-0.4-1.2-0.4h18.6
		c-0.1,0-0.4,0-0.6,0.1c-0.3,0.1-0.6,0.3-1,0.6c-0.3,0.3-0.6,0.7-0.9,1.2c-0.3,0.5-0.4,1.2-0.4,2.1c0,1.3,0.5,3.3,1.6,5.8l16.9,41.4
		l16.8-42c0.4-1,0.7-1.9,1-2.6C590.3,209,590.4,208.3,590.4,207.7z"/>
	<path class="st0" d="M658.1,269.8h-41.6c0.2,0,0.6-0.1,1.1-0.3s1-0.6,1.6-1.3c0.6-0.7,1.1-1.6,1.5-2.9c0.4-1.2,0.6-2.9,0.6-5v-47.7
		c0-2.1-0.2-3.7-0.6-5c-0.4-1.2-1-2.2-1.6-2.8c-0.6-0.6-1.2-1.1-1.8-1.3c-0.6-0.2-0.9-0.3-1.1-0.3h40V214c-0.1-0.3-0.2-0.7-0.5-1.4
		c-0.2-0.7-0.7-1.3-1.4-2c-0.7-0.7-1.7-1.2-3.1-1.8c-1.4-0.5-3.2-0.8-5.5-0.8h-16.3v25.2h13.6c1.6,0,2.9-0.2,3.9-0.5
		c1-0.4,1.7-0.8,2.2-1.2c0.5-0.5,0.9-0.9,1-1.4c0.2-0.4,0.3-0.8,0.3-0.9v13.1c0-0.1-0.1-0.4-0.2-0.8c-0.2-0.4-0.5-0.9-1-1.4
		c-0.5-0.5-1.3-0.9-2.2-1.3c-1-0.4-2.2-0.5-3.8-0.5h-13.7v26.6h16.8c2,0,3.7-0.1,5.2-0.3c1.4-0.2,2.7-0.6,3.8-1.1
		c1.1-0.5,2-1.2,2.7-2.1c0.7-0.9,1.5-2,2.2-3.5L658.1,269.8z"/>
	<path class="st0" d="M999.9,212.5c0-2-0.2-3.6-0.7-4.8c-0.4-1.2-0.9-2.1-1.5-2.8c-0.6-0.6-1.2-1.1-1.8-1.3c-0.6-0.2-1-0.4-1.1-0.4
		h15.8c-0.2,0-0.6,0.1-1.1,0.3c-0.5,0.2-1.1,0.6-1.6,1.3c-0.6,0.7-1.1,1.6-1.5,2.8c-0.5,1.2-0.7,2.8-0.7,4.9v60.2l-45.4-56.1v44
		c0,2,0.2,3.6,0.7,4.8c0.5,1.2,1,2.1,1.6,2.8c0.6,0.6,1.2,1.1,1.8,1.3c0.6,0.2,1,0.3,1.2,0.3h-16.1c0.2,0,0.6-0.1,1.1-0.3
		c0.5-0.2,1.1-0.6,1.7-1.2c0.6-0.6,1.1-1.5,1.5-2.8c0.5-1.2,0.7-2.8,0.7-4.9v-47.1c0-1.7-0.3-3.1-0.8-4.3c-0.6-1.2-1.2-2.2-2.1-3
		c-0.8-0.8-1.6-1.4-2.5-1.9c-0.9-0.5-1.6-0.8-2.2-1.1h13l40.1,49.7V212.5z"/>
	<path class="st0" d="M1067.7,269.8h-41.6c0.2,0,0.5-0.1,1-0.3s1-0.6,1.6-1.3c0.6-0.7,1-1.6,1.5-2.9c0.4-1.2,0.6-2.9,0.6-5v-47.7
		c0-2.1-0.2-3.7-0.6-5c-0.4-1.2-1-2.2-1.5-2.8c-0.6-0.6-1.2-1.1-1.8-1.3c-0.6-0.2-1-0.3-1.2-0.3h40V214c-0.1-0.3-0.2-0.7-0.5-1.4
		c-0.2-0.7-0.7-1.3-1.4-2c-0.7-0.7-1.7-1.2-3.1-1.8c-1.4-0.5-3.2-0.8-5.5-0.8h-16.3v25.2h13.6c1.6,0,2.9-0.2,3.9-0.5
		c1-0.4,1.7-0.8,2.2-1.2c0.5-0.5,0.9-0.9,1-1.4c0.2-0.4,0.3-0.8,0.3-0.9v13.1c0-0.1-0.1-0.4-0.2-0.8c-0.2-0.4-0.5-0.9-1-1.4
		c-0.5-0.5-1.3-0.9-2.2-1.3c-1-0.4-2.2-0.5-3.8-0.5h-13.7v26.6h16.8c2,0,3.7-0.1,5.2-0.3c1.4-0.2,2.7-0.6,3.8-1.1
		c1.1-0.5,2-1.2,2.7-2.1c0.7-0.9,1.5-2,2.2-3.5L1067.7,269.8z"/>
	<path class="st0" d="M1130.9,207.7c0-0.9-0.2-1.7-0.5-2.2c-0.3-0.6-0.7-1-1.1-1.4c-0.4-0.3-0.9-0.6-1.3-0.7c-0.4-0.1-0.8-0.2-1-0.2
		h16.7c-0.1,0-0.5,0.1-1.1,0.3c-0.6,0.2-1.2,0.7-2,1.5c-0.8,0.7-1.7,1.8-2.6,3.2c-1,1.4-2,3.3-3,5.8l-24,58.6l-23.8-58.9
		c-0.9-2.3-1.9-4.1-2.8-5.5c-0.9-1.4-1.8-2.4-2.6-3.2c-0.8-0.7-1.5-1.2-2-1.5c-0.6-0.2-1-0.4-1.2-0.4h18.6c-0.1,0-0.4,0-0.7,0.1
		c-0.3,0.1-0.6,0.3-1,0.6c-0.3,0.3-0.6,0.7-0.9,1.2c-0.3,0.5-0.4,1.2-0.4,2.1c0,1.3,0.5,3.3,1.6,5.8l16.9,41.4l16.8-42
		c0.4-1,0.7-1.9,1-2.6C1130.8,209,1130.9,208.3,1130.9,207.7z"/>
	<path class="st0" d="M1194.6,269.8H1153c0.2,0,0.5-0.1,1-0.3s1-0.6,1.6-1.3c0.6-0.7,1-1.6,1.5-2.9c0.4-1.2,0.6-2.9,0.6-5v-47.7
		c0-2.1-0.2-3.7-0.6-5c-0.4-1.2-1-2.2-1.5-2.8c-0.6-0.6-1.2-1.1-1.8-1.3c-0.6-0.2-1-0.3-1.2-0.3h40V214c-0.1-0.3-0.2-0.7-0.5-1.4
		c-0.2-0.7-0.7-1.3-1.4-2c-0.7-0.7-1.7-1.2-3.1-1.8c-1.4-0.5-3.2-0.8-5.5-0.8h-16.3v25.2h13.6c1.6,0,2.9-0.2,3.9-0.5
		c1-0.4,1.7-0.8,2.2-1.2c0.5-0.5,0.9-0.9,1-1.4c0.2-0.4,0.3-0.8,0.3-0.9v13.1c0-0.1-0.1-0.4-0.2-0.8c-0.2-0.4-0.5-0.9-1-1.4
		c-0.5-0.5-1.3-0.9-2.2-1.3c-1-0.4-2.2-0.5-3.8-0.5h-13.7v26.6h16.8c2,0,3.7-0.1,5.2-0.3c1.4-0.2,2.7-0.6,3.8-1.1
		c1.1-0.5,2-1.2,2.7-2.1c0.7-0.9,1.5-2,2.2-3.5L1194.6,269.8z"/>
	<path class="st0" d="M1247,269.8l-14-23.4c-1.3-2.3-2.6-3.9-4-4.6c-1.3-0.8-2.8-1.2-4.6-1.2h-2.5v20c0,2,0.2,3.6,0.6,4.8
		c0.4,1.2,0.9,2.1,1.4,2.8c0.5,0.7,1,1.1,1.5,1.3c0.5,0.2,0.9,0.3,1.1,0.3h-17.1c0.2,0,0.5-0.1,1-0.3s1-0.6,1.5-1.2
		c0.5-0.6,1-1.5,1.4-2.8c0.4-1.2,0.6-2.8,0.6-4.9v-47.9c0-2.1-0.2-3.7-0.6-5c-0.4-1.2-0.9-2.2-1.5-2.9c-0.6-0.7-1.1-1.1-1.7-1.3
		c-0.5-0.2-0.9-0.3-1.1-0.4h23.4c3.3,0,6.2,0.5,8.9,1.4c2.7,0.9,5,2.2,6.8,3.9c1.9,1.7,3.4,3.6,4.4,5.8c1,2.2,1.5,4.6,1.5,7.2
		c0,2-0.3,4-1,6.1c-0.7,2.1-1.8,4-3.2,5.7c-1.5,1.7-3.4,3.2-5.7,4.3c-2.3,1.2-5,1.9-8.2,2.2c0.9,0.3,1.8,1,2.7,2
		c0.9,1,1.8,2.1,2.5,3.3l11.6,19c1.3,2.1,2.7,3.5,4.2,4.2c1.5,0.7,2.7,1.2,3.8,1.5H1247z M1245.9,222c0-1.7-0.3-3.4-1-5.1
		c-0.6-1.7-1.6-3.1-2.8-4.4c-1.3-1.3-2.9-2.4-4.8-3.2c-1.9-0.8-4.1-1.2-6.6-1.2h-9.1v27.8h9.1c2.8,0,5.2-0.4,7.1-1.1
		c1.9-0.8,3.4-1.8,4.6-3c1.2-1.3,2.1-2.7,2.6-4.4C1245.7,225.6,1245.9,223.9,1245.9,222z"/>
	<path class="st0" d="M52.1,452.5c0,2.2-0.4,4.3-1.2,6.4c-0.8,2.1-2,3.9-3.5,5.5c-1.6,1.6-3.5,2.9-5.9,3.9c-2.4,1-5.1,1.5-8.2,1.5
		H5.5c0.2,0,0.5-0.1,1-0.3s1-0.6,1.5-1.3c0.5-0.7,1-1.6,1.4-2.9c0.4-1.3,0.6-3,0.6-5.1v-47.6c0-2.1-0.2-3.7-0.6-5
		c-0.4-1.2-0.9-2.2-1.5-2.8c-0.5-0.6-1.1-1.1-1.6-1.3c-0.5-0.2-0.9-0.3-1.1-0.3h25.2c3.2,0,6,0.4,8.2,1.3c2.3,0.9,4.2,2.1,5.7,3.6
		s2.6,3.2,3.3,5.1c0.7,1.9,1.1,3.8,1.1,5.8c0,1.9-0.3,3.7-0.9,5.5c-0.6,1.8-1.4,3.4-2.5,4.8c-1.1,1.4-2.4,2.6-4,3.6
		c-1.5,1-3.2,1.6-5,1.9c2.5,0.3,4.7,0.9,6.6,2c1.9,1.1,3.6,2.4,5,4c1.4,1.6,2.4,3.4,3.1,5.4C51.7,448.3,52.1,450.4,52.1,452.5z
		 M40.2,419.7c0-1.8-0.3-3.4-1-4.9c-0.7-1.4-1.6-2.6-2.7-3.6c-1.1-1-2.5-1.8-4-2.3c-1.5-0.5-3.1-0.8-4.8-0.8h-9.7v24.8h10.4
		c3.4,0,6.2-1.2,8.4-3.5C39.1,427.1,40.2,423.8,40.2,419.7z M43.5,452.1c0-4.3-1.3-7.7-3.9-10.3c-2.6-2.6-6-4-10.4-4H18.1v27h12.1
		c2.7,0,4.9-0.4,6.6-1.2c1.7-0.8,3.1-1.8,4.1-2.9c1-1.2,1.7-2.6,2.1-4.1C43.3,455.2,43.5,453.6,43.5,452.1z"/>
	<path class="st0" d="M110.8,469.8H69.2c0.2,0,0.6-0.1,1.1-0.3s1-0.6,1.6-1.3c0.6-0.7,1.1-1.6,1.5-2.9c0.4-1.2,0.6-2.9,0.6-5v-47.7
		c0-2.1-0.2-3.7-0.6-5c-0.4-1.2-1-2.2-1.6-2.8c-0.6-0.6-1.2-1.1-1.8-1.3c-0.6-0.2-0.9-0.3-1.1-0.3h40V414c-0.1-0.3-0.2-0.7-0.5-1.4
		c-0.2-0.7-0.7-1.3-1.4-2c-0.7-0.7-1.7-1.2-3.1-1.8c-1.4-0.5-3.2-0.8-5.5-0.8H82v25.2h13.6c1.6,0,2.9-0.2,3.9-0.5
		c1-0.4,1.7-0.8,2.2-1.2c0.5-0.5,0.9-0.9,1.1-1.4c0.2-0.4,0.3-0.8,0.3-0.9v13.1c0-0.1-0.1-0.4-0.2-0.8c-0.2-0.4-0.5-0.9-1-1.4
		c-0.5-0.5-1.3-0.9-2.2-1.3c-1-0.4-2.2-0.5-3.9-0.5H82v26.6h16.8c2,0,3.7-0.1,5.1-0.3c1.4-0.2,2.7-0.6,3.8-1.1
		c1.1-0.5,2-1.2,2.7-2.1c0.7-0.9,1.5-2,2.2-3.5L110.8,469.8z"/>
	<path class="st0" d="M168.9,469.8h-41.6c0.2,0,0.6-0.1,1.1-0.3s1-0.6,1.6-1.3c0.6-0.7,1.1-1.6,1.5-2.9c0.4-1.2,0.6-2.9,0.6-5v-47.7
		c0-2.1-0.2-3.7-0.6-5c-0.4-1.2-1-2.2-1.6-2.8c-0.6-0.6-1.2-1.1-1.8-1.3c-0.6-0.2-0.9-0.3-1.1-0.3h40V414c-0.1-0.3-0.2-0.7-0.5-1.4
		c-0.2-0.7-0.7-1.3-1.4-2c-0.7-0.7-1.7-1.2-3.1-1.8c-1.4-0.5-3.2-0.8-5.5-0.8h-16.3v25.2h13.6c1.6,0,2.9-0.2,3.9-0.5
		c1-0.4,1.7-0.8,2.2-1.2c0.5-0.5,0.9-0.9,1.1-1.4c0.2-0.4,0.3-0.8,0.3-0.9v13.1c0-0.1-0.1-0.4-0.2-0.8c-0.2-0.4-0.5-0.9-1-1.4
		c-0.5-0.5-1.3-0.9-2.2-1.3c-1-0.4-2.2-0.5-3.9-0.5h-13.7v26.6h16.8c2,0,3.7-0.1,5.1-0.3c1.4-0.2,2.7-0.6,3.8-1.1
		c1.1-0.5,2-1.2,2.7-2.1c0.7-0.9,1.5-2,2.2-3.5L168.9,469.8z"/>
	<path class="st0" d="M235.5,412.5c0-2-0.2-3.6-0.6-4.8c-0.4-1.2-1-2.1-1.6-2.8c-0.6-0.6-1.2-1.1-1.8-1.3c-0.6-0.2-0.9-0.4-1.1-0.4
		h15.8c-0.2,0-0.6,0.1-1.1,0.3c-0.5,0.2-1.1,0.6-1.6,1.3c-0.6,0.7-1.1,1.6-1.6,2.8c-0.5,1.2-0.7,2.8-0.7,4.9v60.2l-45.4-56.1v44
		c0,2,0.2,3.6,0.7,4.8c0.5,1.2,1,2.1,1.6,2.8c0.6,0.6,1.2,1.1,1.8,1.3c0.6,0.2,1,0.3,1.2,0.3H185c0.2,0,0.6-0.1,1.1-0.3
		c0.5-0.2,1.1-0.6,1.6-1.2c0.6-0.6,1.1-1.5,1.5-2.8c0.5-1.2,0.7-2.8,0.7-4.9v-47.1c0-1.7-0.3-3.1-0.9-4.3c-0.6-1.2-1.2-2.2-2-3
		c-0.8-0.8-1.6-1.4-2.5-1.9c-0.9-0.5-1.6-0.8-2.2-1.1h13l40.1,49.7V412.5z"/>
	<path class="st0" d="M614.7,414.4c-0.3-1.1-0.8-2.1-1.2-2.9s-1.2-1.5-2-2c-0.9-0.5-2-0.8-3.3-1c-1.3-0.2-3-0.3-5-0.3h-11.5v52.3
		c0,2,0.2,3.6,0.6,4.8c0.4,1.2,0.9,2.2,1.4,2.8c0.5,0.6,1,1.1,1.5,1.3c0.5,0.2,0.9,0.3,1.1,0.3h-17.3c0.2,0,0.5-0.1,1-0.3
		s1-0.6,1.5-1.2c0.5-0.6,1-1.5,1.4-2.8c0.4-1.2,0.6-2.9,0.6-5v-52.3h-11.6c-1.9,0-3.5,0.1-4.8,0.3c-1.3,0.2-2.4,0.5-3.3,1
		s-1.6,1-2.2,1.8c-0.6,0.8-1,1.8-1.4,3l0.8-11.1h52.8L614.7,414.4z"/>
	<path class="st0" d="M691.1,435.7c0,5-0.8,9.7-2.3,14c-1.6,4.3-3.8,8.1-6.7,11.3s-6.4,5.7-10.4,7.5c-4,1.8-8.5,2.8-13.5,2.8
		c-4.7,0-9-0.9-12.9-2.6c-3.9-1.7-7.2-4.1-9.9-7.2c-2.7-3-4.8-6.6-6.4-10.8c-1.5-4.2-2.2-8.7-2.2-13.7c0-5.1,0.8-9.8,2.5-14.1
		c1.6-4.3,3.9-8.1,6.8-11.3c2.9-3.2,6.4-5.7,10.4-7.5c4.1-1.8,8.6-2.7,13.5-2.7c4.7,0,8.9,0.9,12.8,2.6c3.9,1.7,7.1,4.1,9.8,7.2
		c2.7,3,4.8,6.6,6.3,10.8S691.1,430.8,691.1,435.7z M683.1,438c0-4.5-0.6-8.6-1.8-12.4c-1.2-3.8-2.8-7-5-9.8c-2.2-2.8-4.8-4.9-8-6.5
		c-3.1-1.6-6.6-2.3-10.5-2.3c-3.4,0-6.5,0.6-9.3,2c-2.8,1.3-5.2,3.1-7.2,5.5c-2,2.4-3.6,5.3-4.7,8.6c-1.1,3.3-1.7,7-1.7,11.1
		c0,4.6,0.6,8.8,1.8,12.7c1.2,3.9,2.9,7.2,5.1,10c2.2,2.8,4.8,5,8,6.6c3.1,1.6,6.5,2.3,10.3,2.3c3.4,0,6.5-0.7,9.4-2
		c2.8-1.3,5.2-3.2,7.2-5.7c2-2.5,3.6-5.4,4.7-8.8C682.6,445.9,683.1,442.1,683.1,438z"/>
	<path class="st0" d="M1197,460.5c0,1.9,0.2,3.5,0.5,4.7c0.4,1.2,0.8,2.1,1.2,2.8c0.5,0.7,1,1.1,1.5,1.3c0.5,0.2,0.9,0.4,1.1,0.5
		h-16.6c0.3-0.1,0.6-0.2,1.1-0.4c0.5-0.2,0.9-0.6,1.4-1.3c0.5-0.7,0.9-1.6,1.2-2.8c0.4-1.2,0.5-2.8,0.5-4.8v-46.8l-25.2,57.3
		l-25.2-57.3v46.2c0,2.1,0.2,3.7,0.6,5c0.4,1.3,0.9,2.2,1.5,3c0.6,0.7,1.1,1.2,1.7,1.5c0.6,0.3,1,0.4,1.2,0.5h-15.9
		c0.3-0.1,0.7-0.2,1.2-0.5c0.6-0.2,1.2-0.7,1.8-1.3c0.6-0.7,1.1-1.7,1.6-3c0.5-1.3,0.7-3,0.7-5.2v-47.8c0-1.9-0.2-3.5-0.7-4.6
		c-0.4-1.1-1-2-1.5-2.7c-0.6-0.6-1.2-1-1.8-1.2c-0.6-0.2-1-0.3-1.2-0.4h14.5l22.9,51.8l22.5-51.8h13.5c-0.2,0.1-0.5,0.2-1,0.4
		s-1,0.6-1.5,1.3c-0.5,0.7-1,1.6-1.4,2.8c-0.4,1.2-0.6,2.7-0.6,4.7V460.5z"/>
	<path class="st0" d="M1259.8,469.8h-41.6c0.2,0,0.5-0.1,1-0.3s1-0.6,1.6-1.3c0.6-0.7,1-1.6,1.5-2.9c0.4-1.2,0.6-2.9,0.6-5v-47.7
		c0-2.1-0.2-3.7-0.6-5c-0.4-1.2-1-2.2-1.5-2.8c-0.6-0.6-1.2-1.1-1.8-1.3c-0.6-0.2-1-0.3-1.2-0.3h40V414c-0.1-0.3-0.2-0.7-0.5-1.4
		c-0.2-0.7-0.7-1.3-1.4-2c-0.7-0.7-1.7-1.2-3.1-1.8c-1.4-0.5-3.2-0.8-5.5-0.8H1231v25.2h13.6c1.6,0,2.9-0.2,3.9-0.5
		c1-0.4,1.7-0.8,2.2-1.2c0.5-0.5,0.9-0.9,1-1.4c0.2-0.4,0.3-0.8,0.3-0.9v13.1c0-0.1-0.1-0.4-0.2-0.8c-0.2-0.4-0.5-0.9-1-1.4
		c-0.5-0.5-1.3-0.9-2.2-1.3c-1-0.4-2.2-0.5-3.8-0.5H1231v26.6h16.8c2,0,3.7-0.1,5.2-0.3c1.4-0.2,2.7-0.6,3.8-1.1
		c1.1-0.5,2-1.2,2.7-2.1c0.7-0.9,1.5-2,2.2-3.5L1259.8,469.8z"/>
</g>
</svg>
