<svg id="Layer_1" data-name="Layer 1" xmlns="http://www.w3.org/2000/svg" viewBox="0 0 1681.7 178.8"><defs><style>.cls-1{fill:#fff;}</style></defs><title>title_ss15</title><path class="cls-1" d="M86.1,159.9c-19.7,0-36.2-8-47.8-23.1C28,123.4,22.4,105.3,22.4,86c0-18.9,5.5-36.4,15.4-49.5,11.1-14.7,27-22.4,45.8-22.4,12.5,0,22.9,2.9,31.1,8.5,8,5.5,14.1,13.8,18.1,24.8l0.5,1.3V10.9l-0.1-.1C125.8,6.8,110.2,0,88.4,0,61.2,0,38.3,9.9,22.1,28.7,8,45,0,67.7,0,91c0,22.3,7.2,42.9,20.2,57.9,14.8,17,36.2,26,61.9,26,21.8,0,41.3-8.6,55.1-24.3l0.1-.1v-17l-0.4.5C123.2,150.2,104.2,159.9,86.1,159.9Z" transform="translate(0 0)"/><path class="cls-1" d="M235.2,0C187,0,152,37.5,152,89.2c0,24,7.7,45.8,21.6,61.2,14.4,16,34.1,24.4,57.1,24.4,23.7,0,45-9.2,60-25.9,14.6-16.2,22.6-38.7,22.6-63.3C313.4,35.2,281.3,0,235.2,0ZM276,36.2c10.9,13.8,16.9,33.4,16.9,55.2,0,20.1-5.5,37.4-15.9,50s-24.7,19.2-41.3,19.2c-18.4,0-34.1-7.7-45.5-22.1C179.1,124.4,173,104.3,173,82c0-19.9,5.5-36.8,15.9-49.1s24.6-18.6,41.3-18.6C248.9,14.3,264.7,21.8,276,36.2Z" transform="translate(0 0)"/><path class="cls-1" d="M405.3,158.1H364.8V27.7c0-8.6,1.7-15,4.9-19A10.36,10.36,0,0,1,376,4.8V4.3H333V4.8a10.11,10.11,0,0,1,6.3,3.9c3.3,4,4.9,10.4,4.9,19V145.8c0,9.3-1.6,16.3-4.8,20.6-2.5,3.4-5.2,4-6,4.1V171H438.3l4.6-34.4-0.8,2.1C435.8,156.4,426.5,158.1,405.3,158.1Z" transform="translate(0 0)"/><path class="cls-1" d="M531.9,158.1H491.4V27.7c0-8.6,1.7-15,4.9-19a10.36,10.36,0,0,1,6.3-3.9V4.3h-43V4.8a10.11,10.11,0,0,1,6.3,3.9c3.3,4,4.9,10.4,4.9,19V145.8c0,9.3-1.6,16.3-4.8,20.6-2.5,3.4-5.2,4-6,4.1V171H564.9l4.6-34.4-0.8,2.1C562.4,156.4,553.1,158.1,531.9,158.1Z" transform="translate(0 0)"/><path class="cls-1" d="M661.1,158.1H619.4V92.2h34c15.1,0,17.8,7.7,18.2,10h0.5V67.7l-0.5,1.8c-1.3,4.6-5.6,10-18.5,10H619.4V17h40.5c20.3,0,25,9.1,26,14.5h0.5V4.3H586.1V4.8C588.2,5,598.6,7.2,598.6,28V147.1c0,21-9.6,23.2-11.5,23.5v0.5H691.2l4.8-31.7-0.7,1.4C688.4,154.4,681,158.1,661.1,158.1Z" transform="translate(0 0)"/><path class="cls-1" d="M796.9,159.9c-19.7,0-36.2-8-47.8-23.1-10.3-13.4-15.9-31.5-15.9-50.8,0-18.9,5.5-36.4,15.4-49.5,11.1-14.7,27-22.4,45.8-22.4,12.5,0,22.9,2.9,31.1,8.5,8,5.5,14.1,13.8,18.1,24.8l0.5,1.3V10.9l-0.1-.1C836.6,6.8,821,0,799.2,0,772,0,749.1,9.9,732.9,28.7,718.8,45,710.8,67.7,710.8,91c0,22.3,7.2,42.9,20.2,57.9,14.8,17,36.2,26,61.9,26,21.8,0,41.3-8.6,55.1-24.3l0.1-.1v-17l-0.4.5C834,150.2,815,159.9,796.9,159.9Z" transform="translate(0 0)"/><path class="cls-1" d="M860.4,4.3l-2.2,30.3,0.7-2.3c3.4-11.7,9.9-15.1,28.7-15.1h28.7V147.6c0,20-8.6,22.7-11.3,23v0.5h43.2v-0.5c-1.2-.1-11.3-1.9-11.3-23V17.3h28.5c17.8,0,24.8,2.3,28.7,15.3l0.6,2.1L992.5,4.3H860.4Z" transform="translate(0 0)"/><path class="cls-1" d="M1053.2,4.8V4.3H1008l2,0.5c7.4,1.9,11.6,9.8,11.6,22.5V148.4c0,19.8-9.2,22-11,22.2v0.5h42.7v-0.5c-1.2-.1-11.3-1.8-11.3-22.2V27.2C1042,7.6,1051.4,5.1,1053.2,4.8Z" transform="translate(0 0)"/><path class="cls-1" d="M1156.3,0c-48.2,0-83.2,37.5-83.2,89.2,0,24,7.7,45.8,21.6,61.2,14.4,16,34.1,24.4,57.1,24.4,23.7,0,45-9.2,60-25.9,14.6-16.2,22.6-38.7,22.6-63.3C1234.5,35.2,1202.4,0,1156.3,0Zm40.8,36.2C1208,50,1214,69.6,1214,91.4c0,20.1-5.5,37.4-15.9,50s-24.7,19.2-41.3,19.2c-18.4,0-34.1-7.7-45.5-22.1-11.1-14.1-17.2-34.2-17.2-56.5,0-19.9,5.5-36.8,15.9-49.1s24.6-18.6,41.3-18.6C1170,14.3,1185.8,21.8,1197.1,36.2Z" transform="translate(0 0)"/><path class="cls-1" d="M1365.1,4.3l2.2,0.5c3.8,0.8,12.5,4.8,12.5,23V128L1280.1,4.4l-0.1-.1h-33.8l1.2,0.5c12.5,5.2,18.8,13.8,18.8,25.5V147.9c0,19.5-9.4,22.3-12.3,22.7v0.5h40.2v-0.5c-1.3-.1-13-2-13-22.7V38.7L1394,178.3l0.4,0.5V27.7c0-20.6,11-22.8,12.3-23V4.2h-41.6V4.3Z" transform="translate(0 0)"/><path class="cls-1" d="M1529,0.8c-15.6,0-29.7,8.5-39.7,24-10.6,16.5-16.3,39.9-16.3,67.7,0,25.6,5.7,46.8,16.4,61.6,9.8,13.5,23.6,20.9,38.8,20.9,15.7,0,29.8-8.5,39.9-24,10.7-16.4,16.3-39.6,16.3-66.9,0-25.5-5.6-46.8-16.3-61.7C1558.2,8.4,1544.3.8,1529,.8Zm35.4,95.1c0,20.9-3.5,38-10.2,49.6-5.9,10.2-14.3,15.9-23.5,15.9-17.6,0-38.2-21.4-38.2-81.7,0-20.5,3.5-37.5,10.2-49.2,6-10.5,14.4-16.2,23.7-16.2,10.2,0,19.5,6.9,26.2,19.5C1560.4,48.2,1564.4,69.7,1564.4,95.9Z" transform="translate(0 0)"/><path class="cls-1" d="M1638.4,170.3a1.63,1.63,0,0,0-.6.3l-0.1.1v0.4h44l-0.7-.5a4.88,4.88,0,0,0-.7-0.3c-2.8-1.4-11.5-5.7-11.5-28.7V1h-6.6l-1.4,1.7c-8.7,10.5-26.8,32.3-38.6,45.1l-0.1.1V66.1l0.4-.5c3.9-4.3,10.7-12,17.2-19.5,3.6-4.2,7.1-8.1,9.9-11.3V141.5C1649.6,147.3,1649.6,164.7,1638.4,170.3Z" transform="translate(0 0)"/></svg>