<?xml version="1.0" encoding="utf-8"?>
<!-- Generator: Adobe Illustrator 19.2.1, SVG Export Plug-In . SVG Version: 6.00 Build 0)  -->
<svg version="1.1" id="Layer_1" xmlns="http://www.w3.org/2000/svg" xmlns:xlink="http://www.w3.org/1999/xlink" x="0px" y="0px"
	 viewBox="0 0 923.5 144.3" style="enable-background:new 0 0 923.5 144.3;" xml:space="preserve">
<style type="text/css">
	.st0{fill:#FFFFFF;}
</style>
<g>
	<path class="st0" d="M84.2,4.7c0-0.9-0.2-1.5-0.7-1.8c-0.4-0.3-0.8-0.4-1-0.5h10.6c-0.1,0-0.3,0.1-0.7,0.2
		c-0.4,0.2-0.8,0.5-1.4,0.9c-0.6,0.5-1.2,1.2-2,2.1c-0.8,0.9-1.6,2.2-2.5,3.7l-11.7,20v13.1c0,1.4,0.1,2.5,0.4,3.4
		c0.3,0.9,0.6,1.5,0.9,2c0.4,0.4,0.7,0.7,1.1,0.9c0.4,0.2,0.6,0.2,0.8,0.2H66c0.1,0,0.4-0.1,0.7-0.2s0.7-0.4,1.1-0.9
		c0.4-0.4,0.7-1.1,1-2c0.3-0.9,0.4-2,0.4-3.5v-13L57.4,9.3c-0.9-1.5-1.7-2.7-2.5-3.6c-0.7-0.9-1.4-1.6-2-2.1c-0.6-0.5-1-0.8-1.4-0.9
		c-0.4-0.2-0.6-0.2-0.7-0.2h12.9c-0.1,0-0.2,0-0.4,0.1c-0.2,0.1-0.4,0.2-0.6,0.3c-0.2,0.1-0.4,0.4-0.5,0.6c-0.1,0.3-0.2,0.7-0.2,1.1
		c0,0.5,0.2,1.1,0.5,1.9c0.3,0.7,0.8,1.6,1.4,2.8l9.2,15.9L82,10c0.8-1.4,1.4-2.4,1.7-3.3C84.1,5.9,84.2,5.3,84.2,4.7z"/>
	<path class="st0" d="M143.3,25.2c0,3.5-0.5,6.8-1.6,9.8c-1.1,3-2.7,5.7-4.7,7.9c-2,2.2-4.5,4-7.3,5.3c-2.8,1.3-6,1.9-9.5,1.9
		c-3.3,0-6.3-0.6-9-1.8c-2.7-1.2-5-2.9-6.9-5c-1.9-2.1-3.4-4.6-4.4-7.6c-1-2.9-1.6-6.1-1.6-9.6c0-3.5,0.6-6.8,1.7-9.9
		c1.1-3,2.7-5.7,4.8-7.9c2-2.2,4.5-4,7.3-5.2c2.8-1.3,6-1.9,9.4-1.9c3.3,0,6.3,0.6,9,1.8c2.7,1.2,5,2.9,6.9,5
		c1.9,2.1,3.4,4.7,4.4,7.6C142.8,18.6,143.3,21.8,143.3,25.2z M137.7,26.8c0-3.1-0.4-6-1.2-8.6c-0.8-2.6-2-4.9-3.5-6.9
		c-1.5-1.9-3.4-3.5-5.6-4.5c-2.2-1.1-4.6-1.6-7.3-1.6c-2.4,0-4.6,0.5-6.5,1.4c-2,0.9-3.7,2.2-5.1,3.9s-2.5,3.7-3.3,6
		c-0.8,2.3-1.2,4.9-1.2,7.8c0,3.2,0.4,6.2,1.3,8.9c0.8,2.7,2,5,3.6,7c1.5,2,3.4,3.5,5.6,4.6c2.2,1.1,4.6,1.6,7.2,1.6
		c2.4,0,4.6-0.5,6.5-1.4c2-0.9,3.7-2.3,5.1-4c1.4-1.7,2.5-3.8,3.3-6.2C137.3,32.4,137.7,29.7,137.7,26.8z"/>
	<path class="st0" d="M183.4,9c0-1.4-0.2-2.5-0.5-3.4c-0.3-0.9-0.7-1.5-1.1-2c-0.4-0.4-0.8-0.7-1.2-0.9c-0.4-0.2-0.7-0.3-0.9-0.3
		h11.6c-0.1,0-0.4,0.1-0.8,0.2c-0.4,0.1-0.8,0.4-1.2,0.9c-0.4,0.5-0.7,1.1-1,2c-0.3,0.9-0.5,2-0.5,3.5v24.1c0,5.6-1.3,9.8-4,12.6
		c-2.7,2.9-7.2,4.3-13.4,4.3c-6.2,0-10.7-1.4-13.3-4.2c-2.7-2.8-4-6.9-4-12.5V8.9c0-1.4-0.1-2.5-0.4-3.4c-0.3-0.8-0.6-1.5-1-2
		c-0.4-0.5-0.8-0.8-1.1-0.9c-0.4-0.1-0.6-0.2-0.7-0.2H162c-0.1,0-0.3,0.1-0.7,0.2c-0.4,0.1-0.7,0.4-1.1,0.8c-0.4,0.4-0.7,1-1,1.9
		c-0.3,0.8-0.5,2-0.5,3.4v24.5c0,4.5,1,7.8,3,9.9c2,2.1,5.2,3.1,9.6,3.1c2.4,0,4.4-0.3,5.9-0.9c1.6-0.6,2.8-1.5,3.7-2.7
		c0.9-1.1,1.6-2.5,1.9-4.1c0.4-1.6,0.6-3.3,0.6-5.2V9z"/>
	<path class="st0" d="M245.9,33.9c0-1.3-0.2-2.3-0.5-3.1c-0.3-0.8-0.6-1.4-1-1.8c-0.4-0.4-0.7-0.7-1.1-0.9c-0.4-0.2-0.6-0.2-0.8-0.2
		h12.2c-0.1,0-0.4,0.1-0.7,0.2s-0.7,0.4-1.1,0.8c-0.4,0.4-0.7,1-1,1.8c-0.3,0.8-0.4,1.8-0.4,3.1v13.1c-2.1,1-4.5,1.8-7.3,2.4
		c-2.8,0.6-5.6,0.8-8.2,0.8c-3.8,0-7.1-0.7-10-2c-2.9-1.3-5.3-3.1-7.2-5.2c-1.9-2.2-3.3-4.7-4.3-7.5c-1-2.8-1.4-5.8-1.4-8.8
		c0-3.1,0.5-6.2,1.5-9.2c1-3,2.6-5.7,4.6-8.1c2.1-2.4,4.7-4.3,7.8-5.8c3.1-1.5,6.8-2.2,11-2.2c2.7,0,5.1,0.3,7.4,0.9
		c2.3,0.6,4.2,1.3,5.7,2.1V14c-1-2.8-2.7-5-5.2-6.6c-2.5-1.6-5.6-2.4-9.2-2.4c-2.8,0-5.3,0.6-7.5,1.7c-2.2,1.1-4,2.6-5.5,4.5
		c-1.5,1.9-2.6,4-3.4,6.5c-0.8,2.4-1.2,5-1.2,7.6c0,2.6,0.4,5.2,1.2,7.7c0.8,2.5,2,4.7,3.5,6.7s3.5,3.5,5.8,4.7
		c2.3,1.2,5,1.8,8.1,1.8c1.3,0,2.7-0.2,4.3-0.5c1.6-0.3,2.9-0.7,4-1.1V33.9z"/>
	<path class="st0" d="M305.7,25.2c0,3.5-0.5,6.8-1.6,9.8c-1.1,3-2.7,5.7-4.7,7.9c-2,2.2-4.5,4-7.3,5.3c-2.8,1.3-6,1.9-9.5,1.9
		c-3.3,0-6.3-0.6-9-1.8c-2.7-1.2-5-2.9-6.9-5c-1.9-2.1-3.4-4.6-4.4-7.6c-1-2.9-1.6-6.1-1.6-9.6c0-3.5,0.6-6.8,1.7-9.9
		c1.1-3,2.7-5.7,4.8-7.9c2-2.2,4.5-4,7.3-5.2c2.8-1.3,6-1.9,9.4-1.9c3.3,0,6.3,0.6,9,1.8c2.7,1.2,5,2.9,6.9,5
		c1.9,2.1,3.4,4.7,4.4,7.6C305.2,18.6,305.7,21.8,305.7,25.2z M300.1,26.8c0-3.1-0.4-6-1.2-8.6c-0.8-2.6-2-4.9-3.5-6.9
		c-1.5-1.9-3.4-3.5-5.6-4.5c-2.2-1.1-4.6-1.6-7.3-1.6c-2.4,0-4.6,0.5-6.5,1.4c-2,0.9-3.7,2.2-5.1,3.9s-2.5,3.7-3.3,6
		c-0.8,2.3-1.2,4.9-1.2,7.8c0,3.2,0.4,6.2,1.3,8.9c0.8,2.7,2,5,3.6,7c1.5,2,3.4,3.5,5.6,4.6c2.2,1.1,4.6,1.6,7.2,1.6
		c2.4,0,4.6-0.5,6.5-1.4c2-0.9,3.7-2.3,5.1-4c1.4-1.7,2.5-3.8,3.3-6.2C299.7,32.4,300.1,29.7,300.1,26.8z"/>
	<path class="st0" d="M348,9c0-1.4-0.2-2.5-0.5-3.4c-0.3-0.8-0.7-1.5-1.1-1.9c-0.4-0.4-0.8-0.7-1.2-0.9c-0.4-0.2-0.7-0.3-0.8-0.3
		h11.1c-0.1,0-0.4,0.1-0.8,0.2c-0.4,0.1-0.8,0.4-1.2,0.9c-0.4,0.5-0.8,1.1-1.1,2c-0.3,0.8-0.5,2-0.5,3.4v42.1l-31.8-39.3v30.8
		c0,1.4,0.2,2.5,0.5,3.4c0.3,0.8,0.7,1.5,1.1,1.9c0.4,0.4,0.8,0.7,1.3,0.9c0.4,0.2,0.7,0.2,0.8,0.2h-11.3c0.1,0,0.4-0.1,0.8-0.2
		c0.4-0.1,0.8-0.4,1.2-0.9c0.4-0.4,0.8-1.1,1.1-1.9c0.3-0.8,0.5-2,0.5-3.4v-33c0-1.2-0.2-2.2-0.6-3c-0.4-0.8-0.9-1.5-1.4-2.1
		c-0.6-0.6-1.1-1-1.8-1.3c-0.6-0.3-1.1-0.6-1.5-0.8h9.1L348,37.3V9z"/>
	<path class="st0" d="M397.2,9c0-1.4-0.2-2.5-0.5-3.4c-0.3-0.8-0.7-1.5-1.1-1.9c-0.4-0.4-0.8-0.7-1.2-0.9c-0.4-0.2-0.7-0.3-0.8-0.3
		h11.1c-0.1,0-0.4,0.1-0.8,0.2c-0.4,0.1-0.8,0.4-1.2,0.9c-0.4,0.5-0.8,1.1-1.1,2c-0.3,0.8-0.5,2-0.5,3.4v42.1l-31.8-39.3v30.8
		c0,1.4,0.2,2.5,0.5,3.4c0.3,0.8,0.7,1.5,1.1,1.9c0.4,0.4,0.8,0.7,1.3,0.9c0.4,0.2,0.7,0.2,0.8,0.2h-11.3c0.1,0,0.4-0.1,0.8-0.2
		c0.4-0.1,0.8-0.4,1.2-0.9c0.4-0.4,0.8-1.1,1.1-1.9c0.3-0.8,0.5-2,0.5-3.4v-33c0-1.2-0.2-2.2-0.6-3c-0.4-0.8-0.9-1.5-1.4-2.1
		c-0.6-0.6-1.1-1-1.8-1.3c-0.6-0.3-1.1-0.6-1.5-0.8h9.1l28.1,34.8V9z"/>
	<path class="st0" d="M448.2,41c0.7,1.8,1.4,3.2,2.1,4.2c0.7,1,1.3,1.9,1.9,2.4c0.6,0.6,1.1,0.9,1.5,1.1c0.4,0.2,0.7,0.3,0.8,0.3
		h-12.8c0.1,0,0.3,0,0.5-0.1c0.2-0.1,0.5-0.2,0.7-0.4c0.3-0.2,0.5-0.5,0.7-0.8c0.2-0.4,0.3-0.9,0.3-1.5c0-0.5-0.1-1.1-0.3-1.8
		c-0.2-0.7-0.5-1.4-0.9-2.4l-2.9-7.4h-18l-2.8,7.1c-0.3,0.8-0.6,1.6-0.8,2.2c-0.2,0.6-0.3,1.2-0.3,1.7c0,0.7,0.1,1.3,0.4,1.7
		c0.2,0.4,0.5,0.8,0.8,1c0.3,0.2,0.6,0.4,0.9,0.5c0.3,0.1,0.5,0.1,0.6,0.1h-11.4c0.1,0,0.3-0.1,0.7-0.2c0.4-0.2,0.8-0.5,1.3-1
		c0.5-0.5,1.1-1.3,1.8-2.4c0.7-1.1,1.4-2.5,2.2-4.4l16.6-40.5L448.2,41z M430.7,12L423,31.2h15.3L430.7,12z"/>
	<path class="st0" d="M513.5,43.3c-1.8,2.1-4,3.7-6.5,4.9c-2.6,1.2-5.5,1.9-8.9,1.9c-3.9,0-7.3-0.7-10.1-2c-2.9-1.3-5.3-3.1-7.2-5.3
		c-1.9-2.2-3.3-4.7-4.2-7.5c-0.9-2.8-1.4-5.7-1.4-8.7c0-3.1,0.5-6.2,1.5-9.2c1-3,2.6-5.8,4.7-8.2c2.1-2.4,4.7-4.3,7.7-5.8
		s6.7-2.2,10.8-2.2c2.5,0,4.9,0.3,7,0.9c2.1,0.6,4,1.3,5.5,2.1v10.1c-1.1-3.1-2.8-5.4-5.1-7c-2.3-1.6-5.2-2.4-8.8-2.4
		c-2.8,0-5.3,0.6-7.5,1.8c-2.1,1.2-3.9,2.7-5.4,4.6c-1.4,1.9-2.5,4-3.3,6.5c-0.7,2.4-1.1,4.9-1.1,7.4c0,2.6,0.4,5.2,1.1,7.6
		c0.7,2.5,1.9,4.7,3.4,6.6c1.5,2,3.4,3.5,5.6,4.7s4.9,1.8,7.8,1.8c2.6,0,5.2-0.7,7.7-2c2.5-1.3,4.7-3.1,6.6-5.3V43.3z"/>
	<path class="st0" d="M564.3,25.2c0,3.5-0.5,6.8-1.6,9.8c-1.1,3-2.7,5.7-4.7,7.9c-2,2.2-4.5,4-7.3,5.3s-6,1.9-9.5,1.9
		c-3.3,0-6.3-0.6-9-1.8c-2.7-1.2-5-2.9-6.9-5c-1.9-2.1-3.4-4.6-4.4-7.6c-1-2.9-1.6-6.1-1.6-9.6c0-3.5,0.6-6.8,1.7-9.9
		c1.1-3,2.7-5.7,4.8-7.9c2-2.2,4.5-4,7.3-5.2c2.8-1.3,6-1.9,9.5-1.9c3.3,0,6.3,0.6,9,1.8c2.7,1.2,5,2.9,6.9,5
		c1.9,2.1,3.4,4.7,4.4,7.6C563.8,18.6,564.3,21.8,564.3,25.2z M558.7,26.8c0-3.1-0.4-6-1.2-8.6c-0.8-2.6-2-4.9-3.5-6.9
		c-1.5-1.9-3.4-3.5-5.6-4.5c-2.2-1.1-4.6-1.6-7.3-1.6c-2.4,0-4.6,0.5-6.5,1.4c-2,0.9-3.7,2.2-5.1,3.9c-1.4,1.7-2.5,3.7-3.3,6
		c-0.8,2.3-1.2,4.9-1.2,7.8c0,3.2,0.4,6.2,1.3,8.9c0.8,2.7,2,5,3.6,7c1.5,2,3.4,3.5,5.6,4.6c2.2,1.1,4.6,1.6,7.2,1.6
		c2.4,0,4.6-0.5,6.5-1.4c2-0.9,3.7-2.3,5.1-4c1.4-1.7,2.5-3.8,3.3-6.2C558.3,32.4,558.7,29.7,558.7,26.8z"/>
	<path class="st0" d="M622.7,6c0-0.7-0.1-1.3-0.3-1.8c-0.2-0.5-0.5-0.8-0.8-1c-0.3-0.2-0.6-0.4-0.9-0.5c-0.3-0.1-0.5-0.2-0.6-0.2
		h11.7c-0.1,0-0.4,0.1-0.8,0.2c-0.4,0.2-0.9,0.5-1.5,1c-0.6,0.5-1.2,1.2-1.8,2.2c-0.7,1-1.3,2.3-1.9,4L611.4,51l-11.9-33.9L587.2,51
		L573,9.7c-0.6-1.6-1.2-2.9-1.8-3.8c-0.6-1-1.2-1.7-1.8-2.2c-0.6-0.5-1.1-0.9-1.5-1c-0.4-0.2-0.7-0.2-0.8-0.2h13.1
		c-0.1,0-0.2,0-0.4,0.1c-0.2,0.1-0.4,0.2-0.6,0.5s-0.4,0.5-0.6,0.9c-0.2,0.4-0.2,1-0.2,1.6c0,0.5,0.1,1.1,0.2,1.8
		c0.1,0.7,0.3,1.4,0.7,2.3l9.3,27.1l9.2-25.2l-0.6-2.1c-0.5-1.5-1-2.7-1.5-3.6c-0.6-0.9-1.1-1.6-1.6-2.1c-0.5-0.5-0.9-0.8-1.3-1
		c-0.4-0.2-0.7-0.3-0.8-0.3h12.2c-0.1,0-0.2,0-0.5,0.1c-0.2,0.1-0.4,0.3-0.6,0.5c-0.2,0.2-0.4,0.5-0.6,0.9c-0.2,0.4-0.3,0.9-0.3,1.6
		c0,1,0.3,2.3,0.9,4l9.5,27L622,9.3C622.5,8,622.7,6.8,622.7,6z"/>
	<path class="st0" d="M669.6,37c0,1.5-0.3,3-0.8,4.5c-0.6,1.4-1.4,2.7-2.5,3.9c-1.1,1.1-2.5,2-4.1,2.7c-1.7,0.7-3.6,1-5.8,1H637
		c0.1,0,0.4-0.1,0.7-0.2s0.7-0.4,1-0.9c0.4-0.5,0.7-1.1,0.9-2c0.3-0.9,0.4-2.1,0.4-3.6V9c0-1.4-0.2-2.6-0.5-3.5
		c-0.3-0.9-0.6-1.5-1-2c-0.4-0.4-0.7-0.7-1.1-0.9c-0.4-0.2-0.6-0.2-0.8-0.2h17.6c2.2,0,4.2,0.3,5.8,0.9c1.6,0.6,2.9,1.5,4,2.5
		c1,1,1.8,2.2,2.3,3.6c0.5,1.3,0.7,2.7,0.7,4.1c0,1.3-0.2,2.6-0.6,3.8c-0.4,1.2-1,2.4-1.8,3.4c-0.8,1-1.7,1.8-2.8,2.5
		c-1.1,0.7-2.2,1.1-3.5,1.4c1.7,0.2,3.3,0.7,4.6,1.4c1.4,0.7,2.5,1.7,3.5,2.8c1,1.1,1.7,2.4,2.2,3.8C669.4,34,669.6,35.5,669.6,37z
		 M661.3,14c0-1.3-0.2-2.4-0.7-3.4c-0.5-1-1.1-1.9-1.9-2.6c-0.8-0.7-1.7-1.2-2.8-1.6c-1-0.4-2.2-0.6-3.3-0.6h-6.8v17.4h7.3
		c2.4,0,4.3-0.8,5.9-2.4C660.5,19.2,661.3,16.9,661.3,14z M663.6,36.7c0-3-0.9-5.4-2.7-7.2c-1.8-1.8-4.2-2.8-7.3-2.8h-7.8v18.9h8.5
		c1.9,0,3.4-0.3,4.6-0.8c1.2-0.5,2.2-1.2,2.9-2.1c0.7-0.8,1.2-1.8,1.4-2.8C663.5,38.8,663.6,37.8,663.6,36.7z"/>
	<path class="st0" d="M723,25.2c0,3.5-0.5,6.8-1.6,9.8c-1.1,3-2.7,5.7-4.7,7.9c-2,2.2-4.5,4-7.3,5.3s-6,1.9-9.5,1.9
		c-3.3,0-6.3-0.6-9-1.8c-2.7-1.2-5-2.9-6.9-5c-1.9-2.1-3.4-4.6-4.4-7.6c-1-2.9-1.6-6.1-1.6-9.6c0-3.5,0.6-6.8,1.7-9.9
		c1.1-3,2.7-5.7,4.8-7.9c2-2.2,4.5-4,7.3-5.2c2.8-1.3,6-1.9,9.5-1.9c3.3,0,6.3,0.6,9,1.8c2.7,1.2,5,2.9,6.9,5
		c1.9,2.1,3.4,4.7,4.4,7.6C722.4,18.6,723,21.8,723,25.2z M717.4,26.8c0-3.1-0.4-6-1.2-8.6c-0.8-2.6-2-4.9-3.5-6.9
		c-1.5-1.9-3.4-3.5-5.6-4.5c-2.2-1.1-4.6-1.6-7.3-1.6c-2.4,0-4.6,0.5-6.5,1.4c-2,0.9-3.7,2.2-5.1,3.9c-1.4,1.7-2.5,3.7-3.3,6
		c-0.8,2.3-1.2,4.9-1.2,7.8c0,3.2,0.4,6.2,1.3,8.9c0.8,2.7,2,5,3.6,7c1.5,2,3.4,3.5,5.6,4.6c2.2,1.1,4.6,1.6,7.2,1.6
		c2.4,0,4.6-0.5,6.5-1.4c2-0.9,3.7-2.3,5.1-4c1.4-1.7,2.5-3.8,3.3-6.2C717,32.4,717.4,29.7,717.4,26.8z"/>
	<path class="st0" d="M760.9,4.7c0-0.9-0.2-1.5-0.7-1.8c-0.4-0.3-0.8-0.4-1-0.5h10.6c-0.1,0-0.3,0.1-0.7,0.2
		c-0.4,0.2-0.8,0.5-1.4,0.9c-0.6,0.5-1.2,1.2-2,2.1c-0.8,0.9-1.6,2.2-2.5,3.7l-11.7,20v13.1c0,1.4,0.1,2.5,0.4,3.4
		c0.3,0.9,0.6,1.5,0.9,2c0.3,0.4,0.7,0.7,1.1,0.9c0.4,0.2,0.6,0.2,0.8,0.2h-12.2c0.1,0,0.4-0.1,0.7-0.2c0.4-0.1,0.7-0.4,1.1-0.9
		c0.4-0.4,0.7-1.1,1-2c0.3-0.9,0.4-2,0.4-3.5v-13L734.1,9.3c-0.9-1.5-1.7-2.7-2.5-3.6c-0.7-0.9-1.4-1.6-2-2.1
		c-0.6-0.5-1-0.8-1.4-0.9c-0.4-0.2-0.6-0.2-0.7-0.2h12.9c-0.1,0-0.2,0-0.4,0.1c-0.2,0.1-0.3,0.2-0.6,0.3c-0.2,0.1-0.4,0.4-0.5,0.6
		c-0.1,0.3-0.2,0.7-0.2,1.1c0,0.5,0.2,1.1,0.5,1.9c0.3,0.7,0.8,1.6,1.4,2.8l9.2,15.9l8.8-15.1c0.8-1.4,1.4-2.4,1.7-3.3
		C760.7,5.9,760.9,5.3,760.9,4.7z"/>
	<path class="st0" d="M823.9,9c0-1.4-0.2-2.5-0.5-3.4c-0.3-0.9-0.7-1.5-1-2c-0.4-0.4-0.8-0.7-1.2-0.9c-0.4-0.2-0.7-0.3-0.9-0.3h11.5
		c-0.1,0-0.4,0.1-0.8,0.2c-0.4,0.1-0.8,0.4-1.2,0.9c-0.4,0.5-0.7,1.1-1,2c-0.3,0.9-0.5,2-0.5,3.5v24.1c0,5.6-1.3,9.8-4,12.6
		s-7.2,4.3-13.4,4.3c-6.2,0-10.7-1.4-13.3-4.2c-2.7-2.8-4-6.9-4-12.5V8.9c0-1.4-0.1-2.5-0.4-3.4s-0.6-1.5-1-2
		c-0.4-0.5-0.8-0.8-1.1-0.9c-0.4-0.1-0.6-0.2-0.7-0.2h12.2c-0.1,0-0.3,0.1-0.7,0.2c-0.3,0.1-0.7,0.4-1.1,0.8c-0.4,0.4-0.7,1-1,1.9
		c-0.3,0.8-0.5,2-0.5,3.4v24.5c0,4.5,1,7.8,3,9.9c2,2.1,5.2,3.1,9.6,3.1c2.4,0,4.4-0.3,5.9-0.9c1.6-0.6,2.8-1.5,3.7-2.7
		c0.9-1.1,1.6-2.5,1.9-4.1c0.4-1.6,0.6-3.3,0.6-5.2V9z"/>
	<path class="st0" d="M870.2,16c0,1.9-0.3,3.7-1,5.4c-0.7,1.7-1.7,3.2-3.1,4.5c-1.4,1.3-3.1,2.4-5.1,3.2c-2,0.8-4.3,1.2-7,1.2
		c-1.4,0-2.7-0.1-4.1-0.3c-1.4-0.2-2.4-0.4-3-0.6v13.3c0,1.4,0.1,2.5,0.4,3.4s0.6,1.5,1,1.9c0.4,0.4,0.7,0.7,1.1,0.9
		c0.4,0.2,0.7,0.2,0.8,0.2h-12c0.1,0,0.4-0.1,0.7-0.2s0.7-0.4,1.1-0.9c0.4-0.4,0.7-1.1,1-1.9c0.3-0.8,0.4-2,0.4-3.4V9
		c0-1.4-0.2-2.6-0.5-3.5c-0.3-0.9-0.7-1.5-1-2c-0.4-0.4-0.8-0.7-1.2-0.9c-0.4-0.2-0.6-0.2-0.8-0.2h17.3c2.5,0,4.6,0.4,6.5,1.1
		c1.9,0.7,3.4,1.8,4.7,3c1.2,1.3,2.2,2.7,2.8,4.3C869.9,12.6,870.2,14.2,870.2,16z M864.4,16.4c0-1.4-0.2-2.7-0.7-4
		c-0.5-1.3-1.1-2.4-2-3.3c-0.9-0.9-2-1.7-3.4-2.2C857,6.2,855.5,6,853.7,6h-6.8v19.9c0.7,0.2,1.6,0.4,2.9,0.6
		c1.3,0.1,2.7,0.2,4.1,0.2c1.7,0,3.2-0.3,4.5-0.8c1.3-0.5,2.4-1.3,3.3-2.2c0.9-0.9,1.6-2,2-3.2C864.2,19.2,864.4,17.8,864.4,16.4z"
		/>
	<path class="st0" d="M48.2,109.2c0,3.5-0.5,6.8-1.6,9.8c-1.1,3-2.7,5.7-4.7,7.9c-2,2.2-4.5,4-7.3,5.3c-2.8,1.3-6,1.9-9.5,1.9
		c-3.3,0-6.3-0.6-9-1.8c-2.7-1.2-5-2.9-6.9-5c-1.9-2.1-3.4-4.6-4.4-7.6c-1-2.9-1.6-6.1-1.6-9.6c0-3.5,0.6-6.8,1.7-9.9
		c1.1-3,2.7-5.7,4.8-7.9c2-2.2,4.5-4,7.3-5.2c2.8-1.3,6-1.9,9.4-1.9c3.3,0,6.3,0.6,9,1.8c2.7,1.2,5,2.9,6.9,5
		c1.9,2.1,3.4,4.7,4.4,7.6C47.7,102.6,48.2,105.8,48.2,109.2z M42.6,110.8c0-3.1-0.4-6-1.2-8.6c-0.8-2.6-2-4.9-3.5-6.9
		c-1.5-1.9-3.4-3.5-5.6-4.5c-2.2-1.1-4.6-1.6-7.3-1.6c-2.4,0-4.6,0.5-6.5,1.4c-2,0.9-3.7,2.2-5.1,3.9s-2.5,3.7-3.3,6
		c-0.8,2.3-1.2,4.9-1.2,7.8c0,3.2,0.4,6.2,1.3,8.9c0.8,2.7,2,5,3.6,7c1.5,2,3.4,3.5,5.6,4.6c2.2,1.1,4.6,1.6,7.2,1.6
		c2.4,0,4.6-0.5,6.5-1.4c2-0.9,3.7-2.3,5.1-4c1.4-1.7,2.5-3.8,3.3-6.2C42.3,116.4,42.6,113.7,42.6,110.8z"/>
	<path class="st0" d="M82,133.1l-9.8-16.4c-0.9-1.6-1.9-2.7-2.8-3.3c-0.9-0.5-2-0.8-3.3-0.8h-1.8v14c0,1.4,0.1,2.5,0.4,3.4
		c0.3,0.8,0.6,1.5,0.9,2c0.4,0.5,0.7,0.8,1.1,0.9c0.4,0.1,0.6,0.2,0.8,0.2h-12c0.1,0,0.4-0.1,0.7-0.2s0.7-0.4,1.1-0.9
		c0.4-0.4,0.7-1.1,1-1.9c0.3-0.8,0.4-2,0.4-3.4V93.1c0-1.4-0.2-2.6-0.5-3.5c-0.3-0.9-0.7-1.5-1-2c-0.4-0.5-0.8-0.8-1.2-0.9
		c-0.4-0.1-0.6-0.2-0.8-0.3h16.4c2.3,0,4.4,0.3,6.2,1c1.9,0.7,3.5,1.6,4.8,2.7c1.3,1.2,2.4,2.5,3.1,4.1c0.7,1.5,1.1,3.2,1.1,5
		c0,1.4-0.2,2.8-0.7,4.3c-0.5,1.4-1.2,2.8-2.3,4c-1,1.2-2.3,2.2-4,3c-1.6,0.8-3.5,1.3-5.8,1.5c0.6,0.2,1.2,0.7,1.9,1.4
		c0.7,0.7,1.2,1.5,1.8,2.3l8.1,13.3c0.9,1.5,1.9,2.5,2.9,3c1,0.5,1.9,0.8,2.7,1H82z M81.2,99.6c0-1.2-0.2-2.4-0.7-3.6
		c-0.4-1.2-1.1-2.2-2-3.1c-0.9-0.9-2-1.6-3.3-2.2c-1.3-0.6-2.9-0.8-4.6-0.8h-6.4v19.5h6.4c2,0,3.6-0.3,4.9-0.8
		c1.3-0.5,2.4-1.2,3.3-2.1c0.8-0.9,1.4-1.9,1.8-3.1C81,102.2,81.2,100.9,81.2,99.6z"/>
	<path class="st0" d="M115.7,92.8c0-1.4-0.1-2.4-0.4-3.3c-0.3-0.8-0.6-1.4-1-1.9c-0.4-0.4-0.7-0.7-1.1-0.9c-0.4-0.1-0.6-0.2-0.8-0.3
		h12.1c-0.1,0-0.3,0.1-0.7,0.2c-0.4,0.1-0.7,0.4-1.1,0.8c-0.4,0.4-0.7,1-1,1.9c-0.3,0.8-0.4,2-0.4,3.4v36.4c0,2.6-0.4,4.8-1.3,6.7
		c-0.8,1.8-1.9,3.3-3.1,4.5c-1.2,1.2-2.5,2-3.9,2.6c-1.4,0.5-2.7,0.8-3.8,0.8c2-1.1,3.5-2.7,4.7-5c1.1-2.3,1.7-5.4,1.7-9.6V92.8z"/>
	<path class="st0" d="M164.9,93c0-1.4-0.2-2.5-0.5-3.4c-0.3-0.9-0.7-1.5-1.1-2c-0.4-0.4-0.8-0.7-1.2-0.9c-0.4-0.2-0.7-0.3-0.9-0.3
		h11.6c-0.1,0-0.4,0.1-0.8,0.2c-0.4,0.1-0.8,0.4-1.2,0.9c-0.4,0.5-0.7,1.1-1,2c-0.3,0.9-0.5,2-0.5,3.5v24.1c0,5.6-1.3,9.8-4,12.6
		c-2.7,2.9-7.2,4.3-13.4,4.3c-6.2,0-10.7-1.4-13.3-4.2c-2.7-2.8-4-6.9-4-12.5V92.9c0-1.4-0.1-2.5-0.4-3.4c-0.3-0.8-0.6-1.5-1-2
		c-0.4-0.5-0.8-0.8-1.1-0.9c-0.4-0.1-0.6-0.2-0.7-0.2h12.2c-0.1,0-0.3,0.1-0.7,0.2c-0.4,0.1-0.7,0.4-1.1,0.8c-0.4,0.4-0.7,1-1,1.9
		c-0.3,0.8-0.5,2-0.5,3.4v24.5c0,4.5,1,7.8,3,9.9c2,2.1,5.2,3.1,9.6,3.1c2.4,0,4.4-0.3,5.9-0.9c1.6-0.6,2.8-1.5,3.7-2.7
		c0.9-1.1,1.6-2.5,1.9-4.1c0.4-1.6,0.6-3.3,0.6-5.2V93z"/>
	<path class="st0" d="M205.9,121.5c0,1.4-0.2,2.7-0.6,4s-1.1,2.5-2,3.6c-1.3,1.6-3,2.8-5.1,3.7c-2.1,0.9-4.7,1.3-7.7,1.3
		c-2.3,0-4.5-0.3-6.6-1c-2.1-0.7-3.9-1.6-5.5-2.6v-10.6c1.2,3.9,2.9,6.6,5.2,8.3c2.2,1.6,4.8,2.5,7.7,2.5c1.2,0,2.3-0.2,3.4-0.5
		c1.1-0.3,2.1-0.8,3-1.4c0.9-0.6,1.6-1.4,2.1-2.4c0.5-1,0.8-2.1,0.8-3.5c0-2.1-0.5-3.8-1.6-5.1c-1.1-1.4-2.4-2.6-4-3.6
		c-1.6-1.1-3.3-2.1-5.2-3c-1.9-0.9-3.6-2-5.2-3.2c-1.6-1.2-2.9-2.6-4-4.2c-1.1-1.6-1.6-3.6-1.6-6c0-1.9,0.4-3.6,1.2-5.1
		c0.8-1.5,1.8-2.8,3.1-3.9c1.3-1.1,2.8-1.9,4.6-2.5c1.7-0.6,3.5-0.8,5.4-0.8c2,0,3.9,0.3,5.7,0.9c1.8,0.6,3.3,1.4,4.4,2.2v9.2
		c-0.9-3.2-2.4-5.4-4.3-6.8c-2-1.4-4.2-2.1-6.6-2.1c-1.4,0-2.6,0.2-3.6,0.6c-1.1,0.4-1.9,1-2.7,1.7c-0.7,0.7-1.3,1.5-1.7,2.4
		c-0.4,0.9-0.6,1.9-0.6,2.8c0,1.9,0.5,3.4,1.6,4.7c1.1,1.2,2.4,2.4,4.1,3.4c1.6,1,3.4,2,5.3,2.9c1.9,1,3.7,2.1,5.3,3.3
		c1.6,1.2,3,2.7,4.1,4.4C205.3,116.8,205.9,119,205.9,121.5z"/>
	<path class="st0" d="M246.4,94.3c-0.2-0.8-0.5-1.5-0.9-2s-0.8-1-1.4-1.4c-0.6-0.4-1.4-0.6-2.3-0.7c-0.9-0.1-2.1-0.2-3.5-0.2h-8
		v36.6c0,1.4,0.1,2.5,0.4,3.4c0.3,0.9,0.6,1.5,0.9,2c0.4,0.4,0.7,0.7,1.1,0.9c0.4,0.2,0.6,0.2,0.8,0.2h-12.1c0.1,0,0.4-0.1,0.7-0.2
		c0.4-0.1,0.7-0.4,1.1-0.9c0.4-0.4,0.7-1.1,1-1.9c0.3-0.8,0.4-2,0.4-3.5V90h-8.1c-1.3,0-2.4,0.1-3.3,0.2c-0.9,0.1-1.7,0.4-2.3,0.7
		c-0.6,0.3-1.1,0.7-1.5,1.3c-0.4,0.6-0.7,1.3-0.9,2.1l0.6-7.8h37L246.4,94.3z"/>
	<path class="st0" d="M297.4,133.1H268c0.1,0,0.4-0.1,0.7-0.2c0.3-0.2,0.7-0.5,1-0.9c0.4-0.5,0.7-1.2,0.9-2.1
		c0.3-0.9,0.4-2.2,0.4-3.7V93c0-1.4-0.1-2.6-0.4-3.4c-0.3-0.8-0.6-1.5-1-2c-0.4-0.5-0.7-0.8-1.1-0.9c-0.4-0.1-0.6-0.2-0.7-0.2h12
		c-0.1,0-0.4,0.1-0.7,0.2c-0.4,0.1-0.7,0.4-1.1,0.9c-0.4,0.5-0.7,1.1-1,2c-0.3,0.8-0.4,2-0.4,3.4v36.6h11.4c1.5,0,2.9-0.1,4-0.2
		c1.1-0.1,2.1-0.4,2.9-0.7c0.8-0.4,1.5-0.9,2.1-1.6c0.6-0.7,1.1-1.7,1.5-2.9L297.4,133.1z"/>
	<path class="st0" d="M341.8,125c0.7,1.8,1.4,3.2,2.1,4.2c0.7,1,1.3,1.9,1.9,2.4c0.6,0.6,1.1,0.9,1.5,1.1c0.4,0.2,0.7,0.3,0.8,0.3
		h-12.8c0.1,0,0.3,0,0.5-0.1c0.2-0.1,0.5-0.2,0.7-0.4c0.3-0.2,0.5-0.5,0.7-0.8c0.2-0.4,0.3-0.9,0.3-1.5c0-0.5-0.1-1.1-0.3-1.8
		c-0.2-0.7-0.5-1.4-0.9-2.4l-2.9-7.4h-18l-2.8,7.1c-0.3,0.8-0.6,1.6-0.8,2.2c-0.2,0.6-0.3,1.2-0.3,1.7c0,0.7,0.1,1.3,0.4,1.7
		c0.2,0.4,0.5,0.8,0.8,1c0.3,0.2,0.6,0.4,0.9,0.5c0.3,0.1,0.5,0.1,0.6,0.1h-11.4c0.1,0,0.3-0.1,0.7-0.2c0.4-0.2,0.8-0.5,1.3-1
		c0.5-0.5,1.1-1.3,1.8-2.4c0.7-1.1,1.4-2.5,2.2-4.4l16.6-40.5L341.8,125z M324.3,96l-7.6,19.2H332L324.3,96z"/>
	<path class="st0" d="M375.7,88.7c0-0.9-0.2-1.5-0.7-1.8c-0.4-0.3-0.8-0.4-1-0.5h10.6c-0.1,0-0.3,0.1-0.7,0.2
		c-0.4,0.2-0.8,0.5-1.4,0.9c-0.6,0.5-1.2,1.2-2,2.1c-0.8,0.9-1.6,2.2-2.5,3.7l-11.7,20v13.1c0,1.4,0.1,2.5,0.4,3.4
		c0.3,0.9,0.6,1.5,0.9,2c0.4,0.4,0.7,0.7,1.1,0.9c0.4,0.2,0.6,0.2,0.8,0.2h-12.2c0.1,0,0.4-0.1,0.7-0.2s0.7-0.4,1.1-0.9
		c0.4-0.4,0.7-1.1,1-2c0.3-0.9,0.4-2,0.4-3.5v-13l-11.8-20.2c-0.9-1.5-1.7-2.7-2.5-3.6c-0.7-0.9-1.4-1.6-2-2.1
		c-0.6-0.5-1-0.8-1.4-0.9c-0.4-0.2-0.6-0.2-0.7-0.2h12.9c-0.1,0-0.2,0-0.4,0.1c-0.2,0.1-0.4,0.2-0.6,0.3c-0.2,0.1-0.4,0.4-0.5,0.6
		c-0.1,0.3-0.2,0.7-0.2,1.1c0,0.5,0.2,1.1,0.5,1.9c0.3,0.7,0.8,1.6,1.4,2.8l9.2,15.9l8.8-15.1c0.8-1.4,1.4-2.4,1.7-3.3
		C375.5,89.9,375.7,89.3,375.7,88.7z"/>
	<path class="st0" d="M440.6,94.3c-0.2-0.8-0.5-1.5-0.9-2s-0.8-1-1.4-1.4c-0.6-0.4-1.4-0.6-2.3-0.7c-0.9-0.1-2.1-0.2-3.5-0.2h-8
		v36.6c0,1.4,0.1,2.5,0.4,3.4c0.3,0.9,0.6,1.5,0.9,2c0.4,0.4,0.7,0.7,1.1,0.9c0.4,0.2,0.6,0.2,0.8,0.2h-12.1c0.1,0,0.4-0.1,0.7-0.2
		c0.4-0.1,0.7-0.4,1.1-0.9c0.4-0.4,0.7-1.1,1-1.9c0.3-0.8,0.4-2,0.4-3.5V90h-8.1c-1.3,0-2.4,0.1-3.3,0.2c-0.9,0.1-1.7,0.4-2.3,0.7
		c-0.6,0.3-1.1,0.7-1.5,1.3c-0.4,0.6-0.7,1.3-0.9,2.1l0.6-7.8h37L440.6,94.3z"/>
	<path class="st0" d="M486.4,126.6c0,1.4,0.1,2.5,0.4,3.4c0.3,0.9,0.6,1.5,0.9,2c0.3,0.4,0.7,0.7,1.1,0.9c0.3,0.2,0.6,0.2,0.7,0.2
		h-12c0.1,0,0.4-0.1,0.7-0.2s0.7-0.4,1.1-0.9c0.3-0.4,0.7-1.1,0.9-2c0.3-0.9,0.4-2,0.4-3.5V111h-25.5v15.5c0,1.4,0.1,2.5,0.4,3.4
		c0.3,0.9,0.6,1.5,0.9,2c0.3,0.4,0.7,0.7,1.1,0.9c0.4,0.2,0.6,0.2,0.8,0.2h-12.1c0.1,0,0.4-0.1,0.7-0.2c0.3-0.1,0.7-0.4,1.1-0.9
		c0.4-0.4,0.7-1.1,1-2c0.3-0.9,0.4-2,0.4-3.5V93c0-1.4-0.1-2.6-0.4-3.4c-0.3-0.8-0.6-1.5-1-2c-0.4-0.5-0.8-0.8-1.1-0.9
		c-0.4-0.1-0.6-0.2-0.7-0.2h12.2c-0.1,0-0.3,0.1-0.7,0.2c-0.4,0.1-0.7,0.4-1.1,0.9c-0.4,0.4-0.7,1.1-1,2c-0.3,0.9-0.5,2-0.5,3.5
		v14.6h25.5V93c0-1.4-0.1-2.6-0.4-3.4c-0.3-0.8-0.6-1.5-1-2c-0.4-0.5-0.7-0.8-1.1-0.9c-0.3-0.1-0.6-0.2-0.7-0.2h12.1
		c-0.1,0-0.4,0.1-0.7,0.2c-0.3,0.1-0.7,0.4-1.1,0.9c-0.3,0.5-0.7,1.1-0.9,2c-0.3,0.8-0.4,2-0.4,3.4V126.6z"/>
	<path class="st0" d="M526.1,133.1h-29.1c0.1,0,0.4-0.1,0.7-0.2c0.4-0.1,0.7-0.4,1.1-0.9c0.4-0.5,0.7-1.1,1-2c0.3-0.9,0.4-2,0.4-3.5
		V93c0-1.4-0.2-2.6-0.5-3.5c-0.3-0.9-0.7-1.5-1.1-2c-0.4-0.4-0.8-0.7-1.2-0.9c-0.4-0.2-0.7-0.2-0.8-0.2h28V94c0-0.2-0.2-0.5-0.3-1
		c-0.2-0.5-0.5-0.9-1-1.4c-0.5-0.5-1.2-0.9-2.2-1.2c-1-0.4-2.3-0.5-3.9-0.5h-11.4v17.6h9.5c1.1,0,2-0.1,2.7-0.4
		c0.7-0.3,1.2-0.5,1.6-0.9c0.4-0.3,0.6-0.6,0.7-0.9c0.1-0.3,0.2-0.5,0.2-0.7v9.2c0-0.1-0.1-0.3-0.2-0.6c-0.1-0.3-0.4-0.6-0.7-1
		c-0.4-0.3-0.9-0.7-1.6-0.9c-0.7-0.3-1.6-0.4-2.7-0.4h-9.6v18.6h11.8c1.4,0,2.6-0.1,3.6-0.2c1-0.1,1.9-0.4,2.6-0.8
		c0.7-0.4,1.4-0.9,1.9-1.5c0.5-0.6,1-1.4,1.5-2.4L526.1,133.1z"/>
	<path class="st0" d="M559.9,133.1l-9.8-16.4c-0.9-1.6-1.9-2.7-2.8-3.3c-0.9-0.5-2-0.8-3.3-0.8h-1.8v14c0,1.4,0.1,2.5,0.4,3.4
		s0.6,1.5,0.9,2c0.3,0.5,0.7,0.8,1.1,0.9c0.4,0.1,0.6,0.2,0.8,0.2h-12c0.1,0,0.4-0.1,0.7-0.2c0.4-0.1,0.7-0.4,1.1-0.9
		c0.4-0.4,0.7-1.1,1-1.9c0.3-0.8,0.4-2,0.4-3.4V93.1c0-1.4-0.2-2.6-0.5-3.5c-0.3-0.9-0.7-1.5-1-2c-0.4-0.5-0.8-0.8-1.2-0.9
		c-0.4-0.1-0.6-0.2-0.8-0.3h16.4c2.3,0,4.4,0.3,6.2,1c1.9,0.7,3.5,1.6,4.8,2.7c1.3,1.2,2.4,2.5,3.1,4.1s1.1,3.2,1.1,5
		c0,1.4-0.2,2.8-0.7,4.3c-0.5,1.4-1.2,2.8-2.3,4c-1,1.2-2.3,2.2-4,3c-1.6,0.8-3.5,1.3-5.8,1.5c0.6,0.2,1.2,0.7,1.9,1.4
		c0.7,0.7,1.2,1.5,1.8,2.3l8.1,13.3c0.9,1.5,1.9,2.5,2.9,3c1,0.5,1.9,0.8,2.7,1H559.9z M559.2,99.6c0-1.2-0.2-2.4-0.7-3.6
		c-0.4-1.2-1.1-2.2-2-3.1c-0.9-0.9-2-1.6-3.3-2.2s-2.9-0.8-4.6-0.8h-6.4v19.5h6.4c2,0,3.6-0.3,4.9-0.8c1.3-0.5,2.4-1.2,3.3-2.1
		c0.8-0.9,1.4-1.9,1.8-3.1C559,102.2,559.2,100.9,559.2,99.6z"/>
	<path class="st0" d="M604,133.1h-29.1c0.1,0,0.4-0.1,0.7-0.2c0.4-0.1,0.7-0.4,1.1-0.9c0.4-0.5,0.7-1.1,1-2c0.3-0.9,0.4-2,0.4-3.5
		V93c0-1.4-0.2-2.6-0.5-3.5c-0.3-0.9-0.7-1.5-1.1-2c-0.4-0.4-0.8-0.7-1.2-0.9c-0.4-0.2-0.7-0.2-0.8-0.2h28V94c0-0.2-0.2-0.5-0.3-1
		c-0.2-0.5-0.5-0.9-1-1.4c-0.5-0.5-1.2-0.9-2.2-1.2c-1-0.4-2.3-0.5-3.9-0.5h-11.4v17.6h9.5c1.1,0,2-0.1,2.7-0.4
		c0.7-0.3,1.2-0.5,1.6-0.9c0.4-0.3,0.6-0.6,0.7-0.9c0.1-0.3,0.2-0.5,0.2-0.7v9.2c0-0.1-0.1-0.3-0.2-0.6c-0.1-0.3-0.4-0.6-0.7-1
		c-0.4-0.3-0.9-0.7-1.6-0.9c-0.7-0.3-1.6-0.4-2.7-0.4h-9.6v18.6h11.8c1.4,0,2.6-0.1,3.6-0.2c1-0.1,1.9-0.4,2.6-0.8
		c0.7-0.4,1.4-0.9,1.9-1.5c0.5-0.6,1-1.4,1.5-2.4L604,133.1z"/>
	<path class="st0" d="M663.9,125c0.7,1.8,1.4,3.2,2.1,4.2c0.7,1,1.3,1.9,1.9,2.4c0.6,0.6,1.1,0.9,1.5,1.1c0.4,0.2,0.7,0.3,0.8,0.3
		h-12.8c0.1,0,0.3,0,0.5-0.1s0.5-0.2,0.7-0.4c0.3-0.2,0.5-0.5,0.7-0.8c0.2-0.4,0.3-0.9,0.3-1.5c0-0.5-0.1-1.1-0.3-1.8
		c-0.2-0.7-0.5-1.4-0.9-2.4l-2.9-7.4h-18l-2.8,7.1c-0.3,0.8-0.6,1.6-0.8,2.2c-0.2,0.6-0.3,1.2-0.3,1.7c0,0.7,0.1,1.3,0.3,1.7
		c0.2,0.4,0.5,0.8,0.8,1c0.3,0.2,0.6,0.4,0.9,0.5c0.3,0.1,0.5,0.1,0.6,0.1h-11.4c0.1,0,0.3-0.1,0.7-0.2c0.3-0.2,0.8-0.5,1.3-1
		c0.5-0.5,1.1-1.3,1.8-2.4c0.7-1.1,1.4-2.5,2.2-4.4l16.6-40.5L663.9,125z M646.4,96l-7.6,19.2H654L646.4,96z"/>
	<path class="st0" d="M710.6,93c0-1.4-0.2-2.5-0.5-3.4c-0.3-0.8-0.7-1.5-1.1-1.9c-0.4-0.4-0.8-0.7-1.2-0.9c-0.4-0.2-0.7-0.3-0.8-0.3
		h11.1c-0.1,0-0.4,0.1-0.8,0.2c-0.4,0.1-0.8,0.4-1.2,0.9c-0.4,0.5-0.8,1.1-1.1,2c-0.3,0.8-0.5,2-0.5,3.4v42.1l-31.8-39.3v30.8
		c0,1.4,0.2,2.5,0.5,3.4c0.3,0.8,0.7,1.5,1.1,1.9c0.4,0.4,0.8,0.7,1.3,0.9c0.4,0.2,0.7,0.2,0.8,0.2h-11.3c0.1,0,0.4-0.1,0.8-0.2
		c0.4-0.1,0.8-0.4,1.2-0.9c0.4-0.4,0.8-1.1,1.1-1.9c0.3-0.8,0.5-2,0.5-3.4v-33c0-1.2-0.2-2.2-0.6-3c-0.4-0.8-0.9-1.5-1.4-2.1
		c-0.6-0.6-1.1-1-1.8-1.3c-0.6-0.3-1.1-0.6-1.5-0.8h9.1l28.1,34.8V93z"/>
	<path class="st0" d="M766.7,109.4c0,3.2-0.5,6.3-1.5,9.1c-1,2.9-2.4,5.4-4.4,7.6s-4.4,3.9-7.4,5.1c-3,1.3-6.5,1.9-10.5,1.9h-18.2
		c0.1,0,0.4-0.1,0.7-0.2c0.3-0.2,0.7-0.5,1.1-1c0.4-0.5,0.7-1.2,1-2.1c0.3-0.9,0.4-2.2,0.4-3.7V93.1c0-1.4-0.2-2.6-0.5-3.5
		c-0.3-0.9-0.6-1.5-1-2c-0.4-0.4-0.7-0.7-1.1-0.9c-0.4-0.2-0.7-0.3-0.8-0.3h18.5c3.7,0,7,0.6,9.9,1.7c2.9,1.1,5.4,2.7,7.4,4.7
		c2,2,3.5,4.4,4.6,7.2C766.2,102.9,766.7,106,766.7,109.4z M760.6,109.8c0-6.3-1.6-11.2-4.7-14.7c-3.1-3.5-7.8-5.2-14.1-5.2h-8.1
		v39.7h9.9c3,0,5.6-0.6,7.8-1.8c2.1-1.2,3.9-2.7,5.2-4.6c1.4-1.9,2.3-4,3-6.4C760.2,114.5,760.6,112.2,760.6,109.8z"/>
	<path class="st0" d="M831.7,109.4c0,3.2-0.5,6.3-1.5,9.1c-1,2.9-2.4,5.4-4.4,7.6s-4.4,3.9-7.4,5.1c-3,1.3-6.5,1.9-10.5,1.9h-18.2
		c0.1,0,0.4-0.1,0.7-0.2c0.3-0.2,0.7-0.5,1.1-1c0.4-0.5,0.7-1.2,1-2.1c0.3-0.9,0.4-2.2,0.4-3.7V93.1c0-1.4-0.2-2.6-0.5-3.5
		c-0.3-0.9-0.6-1.5-1-2c-0.4-0.4-0.7-0.7-1.1-0.9c-0.4-0.2-0.7-0.3-0.8-0.3h18.5c3.7,0,7,0.6,9.9,1.7c2.9,1.1,5.4,2.7,7.4,4.7
		c2,2,3.5,4.4,4.6,7.2C831.1,102.9,831.7,106,831.7,109.4z M825.5,109.8c0-6.3-1.6-11.2-4.7-14.7c-3.1-3.5-7.8-5.2-14.1-5.2h-8.1
		v39.7h9.9c3,0,5.6-0.6,7.8-1.8c2.1-1.2,3.9-2.7,5.2-4.6c1.4-1.9,2.3-4,3-6.4C825.2,114.5,825.5,112.2,825.5,109.8z"/>
	<path class="st0" d="M847.6,126.8c0,1.4,0.1,2.4,0.4,3.3c0.3,0.8,0.6,1.4,0.9,1.9c0.3,0.4,0.7,0.7,1.1,0.9c0.4,0.2,0.6,0.2,0.8,0.2
		h-12c0.1,0,0.4-0.1,0.7-0.2c0.3-0.1,0.7-0.4,1-0.9c0.3-0.4,0.7-1.1,0.9-1.9c0.3-0.8,0.4-1.9,0.4-3.3v-34c0-1.4-0.1-2.5-0.4-3.3
		c-0.3-0.8-0.6-1.4-1-1.9c-0.4-0.4-0.8-0.7-1.1-0.9c-0.3-0.1-0.6-0.2-0.7-0.3h12.1c-0.1,0-0.3,0.1-0.7,0.2c-0.3,0.1-0.7,0.4-1.1,0.9
		c-0.4,0.4-0.7,1.1-1,1.9c-0.3,0.8-0.5,2-0.5,3.4V126.8z"/>
	<path class="st0" d="M887.3,133.1h-29.1c0.1,0,0.4-0.1,0.7-0.2c0.4-0.1,0.7-0.4,1.1-0.9c0.4-0.5,0.7-1.1,1-2c0.3-0.9,0.4-2,0.4-3.5
		V93c0-1.4-0.2-2.6-0.5-3.5c-0.3-0.9-0.7-1.5-1.1-2c-0.4-0.4-0.8-0.7-1.2-0.9c-0.4-0.2-0.7-0.2-0.8-0.2h28V94c0-0.2-0.2-0.5-0.3-1
		c-0.2-0.5-0.5-0.9-1-1.4c-0.5-0.5-1.2-0.9-2.2-1.2c-1-0.4-2.3-0.5-3.9-0.5h-11.4v17.6h9.5c1.1,0,2-0.1,2.7-0.4
		c0.7-0.3,1.2-0.5,1.6-0.9c0.4-0.3,0.6-0.6,0.7-0.9c0.1-0.3,0.2-0.5,0.2-0.7v9.2c0-0.1-0.1-0.3-0.2-0.6c-0.1-0.3-0.4-0.6-0.7-1
		c-0.4-0.3-0.9-0.7-1.6-0.9c-0.7-0.3-1.6-0.4-2.7-0.4h-9.6v18.6h11.8c1.4,0,2.6-0.1,3.6-0.2c1-0.1,1.9-0.4,2.6-0.8
		c0.7-0.4,1.4-0.9,1.9-1.5c0.5-0.6,1-1.4,1.5-2.4L887.3,133.1z"/>
	<path class="st0" d="M920.4,95.3c0,1.7-0.3,3.2-1,4.5c-0.7,1.4-1.6,2.6-2.6,3.8c-1,1.2-2.2,2.3-3.4,3.4c-1.2,1.1-2.4,2.1-3.4,3.2
		c-1,1.1-1.9,2.2-2.6,3.3c-0.7,1.1-1,2.4-1,3.7c0,1.5,0.6,2.8,1.9,3.6c-0.2,0.2-0.5,0.4-0.7,0.4c-0.3,0-0.5,0.1-0.7,0.1
		c-1.2,0-2.3-0.5-3.3-1.5c-1-1-1.5-2.2-1.5-3.7c0-1.4,0.3-2.8,0.9-4c0.6-1.2,1.4-2.3,2.3-3.4c0.9-1,1.9-2.1,3-3c1.1-1,2.1-2,3-3
		c0.9-1,1.7-2.1,2.3-3.3c0.6-1.1,0.9-2.4,0.9-3.7c0-2.2-0.7-3.9-2.1-5.1c-1.4-1.2-3.1-1.8-5-1.8c-1,0-2,0.2-3,0.5
		c-1,0.3-2,0.8-2.9,1.4s-1.8,1.4-2.5,2.3c-0.8,0.9-1.4,2.1-1.9,3.4v-8.2c1.4-0.9,3.1-1.6,5.1-2.2s4.1-0.8,6.2-0.8
		c1.6,0,3.2,0.2,4.6,0.6c1.4,0.4,2.7,1,3.8,1.8c1.1,0.8,1.9,1.8,2.6,3.1C920.1,92.1,920.4,93.6,920.4,95.3z M909.3,130.3
		c0,1-0.3,1.8-1,2.6c-0.7,0.7-1.6,1.1-2.8,1.1c-1.2,0-2.1-0.4-2.8-1.1c-0.7-0.7-1-1.6-1-2.6s0.3-1.8,1-2.6c0.7-0.7,1.6-1.1,2.8-1.1
		c1.2,0,2.1,0.4,2.8,1.1C909,128.4,909.3,129.3,909.3,130.3z"/>
</g>
</svg>
