<svg id="Layer_1" data-name="Layer 1" xmlns="http://www.w3.org/2000/svg" viewBox="0 0 1064 479.48"><defs><style>.cls-1{fill:#fff;}</style></defs><title>title_aw16</title><path class="cls-1" d="M68.13,380.47H11c1.28,0.28,7.12,1.84,7.12,13.41v68.23c0,12-5.57,13.08-6.68,13.24h24.6c-1.11-.17-6.57-1.56-6.57-13.08V430.39h20.2c10,0,10.52,6,10.52,6V417.54c-0.28,1-1.56,5.84-10.69,5.84h-20v-35.9H52c12.69,0,15.25,4.28,16.08,8.13V380.47ZM260,459l-33.45-82.48-33.78,82.31c-6.29,15.08-11.52,16.36-12.24,16.53H203.7c-1-.17-5.4-1-5.4-6.84,0-2,.83-4.56,2.11-8L206.09,446h36.62l5.84,15.08c1.45,3.84,2.45,6.4,2.45,8.4,0,5.12-3.73,5.84-4.4,5.84h26c-1.11-.17-7-2-12.69-16.36m-20.09-20.09H208.82l15.53-39Zm224.4,18.2c-3.73,10-8.85,11.13-21.2,11.13H419.86V393.72c0-11.69,5.4-13.08,6.57-13.25H401.94c1.11,0.17,6.57,1.56,6.57,13.25v67.4c0,12.69-5.29,14.08-6.29,14.25h59.66Zm191.34,0c-3.73,10-8.85,11.13-21.2,11.13H611.2V393.72c0-11.69,5.4-13.08,6.57-13.25H593.28c1.11,0.17,6.57,1.56,6.57,13.25v67.4c0,12.69-5.29,14.08-6.29,14.25h59.66Zm191.11,1.17c-4,7.85-8.12,10-19.65,10H803.15v-37.9h19.54c9.24,0,10.41,5.12,10.52,5.84V417.54c-0.28,1-1.56,5.84-10.69,5.84H803.15v-35.9h23.21c13.25,0,14.69,6.85,15,8.4V380.53h-57c1.28,0.17,7.29,1.56,7.29,13.41v68c0,12.13-5.57,13.41-6.68,13.52h59.22Zm200.91-64.56v57.55l-57.1-70.79H972c3.4,1.45,10.85,5.12,10.85,14.69v67.06c0,11.8-6.12,13-7.12,13.08h22.93c-1.28-.17-7.57-1.73-7.57-13.08V399.56l64.67,79.92V393.72c0-11.69,6.12-13.08,7.12-13.25H1040.4c1.23,0.33,7.24,1.89,7.24,13.25M71,259c0,2.28-1.45,5.4-4.56,10.85L48.61,300.67,29.8,268.34c-2.73-4.56-3.84-7.4-3.84-9.4,0-3.73,2.84-4.29,3.4-4.4H3.2c0.83,0.17,6,1.72,13.24,14l23.93,41.18v26.49c0,11.8-5.4,13.08-6.57,13.25H58.57c-1.28-.17-6.57-1.73-6.57-13.25V309.52l23.76-40.74c7.4-12.69,12.52-14.08,13.41-14.25H67.59c0.84,0.06,3.4.95,3.4,4.51m169.74,41.74c0-27.94-17.64-48.7-44.47-48.7-27.94,0-47.31,21.93-47.31,50.7,0,27.94,17.81,48.7,44.75,48.7,28.38,0,47-22.37,47-50.7M229.32,304c0,23.49-13.41,39.57-32.78,39.57-21.65,0-35.9-18.81-35.9-45,0-23.21,13.41-38.74,32.78-38.74,22.09,0.06,35.9,18.87,35.9,44.19m150.82-36.18v49.7c0,15.36-5.12,26.21-24.65,26.21-17.81,0-25.49-8.24-25.49-26.49V267.39c0-11.69,5.68-12.8,6.57-13H311.8c1.11,0.17,6.68,1.56,6.68,13.08v50c0,22.65,10.13,33.89,35.34,33.89,25.49,0,35.45-11.8,35.45-34.45V267.78c0-12,5.84-13.25,7.12-13.41H372.91c1.39,0.39,7.23,1.95,7.23,13.47m244.25,68.23V267.73c0-11.69,5.29-13.08,6.4-13.25H606.14c1.11,0.17,6.57,1.56,6.57,13.25v29.61H560.89V267.73c0-12,5.68-13.08,6.57-13.25H542.69c1.11,0.17,6.68,1.56,6.68,13.25v68.34c0,11.8-5.4,13.08-6.57,13.25h24.65c-1.28-.17-6.57-1.73-6.57-13.25V304.46h51.87v31.61c0,11.8-5.29,13.08-6.4,13.25h24.49c-1.34-.11-6.46-1.67-6.46-13.25M780.29,333l-33.45-82.48-33.78,82.31c-6.29,15.08-11.52,16.36-12.24,16.53H724c-1-.17-5.4-1-5.4-6.85,0-2,.84-4.56,2.11-8L726.41,320H763l5.84,15.08c1.45,3.84,2.45,6.4,2.45,8.4,0,5.12-3.73,5.84-4.4,5.84h26c-1.17-.11-7-2-12.69-16.36M760.2,312.86H729.14l15.53-39Zm153.17-52c0,1.72-.72,3.84-1.84,6.68L887.6,327.39l-24.1-59c-1.56-3.73-2.28-6.29-2.28-8.24,0-4.84,3.39-5.57,4.12-5.68H838.85c1.11,0.28,7,2,12.24,15L885,353.32l34.17-83.48c5.57-14,11.52-15.25,12.41-15.36H907.8a6.09,6.09,0,0,1,5.57,6.4M1064,332.23c-4,7.85-8.12,10-19.65,10h-23.93v-37.9H1040c9.24,0,10.41,5.12,10.52,5.84V291.49c-0.28,1-1.56,5.84-10.69,5.84h-19.37v-35.9h23.21c13.24,0,14.69,6.85,15,8.4V254.48h-57c1.28,0.17,7.29,1.56,7.29,13.41v67.9c0,12.13-5.57,13.41-6.68,13.52h59.27ZM113.2,135.56a21.48,21.48,0,0,1-1.45,6.85L92.44,198,73.18,143.13A25.06,25.06,0,0,1,71.35,135c0-5.57,3.39-6.4,4-6.57H50.42c1.28,0.28,6.85,2,10.69,14.25L62.39,147,43.58,198.23l-18.92-55.1a25.09,25.09,0,0,1-1.73-8.24c0-5.4,3.12-6.29,3.73-6.4H0c1.28,0.17,7.4,1.73,12,14.8l28.94,84,25-69,24.21,69,29.33-83.59c4.84-13.8,11.24-15.08,12.24-15.25H108c1.11,0.11,5.23,1.23,5.23,7.07m247.89,74.52v-68.4c0-11.69,5.29-13.08,6.4-13.24H342.84c1.11,0.17,6.57,1.56,6.57,13.24v29.61H297.54V141.68c0-12,5.68-13.08,6.57-13.24H279.34c1.11,0.17,6.68,1.56,6.68,13.24V210c0,11.8-5.4,13.08-6.57,13.25H304.1c-1.28-.17-6.57-1.73-6.57-13.25V178.42h51.87V210c0,11.8-5.29,13.08-6.4,13.25h24.49c-1.28-.11-6.4-1.67-6.4-13.19m240.2-3.84c-4,7.85-8.13,10-19.65,10H557.72V178.3h19.53c9.24,0,10.41,5.12,10.52,5.84V165.5c-0.28,1-1.56,5.84-10.69,5.84H557.72v-35.9h23.21c13.25,0,14.69,6.85,15,8.4V128.49h-57c1.28,0.17,7.29,1.56,7.29,13.41v68c0,12.13-5.57,13.41-6.68,13.52h59.22Zm238.1,17.09A16.6,16.6,0,0,1,828,215.2l-16.53-27c-2.11-3.56-5-6.57-7.4-7.57,18.37-1.45,25.93-14.53,25.93-26,0-14.69-12.24-26-30.89-26H765.77c1.11,0.28,7,1.73,7,13.52v68.18c0,11.8-5.4,13-6.57,13.08h24.38c-1.28-.17-6.57-1.56-6.57-13.08V181.7h3.56c5.12,0,8.4,1.73,12.24,8.24l19.92,33.34h19.7v0.06Zm-21.2-68.12c0,10.52-5.68,19.81-21.48,19.81h-13V135.45h13c14.08,0,21.48,10,21.48,19.76m245.81,51c-4,7.85-8.12,10-19.65,10h-23.93V178.3H1040c9.24,0,10.41,5.12,10.52,5.84V165.5c-0.28,1-1.56,5.84-10.69,5.84h-19.37v-35.9h23.21c13.24,0,14.69,6.85,15,8.4V128.49h-57c1.28,0.17,7.29,1.56,7.29,13.41v68c0,12.13-5.57,13.41-6.68,13.52h59.27ZM77.26,15.69V73.24L20.16,2.45H1.62C5,3.9,12.48,7.57,12.48,17.14V84.2c0,11.8-6.12,13-7.12,13.08H28.28c-1.28-.17-7.57-1.73-7.57-13.08V21.48L85.38,101.4V15.69C85.38,4,91.51,2.62,92.51,2.45H70c1.22,0.28,7.23,1.84,7.23,13.25M204.78,80.2c-4,7.85-8.12,10-19.65,10H161.2V52.26h19.54c9.24,0,10.41,5.12,10.52,5.84V39.46c-0.28,1-1.56,5.84-10.69,5.84H161.2V9.41h23.21c13.25,0,14.69,6.85,15,8.4V2.45h-57c1.28,0.17,7.29,1.56,7.29,13.41v68c0,12.13-5.56,13.41-6.68,13.52h59.27ZM322,8.85c0,1.73-.72,3.84-1.84,6.68L296.28,75.36l-24.1-59c-1.56-3.73-2.28-6.29-2.28-8.24,0-4.84,3.4-5.57,4.12-5.68H247.52c1.11,0.28,7,2,12.24,15l33.89,83.87,34.17-83.48c5.57-14,11.52-15.25,12.41-15.36H316.48A6.12,6.12,0,0,1,322,8.85M446.71,80.2c-4,7.85-8.13,10-19.65,10H403.13V52.26h19.53c9.24,0,10.41,5.12,10.52,5.84V39.46c-0.28,1-1.56,5.84-10.69,5.84H403.13V9.41h23.21c13.24,0,14.69,6.85,15,8.4V2.45h-57c1.28,0.17,7.29,1.56,7.29,13.41v68c0,12.13-5.57,13.41-6.68,13.52H444.2ZM569.82,97.28a16.59,16.59,0,0,1-11.41-8.12l-16.53-27c-2.11-3.56-5-6.57-7.4-7.57,18.37-1.45,25.93-14.52,25.93-26,0-14.69-12.24-26-30.89-26H496.19c1.11,0.28,7,1.72,7,13.52V84.2c0,11.8-5.4,13-6.57,13.08H521c-1.28-.17-6.57-1.56-6.57-13.08V55.71h3.56c5.12,0,8.4,1.73,12.24,8.24l19.92,33.34h19.7Zm-21.2-68.06c0,10.52-5.68,19.81-21.48,19.81h-13V9.41h13c14.08,0,21.48,10,21.48,19.81M720.39,73.8c0-31.33-44.75-28.61-44.75-51.15,0-8,6.57-15.53,17.36-15.53,9.85,0,18.37,5.12,22.21,18.09V6.4C710.82,2.84,702.7,0,694.68,0c-15.36,0-29.05,9.52-29.05,25,0,29.22,44,26.21,44,51.15,0,10.85-9.41,16-18.92,16-11.8,0-21.2-6-26.21-21.82V92A43.82,43.82,0,0,0,689,99.4c12.24,0,20.93-3.73,26-10.13a24.21,24.21,0,0,0,5.34-15.47M841.94,18.37l-1.11-16H765.64L764.53,18.2c2-6.85,6-8.68,16.53-8.68h16.53V84c0,12-5.4,13.08-6.57,13.24h24.65c-1.28-.17-6.57-1.73-6.57-13.24V9.52h16.36c11.52,0,14.53,2.28,16.47,8.85M951.41,80.2c-4,7.85-8.12,10-19.65,10H907.84V52.26h19.53c9.24,0,10.41,5.12,10.52,5.84V39.46c-0.28,1-1.56,5.84-10.68,5.84H907.84V9.41H931c13.24,0,14.69,6.85,15,8.4V2.45H889c1.28,0.17,7.29,1.56,7.29,13.41v68c0,12.13-5.57,13.41-6.68,13.52h59.27Zm112-50.31c0-14.08-10.13-27.49-30.33-27.49H997.94c1.11,0.17,7,1.56,7,13.41V84.15c0,11.69-5.4,13-6.57,13.08h24.49c-1.45-.17-6.85-1.73-6.85-13.08v-27a58.22,58.22,0,0,0,14.53,1.84c21.7,0.06,32.95-13.91,32.95-29.05m-11.85.89c0,11.69-7.57,20.82-21.37,20.82A58.4,58.4,0,0,1,1016,50V9.52h13.8c14.3,0,21.82,9.74,21.82,21.26" transform="translate(0 0)"/></svg>