<?xml version="1.0" encoding="utf-8"?>
<!-- Generator: Adobe Illustrator 19.2.1, SVG Export Plug-In . SVG Version: 6.00 Build 0)  -->
<svg version="1.1" id="Layer_1" xmlns="http://www.w3.org/2000/svg" xmlns:xlink="http://www.w3.org/1999/xlink" x="0px" y="0px"
	 viewBox="0 0 1478.3 364.7" style="enable-background:new 0 0 1478.3 364.7;" xml:space="preserve">
<style type="text/css">
	.st0{fill:#FFFFFF;}
</style>
<title>goodbye</title>
<path class="st0" d="M151.2,48.4c-2.5,0-5.4-1.4-7.9-3.7c-5.9-6.1-11.2-12.7-15.9-19.7c-1.7-2.4-3.6-4.7-5.6-6.8
	c-3.1-2.7-7.9-3.9-15.7-3.9h-6.4L64.5,125.8c-2.1,6.8-3.7,13-3.7,14.7c0,2.7,1,3.5,4.3,3.5h6c1.7,0,7.4-0.4,8.7-0.4
	c3.1,0,4.8,1,4.8,3.3c0,3.1-2.3,5.8-4.1,5.8c-0.6,0-11.4-1.4-37.6-1.4c-10.6,0-29.2,1.2-29.2,1.2c-2.5,0-3.3-0.8-3.3-3.1
	c0-3.7,1.9-5.8,5.2-5.8c1.7,0,5,0.4,6.4,0.4c2.4,0,4.8-0.2,7.2-0.6c6.6-1,6.2-2.1,9.3-12l37-117.1h-18c-10.8,0-15.9,6.4-25.9,15.5
	c-5.4,5.1-11.1,10-17,14.5c-2.9,2.3-5.6,3.5-7.9,3.5c-2,0-3.7-1.5-3.9-3.5c0-1.4,0.4-2.1,4.3-7.4l9.3-12.4c2.3-3.1,3.9-6.2,3.9-7.2
	c0-2.7-5.2-4.3-5.2-8.1c0-2.5,2.1-4.8,4.3-4.8c1.2,0,5.2,1.7,18.8,1.7h91.6c1.7,0,17.2-1.2,17.8-1.2c2.3,0,3.5,1.4,3.5,4.1
	c0,5.4-5.8,4.3-5.8,8.5c0,2.1,0.8,5.2,2.7,9.7c1,2.1,5,11.8,6.2,13.9c0.7,1.1,1.1,2.4,1.2,3.7C155.8,46.4,153.7,48.4,151.2,48.4z
	 M232.2,13.7c-3.1,0-6,0.2-9.5,0.2c-7,0-7.9,1-10.3,9.1c-0.6,2.1-2.1,6.8-2.3,7.7l-30.4,102.6c-0.6,2.4-1.1,4.9-1.4,7.4
	c0,2.3,1.7,3.3,4.8,3.3c8.3,0,11.4-0.2,12.4-0.2c4.1,0,5.8,1,5.8,3.5c0,3.1-1.9,5.2-5.4,5.2c-0.8,0-11-1.2-33.3-1.2
	c-16.3,0-27.1,1-28.8,1c-2.9,0-3.9-0.8-3.9-2.9c-0.1-2.8,2-5.1,4.8-5.2c0.1,0,0.1,0,0.2,0c1.4,0,5.8-0.4,9.7-0.4
	c6.8,0,9.1-1.2,11-7.7l33.9-114.8c0.4-1.5,0.7-3,0.8-4.5c0-2.1-1.7-3.1-5.4-3.1c-1.4,0-6.8,0.2-9.7,0.2c-4.1,0-5.8-1-5.8-3.5
	c0-3.3,1.4-5,5-5c1.4,0,23,0.8,29,0.8c9.7,0,29-1,30.6-1c2.9,0,3.7,0.6,3.7,2.9C237.6,11.1,235.2,13.6,232.2,13.7z M457.3,13.5
	c-2.5,0-5-0.2-6-0.2c-8.3,0-9.7,1.2-12.6,10.3l-32.7,103c-2.1,6.8-2.9,10.8-2.9,13.4c0,3.1,1.9,3.9,9.1,3.9c2.3,0,5.4-0.2,6.8-0.2
	c3.1,0,4.6,0.8,4.6,2.9c0,3.3-2.3,5.8-5,5.8c-2.5,0-16.5-0.8-30.6-0.8c-10.6,0-27.1,0.6-27.1,0.6c-3.1,0-4.3-1-4.3-3.5
	c0-2.3,1.2-4.8,4.1-4.8h3.7c3.2,0,6.4-0.3,9.5-1c3.3-1,4.6-3.1,7.7-13l36.8-116.3c-0.5,0-0.9,0.1-1.4,0.2
	c-2.1,0.4-3.7,2.3-10.3,10.3c-19.4,24-56.9,75.9-67.4,92.5l-18,27.7c-1,1.7-2.3,3.5-3.5,5.6c-1.7,2.7-2.5,3.1-5.4,3.1
	c-2.5,0-3.3-1-3.3-4.1v-9.3c0,0-1.4-25-3.1-51.7c-1.2-18.8-4.3-56.5-5.2-61.9c-1-8.9-2.3-11.8-4.8-12.2l-29.6,90.4
	c-2.9,9.3-8.5,25.4-8.5,32.7c0,5,2.5,6.8,9.5,6.8c5.4,0,7.2,0.8,7.2,3.5c0.1,2.5-1.9,4.7-4.4,4.8c-0.1,0-0.2,0-0.4,0
	c-2.5,0-7.7-0.8-23.6-0.8c-16.3,0-19.7,1-22.8,1c-2.1,0-3.3-1.4-3.3-3.7c0-3.1,1.9-4.8,6-5c11.6-0.4,17.6-4.3,20.9-13.2
	c15.1-42.2,38.7-111.1,38.7-111.1c0.4-1.2,0.6-2.4,0.6-3.7c0-1.9-0.6-2.5-2.5-2.5c-1,0-10.1,0.6-11.2,0.6c-3.1,0-4.3-0.8-4.3-3.1
	c0-3.3,1.9-5.6,4.6-5.6c2.1,0,9.9,1.2,21.3,1.2c7.9,0.1,15.9-0.3,23.8-1.2c3.5,0,4.8,1,5.4,5c1.7,8.3,2.5,15.9,3.3,28.5
	c1.7,25.9,2.9,60.2,0.6,85.2l1.2,0.4l1.4-4.3c6-18.2,65.6-96.6,79.8-111.9c1.9-2.1,3.5-2.9,5.4-2.9c1.2,0,17,1,25,1
	c15.5,0,17-1,20.5-1c2.3,0,3.1,0.6,3.1,2.5C463.9,11.6,461.9,13.5,457.3,13.5z M592.4,44.3c-4.6,0-15.3-9.7-22.8-20.3l-3.9-5.8
	c-3.1-4.3-5.2-5-13.9-5h-19.7c-2.5,0-3.5,1.4-4.8,5.2l-17,53.4c0,0,12.8-0.4,16.8-0.4c14.1,0,21.1-4.6,29.8-18.4
	c1.4-2.3,3.1-3.3,5.4-3.3c2.1,0,3.5,1,3.5,2.7c0,1.2-0.2,1.7-2.1,6c-5.4,11.4-12,28.3-15.5,44.5c-0.8,3.9-2.3,5.2-4.8,5.2
	s-4.1-1.4-4.1-3.7c0-1.9,0.6-5.8,0.6-10.5c0-13.9-3.9-15.1-17.4-15.1c-7.2,0-14.3-0.2-14.3-0.2l-16.3,51.5c-1,3.2-1.7,6.4-2.1,9.7
	c0,3.1,1.2,3.9,8.7,3.9h25.7c20.3,0,25.9-1,32.3-6.4c1-0.8,5-4.8,11.8-11.6c8.7-8.9,18.8-15.7,23-15.7c2.2,0,3.9,1.7,3.9,3.9
	c0,0,0,0,0,0c0,1.4-0.4,2.3-4.3,7.4c-6.2,8.5-10.6,16.3-10.6,19.4c0,3.5,4.3,3.7,4.3,7.4c0.2,2.5-1.7,4.6-4.2,4.8c0,0,0,0-0.1,0
	c-1,0-10.3-1.7-50.1-1.4l-55,0.2c-11.4,0-26.5,0.8-29,0.8c-1.9,0-3.5-0.6-3.5-2.7c0-5.2,2.7-5.6,6.4-5.6h7.2
	c7.4,0,8.5-3.1,12.2-14.5L501,27.1c2.3-7.7,3.1-10.3,3.1-11.8c0-1.9-1-2.5-3.7-2.5c-3.9,0-6.6,0.2-10.3,0.2c-3.3,0-4.6-1-4.6-3.5
	c0-3.1,1-4.6,3.5-4.6c0.6,0,23.6,0.8,31,0.8c14.3,0,28.8-0.2,47.2-0.2c9.3,0,20.1-0.6,20.9-0.6c2.5,0,3.9,1.4,3.9,3.7
	c0,3.5-4.8,5-4.8,8.7c0,5.2,9.7,19.4,9.7,22.8C597.2,42.4,594.9,44.3,592.4,44.3z M820.4,48.4c-2.5,0-5.4-1.4-7.9-3.7
	c-5.9-6.1-11.2-12.7-15.9-19.7c-1.7-2.4-3.6-4.7-5.6-6.8c-3.1-2.7-7.9-3.9-15.7-3.9h-6.4l-35.2,111.5c-2.1,6.8-3.7,13-3.7,14.7
	c0,2.7,1,3.5,4.3,3.5h6c1.7,0,7.4-0.4,8.7-0.4c3.1,0,4.8,1,4.8,3.3c0,3.1-2.3,5.8-4.1,5.8c-0.6,0-11.4-1.4-37.6-1.4
	c-10.6,0-29.2,1.2-29.2,1.2c-2.5,0-3.3-0.8-3.3-3.1c0-3.7,1.9-5.8,5.2-5.8c1.7,0,5,0.4,6.4,0.4c2.4,0,4.8-0.2,7.2-0.6
	c6.6-1,6.2-2.1,9.3-12l37-117.1h-18c-10.8,0-15.9,6.4-25.9,15.5c-5.4,5.1-11.1,10-17,14.5c-2.9,2.3-5.6,3.5-7.9,3.5
	c-2,0-3.7-1.5-3.9-3.5c0-1.4,0.4-2.1,4.3-7.4l9.3-12.4c2.3-3.1,3.9-6.2,3.9-7.2c0-2.7-5.2-4.3-5.2-8.1c0-2.5,2.1-4.8,4.3-4.8
	c1.2,0,5.2,1.7,18.8,1.7H799c1.7,0,17.2-1.2,17.8-1.2c2.3,0,3.5,1.4,3.5,4.1c0,5.4-5.8,4.3-5.8,8.5c0,2.1,0.8,5.2,2.7,9.7
	c1,2.1,5,11.8,6.2,13.9c0.7,1.1,1.1,2.4,1.2,3.7C824.9,46.4,822.9,48.4,820.4,48.4z M944,131.6c-14.1,16.3-33.3,26.3-54.4,26.3
	c-34.1,0-55.9-24.2-55.9-62.3c0-24.2,9.9-52.3,24.2-68.7c14.7-16.8,34.8-26.1,55.4-26.1c34.3,0,55.9,23.2,55.9,60.2
	C969.2,88.8,959.5,114,944,131.6z M915,7.9c-24,0-34.8,19-44.9,48.4c-9.3,26.9-13,44.9-13,61.2c0,20.9,11.4,33.1,31,33.1
	c15.1,0,26.5-8.1,34.8-24.4c12.4-24.2,23.4-64.3,23.4-85.8C946.2,19.9,934.9,7.9,915,7.9z M1138.4,31.9c0,4.2,0.3,8.4,0.8,12.6
	c0.1,2.1-1.6,3.8-3.7,3.9c-0.1,0-0.2,0-0.2,0c-3.3,0-8.3-6.8-13.4-18.6c-4.8-10.3-5.2-11.2-8.3-14.7c-3.9-4.3-8.5-6-15.7-6
	c-13,0-23,9.5-23,21.9c0,9.7,5.8,18.6,21.9,34.5c14.3,13.7,16.3,16.1,19.9,22.1c3.7,6.8,5.6,14.4,5.6,22.1c0,27.1-20.7,47-49,47
	c-9.8,0-19.5-2.3-28.3-6.8c-5-2.9-6.2-3.3-8.9-3.3s-6.4,2.7-8.7,2.7c-2.5,0-4.1-2.3-4.1-4.8c0-1.9,3.5-13.4,3.5-23.6
	c0-7.4-1.7-13.9-1.7-16.3c0-2.7,1.7-4.8,4.1-4.8c4.6,0,11.2,9.1,15.5,21.5l2.9,8.1c2.3,6.4,4.3,9.7,7.7,12.8
	c4.3,4.1,11.2,6.6,18.2,6.6c16.1,0,28.1-11.2,28.1-26.1c0-5.8-1.5-11.5-4.5-16.5c-3.3-5.6-5.2-7.7-18.2-20.9
	c-17.4-17.4-23-27.7-23-42c0-24.6,18-41.8,43.6-41.8c6.5-0.2,13,1,19,3.5c6.6,2.9,6.8,2.9,9.3,2.9c3.3,0,6-3.1,8.7-3.1
	c2.9,0,4.3,1.7,4.3,3.9C1140.9,12,1138.4,20.5,1138.4,31.9z M1303.6,15.7l-35.8,110.5c-1.5,4.7-2.6,9.6-3.3,14.5
	c0,2.7,1.7,3.5,6.6,3.5h5.4c4.6,0,6.2,0.6,6.2,2.9c0,3.3-1.9,5.6-4.6,5.6c-1,0-5.6-1.2-27.9-1.2c-21.9,0-26.3,0.8-28.5,0.8
	c-2.9,0-4.1-1-4.1-3.5c0-3.3,1.9-4.8,5.4-4.8h4.8c2.2,0,4.4-0.2,6.6-0.6c3.7-0.8,4.8-1.9,6.4-7l17.4-53.8h-41.8
	c-8.5,9.5-12.6,13.9-29.2,33.7c-13,15.5-15.7,17.8-15.7,22.1c0,3.9,3.9,5.8,13.7,5.8c4.1,0,5.8,0.8,5.8,3.7c0,3.1-1.2,4.3-3.9,4.3
	c-4.8,0-13-0.8-27.5-0.8c-15.1,0-25.2,0.8-29.6,0.8c-2.7,0-3.5-0.8-3.5-3.3c0-3.7,1.9-5,7.4-5c4.3,0.2,8.6-0.5,12.6-2.1
	c5.8-2.5,8.3-4.6,17-14.1c10.6-11.4,16.3-18.6,26.9-30.2c14.7-16.1,36.2-38.7,38.1-40.5c3.1-3.3,27.3-27.5,45.5-43.2
	c6.6-5.8,10.1-8.1,14.7-9.5c3.9-1.1,7.9-1.8,12-1.9c3.7,0,5.6,1.4,5.6,4.1C1306.1,8.1,1304.2,13.7,1303.6,15.7z M1286.2,11.4
	c-18.4,16.5-49.4,49-63.5,64.3h37.6l7.2-23c4.1-12.8,8.9-24.4,19.4-40.8L1286.2,11.4z M1461.7,33.1c-7,0-12.2-4.3-12.2-9.9
	c0-5.2,3.5-7.7,3.5-9.1c0-1.2-1.4-2.1-3.1-2.1c-6.6,0-15.9,6.8-26.5,19.4c-10.5,12.8-19.2,26.5-31,49.4
	c-9.9,19.2-16.5,33.9-19.7,43.4L1369,135c-0.6,1.8-0.9,3.6-1,5.4c0,3.1,1.4,3.5,9.1,3.5c6.2,0,7.9-0.2,10.3-0.2c3.9,0,4.8,1,4.8,3.3
	c0,3.9-1.2,5.4-4.6,5.4c-2.1,0-17-1-33.5-1c-11,0-27.7,1-31.4,1c-2.1,0-4.1-1-4.1-3.1c0-3.3,2.1-5.6,5.4-5.6c1.4,0,4.1,0.2,6.8,0.2
	c8.9,0,10.3-1.2,14.5-11.6l5.6-13.9c10.6-26.3,20.7-65.4,20.7-81.5c0-12.8-5.2-20.7-13.4-20.7c-6,0-12.4,3.9-18.8,11.4
	c-7.2,8.3-9.5,15.1-9.5,20.9c0,5.2,10.1,6,10.1,17c0,5.8-4.1,9.9-10.3,9.9c-6.6,0-10.8-5.2-10.8-13.7c0-10.8,5.4-24.6,14.1-35.8
	c11.4-14.9,26.1-23.4,41-23.4c12.6,0,20.5,9.7,20.5,25.2c0,8.3-1.9,18.4-6,32.9c-2.7,9.7-5.6,18.6-12.4,38.3l-1.7,4.6h2.1
	C1403.6,34.8,1431.1,0,1458.4,0c12.2,0,19.9,6.4,19.9,16.8C1478.3,26.1,1471.3,33.1,1461.7,33.1z M131.8,317.3
	c-6.8,0-11.2,0.6-13,2.1c-1.4,1.2-3.1,4.8-6.2,14.7l-3.1,9.9c-1.2,3.8-1.4,7.9-0.8,11.8c0.2,2.3-2.3,4.1-4.6,4.1
	c-3.9,0-7.4-3.3-11.4-3.3c-5.8,0-14.5,7.4-37.4,7.4C23,364.1,0,338.9,0,303.3c0-23.6,8.9-49.2,23.4-67.4
	c13.7-17.2,34.5-27.1,56.5-27.1c22,0,35.2,9.3,40.8,9.3c4.6,0,5-3.9,10.3-3.9c2.9,0,5.2,2.1,5.2,4.3c0,3.1-2.5,7-2.5,18.8
	c0,11.2,2.3,18,2.3,20.5c0,2.3-1.8,4.1-4.1,4.1c-4.6,0-11.2-8.9-19.7-26.7c-3.1-6.8-5-9.5-8.5-12.4c-5.4-4.6-12.6-6.8-21.3-6.8
	c-14.3,0-25,6.2-32.7,18.4c-13.9,21.9-26.5,65-26.5,89.4c0,20.5,11.8,32.1,32.7,32.1c10,0.1,19.8-2.6,28.3-7.9l7.2-23.4
	c0.4-1.3,0.6-2.7,0.8-4.1c0-2.7-1.2-3.1-7-3.1c-4.3,0-6.6,0.2-8.1,0.2c-3.5,0-5.2-1.2-5.2-3.7c0-2.9,1.7-5,4.1-5c1.9,0,4.8,1,26.9,1
	c14.1,0,28.5-1,31.2-1c2.3,0,3.5,0.4,3.5,3.1C137.8,315.5,135.5,317.3,131.8,317.3z M272.8,338.4c-14.1,16.3-33.3,26.3-54.4,26.3
	c-34.1,0-55.9-24.2-55.9-62.3c0-24.2,9.9-52.3,24.2-68.7c14.7-16.8,34.8-26.1,55.4-26.1c34.3,0,55.9,23.2,55.9,60.2
	C298.1,295.6,288.3,320.9,272.8,338.4z M243.9,214.7c-24,0-34.8,19-44.9,48.4c-9.3,26.9-13,44.9-13,61.2c0,20.9,11.4,33.1,31,33.1
	c15.1,0,26.5-8.1,34.8-24.4c12.4-24.2,23.4-64.3,23.4-85.8C275.1,226.7,263.7,214.7,243.9,214.7z M430.9,338.4
	c-14.1,16.3-33.3,26.3-54.4,26.3c-34.1,0-55.9-24.2-55.9-62.3c0-24.2,9.9-52.3,24.2-68.7c14.7-16.8,34.8-26.1,55.4-26.1
	c34.3,0,55.9,23.2,55.9,60.2C456.1,295.6,446.4,320.9,430.9,338.4z M401.9,214.7c-24,0-34.8,19-44.9,48.4c-9.3,26.9-13,44.9-13,61.2
	c0,20.9,11.4,33.1,31,33.1c15.1,0,26.5-8.1,34.8-24.4c12.4-24.2,23.4-64.3,23.4-85.8C433.2,226.7,421.8,214.7,401.9,214.7z
	 M603.8,326.5c-14.9,21.7-39.9,33.1-73.4,33.1c-5.2,0-36.4-1.2-46.8-1.2c-9.9,0-25.4,1-31.2,1c-3.1,0-4.3-0.8-4.3-3.3
	c0-3.1,2.1-5.2,5.6-5.2c2.1,0,4.3,0.2,5.4,0.2c12.4,0,13.9-1.4,16.1-8.7L509.6,233c1-3.1,2.3-7,2.3-8.5c0-2.9-2.1-3.9-8.9-3.9
	c-3.5,0-6.6,0.4-8.3,0.4c-2.5,0-3.7-1-3.7-3.5c0-3.5,1.4-5.2,5.2-5.2c0.8,0,12.2,1,27.3,1c8.9,0,26.5-1.2,35-1.2
	c9.9,0,17.2,0.8,25.2,2.9c22.3,6,37,27.7,37,54.8C620.7,289.8,614.3,310.9,603.8,326.5z M586.4,229.8c-6.2-7.2-16.1-10.6-30.8-10.6
	c-4.1,0-8.7,0.2-12.4,0.4c-5.4,0.4-6.2,1.7-8.9,10.1L501,334.9c-1.2,4.3-2.3,8.9-2.3,11c0,3.5,2.1,5.2,6.8,5.6
	c5.4,0.4,12.8,0.6,18.6,0.6c20.9,0,33.7-4.1,44.9-14.5c15.1-14.1,27.1-48.4,27.1-77.4C596.1,248.1,592.6,237.1,586.4,229.8
	L586.4,229.8z M745.4,274.7c-9.3,4.1-14.5,5.2-30.2,6c12.2,0.4,17,1.4,23.8,5.2c9.9,5.6,15.9,16.5,15.9,29
	c0,13.7-7.9,27.9-19.7,35.6c-11,6.8-22.3,9.5-41.4,9.5c-10.8,0-32.7-1.9-46.3-1.9c-9.9,0-27.9,1-29.6,1c-2.9,0-4.3-1-4.3-3.5
	c0-3.1,2.1-4.8,5.6-4.8c0,0,4.6,0.2,7.4,0.2c4.8,0,9.7-1.2,11.8-2.7c1.9-1.4,2.7-3.1,6-13.7l33.1-104.7c0.6-1.9,1-3.8,1.2-5.8
	c0-2.9-2.9-4.1-9.3-4.1h-5.8c-4.8,0-6.6-1-6.6-4.1c0-2.9,1.2-4.3,4.1-4.3c4.1,0,3.5,1,25,1c17.2,0,23.4-1.2,38.5-1.2
	c11.6,0,20.5,1.2,29,7c7.9,5.4,12.2,14.1,12.2,24.4C765.9,256.5,757.9,269.1,745.4,274.7L745.4,274.7z M694.1,283.2
	c-3.4-0.1-6.8,0.2-10.1,0.8l-16.8,53.4c-1.7,5.2-1.9,6.2-1.9,8.1c0,5.8,2.9,6.8,21.1,6.8c14.5,0,23.8-2.7,30.8-8.7
	c7.7-6.6,12.8-19.4,12.8-31.9C730.1,292.3,718.5,283.2,694.1,283.2z M715.8,218.3c-10.6,0-11.8,2.3-13.9,8.9l-15.7,49.6
	c2.7,0.5,5.5,0.7,8.3,0.6c6.3,0.1,12.6-0.3,18.8-1.2c16.8-2.7,28.1-17.2,28.1-36C741.4,225.9,732.5,218.3,715.8,218.3L715.8,218.3z
	 M930.5,240c-7,0-12.2-4.3-12.2-9.9c0-5.2,3.5-7.7,3.5-9.1c0-1.2-1.4-2.1-3.1-2.1c-6.6,0-15.9,6.8-26.5,19.4
	c-10.6,12.8-19.2,26.5-31,49.4c-9.9,19.2-16.5,33.9-19.7,43.4l-3.7,10.8c-0.6,1.8-0.9,3.6-1,5.4c0,3.1,1.4,3.5,9.1,3.5
	c6.2,0,7.9-0.2,10.3-0.2c3.9,0,4.8,1,4.8,3.3c0,3.9-1.2,5.4-4.6,5.4c-2.1,0-17-1-33.5-1c-11,0-27.7,1-31.4,1c-2.1,0-4.1-1-4.1-3.1
	c0-3.3,2.1-5.6,5.4-5.6c1.4,0,4.1,0.2,6.8,0.2c8.9,0,10.3-1.2,14.5-11.6l5.6-13.9c10.6-26.3,20.7-65.4,20.7-81.5
	c0-12.8-5.2-20.7-13.4-20.7c-6,0-12.4,3.9-18.8,11.4c-7.2,8.3-9.5,15.1-9.5,20.9c0,5.2,10.1,6,10.1,17c0,5.8-4.1,9.9-10.3,9.9
	c-6.6,0-10.8-5.2-10.8-13.7c0-10.8,5.4-24.6,14.1-35.8c11.4-14.9,26.1-23.4,41-23.4c12.6,0,20.5,9.7,20.5,25.2
	c0,8.3-1.9,18.4-6,32.9c-2.7,9.7-5.6,18.6-12.4,38.3l-1.7,4.6h2.1c27.3-68.9,54.8-103.6,82.1-103.6c12.2,0,19.9,6.4,19.9,16.8
	C947,233,940,240,930.5,240z M1070,251.2c-4.6,0-15.3-9.7-22.8-20.3l-3.9-5.8c-3.1-4.3-5.2-5-13.9-5h-19.7c-2.5,0-3.5,1.4-4.8,5.2
	l-17,53.4c0,0,12.8-0.4,16.8-0.4c14.1,0,21.1-4.6,29.8-18.4c1.4-2.3,3.1-3.3,5.4-3.3c2.1,0,3.5,1,3.5,2.7c0,1.2-0.2,1.7-2.1,6
	c-5.4,11.4-12,28.3-15.5,44.5c-0.8,3.9-2.3,5.2-4.8,5.2s-4.1-1.4-4.1-3.7c0-1.9,0.6-5.8,0.6-10.5c0-13.9-3.9-15.1-17.4-15.1
	c-7.2,0-14.3-0.2-14.3-0.2L969.5,337c-1,3.2-1.7,6.4-2.1,9.7c0,3.1,1.2,3.9,8.7,3.9h25.7c20.3,0,25.9-1,32.3-6.4
	c1-0.8,5-4.8,11.8-11.6c8.7-8.9,18.8-15.7,23-15.7c2.2,0,3.9,1.7,3.9,3.9c0,0,0,0,0,0c0,1.4-0.4,2.3-4.3,7.4
	c-6.2,8.5-10.6,16.3-10.6,19.4c0,3.5,4.3,3.7,4.3,7.4c0.2,2.5-1.7,4.6-4.2,4.8c0,0,0,0-0.1,0c-1,0-10.3-1.7-50.1-1.4l-55,0.2
	c-11.4,0-26.5,0.8-29,0.8c-1.9,0-3.5-0.6-3.5-2.7c0-5.2,2.7-5.6,6.4-5.6h7.2c7.4,0,8.5-3.1,12.2-14.5L978.8,234
	c2.3-7.7,3.1-10.3,3.1-11.8c0-1.9-1-2.5-3.7-2.5c-3.9,0-6.6,0.2-10.3,0.2c-3.3,0-4.6-1-4.6-3.5c0-3.1,1-4.6,3.5-4.6
	c0.6,0,23.6,0.8,31,0.8c14.3,0,28.8-0.2,47.2-0.2c9.3,0,20.1-0.6,20.9-0.6c2.5,0,3.9,1.4,3.9,3.7c0,3.5-4.8,5-4.8,8.7
	c0,5.2,9.7,19.4,9.7,22.8C1074.5,249.4,1072.4,251.3,1070,251.2z M1104.6,361.8c-7.8,0-14.2-6.4-14.2-14.2c0-7.8,6.4-14.2,14.2-14.2
	c7.8,0,14.2,6.3,14.2,14.2C1118.8,355.4,1112.5,361.8,1104.6,361.8C1104.6,361.8,1104.6,361.8,1104.6,361.8z M1158.2,361.8
	c-7.8,0-14.2-6.4-14.2-14.2c0-7.8,6.4-14.2,14.2-14.2c7.8,0,14.2,6.3,14.2,14.2C1172.4,355.4,1166.1,361.8,1158.2,361.8
	C1158.2,361.8,1158.2,361.8,1158.2,361.8z M1211.9,361.8c-7.8,0-14.2-6.4-14.2-14.2c0-7.8,6.4-14.2,14.2-14.2
	c7.8,0,14.2,6.4,14.2,14.2C1226.1,355.4,1219.7,361.8,1211.9,361.8L1211.9,361.8z"/>
</svg>
