<svg id="Layer_1" data-name="Layer 1" xmlns="http://www.w3.org/2000/svg" viewBox="0 0 1705.5 397.38"><defs><style>.cls-1{fill:#fff;}</style></defs><title>title_aw15</title><path class="cls-1" d="M53.39,49.26l0,0.5c0.24,0,5.87.85,5.87,10.66V79.65a47.29,47.29,0,0,1-14.71,2.71c-10.22,0-18.84-4.05-24.93-11.71-5.43-6.84-8.43-16-8.43-25.82C11.16,26.67,22,8.3,42.86,8.3c12.85,0,22.29,5.9,25.89,16.19l0.49,1.39V6.63l-0.13-.07C62.81,3.13,53.9,1.08,45.27,1.08c-14.17,0-26,5-34.29,14.57C3.74,24-.25,35.23-0.25,47.23c0,11.44,3.72,22,10.48,29.7,7.54,8.61,18.34,13.16,31.24,13.16,10.05,0,21.15-2.3,28.26-5.86l0.14-.07V60.29c0-9.55,5-10.46,5.62-10.53l0-.5H53.39Z" transform="translate(0.25 0.73)"/><path class="cls-1" d="M125.79,1.08c-24.54,0-42.35,19.09-42.35,45.39,0,25.68,16.48,43.62,40.07,43.62,24.39,0,42.1-19.09,42.1-45.39C165.61,19,149.23,1.08,125.79,1.08Zm20.62,18.57c5.52,7,8.55,16.92,8.55,28,0,10.2-2.79,19-8.06,25.31A26.26,26.26,0,0,1,126,82.62a28.35,28.35,0,0,1-23-11.19c-5.61-7.14-8.7-17.31-8.7-28.63,0-20.48,11.62-34.24,28.92-34.24A28.52,28.52,0,0,1,146.41,19.65Z" transform="translate(0.25 0.73)"/><path class="cls-1" d="M173.46,3.23l2,0.49c3.72,0.93,5.77,4.94,5.77,11.3v61.5c0,10-4.57,11-5.49,11.17l0,0.5h21.68l0-.5c-0.57-.06-5.61-0.92-5.61-11.16V15c0-9.85,4.69-11.14,5.63-11.29l0-.5h-24Z" transform="translate(0.25 0.73)"/><path class="cls-1" d="M263.12,3.23l2.23,0.49c1.89,0.42,6.27,2.38,6.27,11.55V65.8L221.21,3.33l-0.07-.09H203.28l1.15,0.48c6.29,2.62,9.48,6.94,9.48,12.83V76.27c0,9.78-4.69,11.21-6.12,11.42l0,0.5h20.42l0-.5c-0.67-.07-6.5-1-6.5-11.42V21.18l57.57,71.14v-77c0-10.37,5.5-11.45,6.13-11.54l0-.5H263.12Z" transform="translate(0.25 0.73)"/><path class="cls-1" d="M347.57,49.26l0,0.5c0.24,0,5.87.85,5.87,10.66V79.65a47.28,47.28,0,0,1-14.71,2.71c-10.22,0-18.84-4.05-24.93-11.71-5.43-6.84-8.43-16-8.43-25.82C305.34,26.67,316.23,8.3,337,8.3c12.85,0,22.29,5.9,25.89,16.19l0.49,1.39V6.63l-0.13-.07c-6.29-3.43-15.2-5.48-23.83-5.48-14.17,0-26,5-34.28,14.57-7.25,8.36-11.24,19.58-11.24,31.58,0,11.44,3.72,22,10.48,29.7,7.54,8.61,18.34,13.16,31.24,13.16,10.05,0,21.15-2.3,28.26-5.86l0.14-.07V60.29c0-9.55,5-10.46,5.61-10.53l0-.5H347.57Z" transform="translate(0.25 0.73)"/><path class="cls-1" d="M445.1,43.63c8.39-2.21,14.56-10.54,14.56-20A19.63,19.63,0,0,0,454,9.58c-4.17-4.15-10.33-6.35-17.82-6.35h-32l0,0.5c5.7,0.71,5.87,10.55,5.87,11.67V75.76c0,10.7-4.57,11.81-5.49,11.93l0,0.5h35.13C456.39,88.19,464,76.69,464,66A22.47,22.47,0,0,0,445.1,43.63Zm-24.24,4h13.82c10.86,0,17.88,7,17.88,17.88,0,7.23-2.88,15.85-16.62,15.85H420.86V47.61Zm0-37.66h12.05c7.69,0,15.48,5,15.48,14.46,0,9.86-5.86,16.49-14.59,16.49H420.86V9.95Z" transform="translate(0.25 0.73)"/><path class="cls-1" d="M542.19,73.26l-30-74L481.87,73.13C476.52,86,472,87.52,471.15,87.69l0,0.5h20.67l0-.5c-1.38-.2-4.6-1.17-4.6-5.84,0-1.66.66-3.75,1.89-7l5-12.78h32.25l5.14,13.28,0.21,0.57c1.16,3.13,1.93,5.19,1.93,6.83,0,4.74-3.64,5-3.68,5v0.25h0v0.25h23.21l0-.5C553,87.66,547.56,86.82,542.19,73.26Zm-18.48-18H496.81l13.45-33.82Z" transform="translate(0.25 0.73)"/><path class="cls-1" d="M600.29,82.24c-15.52,0-32.21-11.71-32.21-37.41,0-9.55,2.77-18.45,7.8-25.07A28,28,0,0,1,599,8.42c12.57,0,20.71,5.5,24.87,16.83l0.48,1.32V6.63l-0.13-.07a48,48,0,0,0-22.82-5.48c-13.86,0-25.53,5-33.75,14.59-7.16,8.32-11.27,19.87-11.27,31.69,0,11.36,3.66,21.84,10.3,29.49,7.52,8.66,18.43,13.24,31.54,13.24A36.77,36.77,0,0,0,626.34,77.7l0.06-.07v-9l-0.44.52C619,77.34,609.45,82.24,600.29,82.24Z" transform="translate(0.25 0.73)"/><path class="cls-1" d="M689.62,74.84l-28.76-33,24.95-25.32C697.17,5,704.06,3.82,704.81,3.73l0-.5h-24l0,0.5c0.92,0.18,2.46.74,2.46,2.42,0,1.23-.8,4.1-6.14,9.59L650.5,42.81V15.27c0-9.84,4.3-11.33,5.62-11.55l0-.5H634.14l0,0.5c0.57,0.07,5.61,1,5.61,11.54v61c0,10.21-4.57,11.3-5.49,11.42l0,0.5h21.81l0-.5c-0.94-.1-5.61-1.15-5.61-11.42V46.63L686.83,88.1l0.07,0.09H706.3l0-.5C706.07,87.66,700,86.86,689.62,74.84Z" transform="translate(0.25 0.73)"/><path class="cls-1" d="M734.72,3.23l-1.2,16.65,0.66-2.26c1.71-5.86,5-7.56,14.47-7.56h14.46V76.15c0,10.06-4.3,11.38-5.61,11.55l0,0.5h21.94l0-.5c-0.57-.06-5.61-0.93-5.61-11.54V10.07h14.33c10.3,0,12.75,2,14.47,7.69l0.65,2.13L802.14,3.23H734.72Z" transform="translate(0.25 0.73)"/><path class="cls-1" d="M848.83,1.08c-24.54,0-42.35,19.09-42.35,45.39,0,25.68,16.48,43.62,40.07,43.62,24.39,0,42.1-19.09,42.1-45.39C888.64,19,872.27,1.08,848.83,1.08Zm20.62,18.57c5.52,7,8.55,16.92,8.55,28,0,10.2-2.79,19-8.06,25.31a26.26,26.26,0,0,1-20.86,9.69,28.35,28.35,0,0,1-23-11.19c-5.61-7.14-8.7-17.31-8.7-28.63,0-20.48,11.62-34.24,28.92-34.24A28.53,28.53,0,0,1,869.44,19.65Z" transform="translate(0.25 0.73)"/><path class="cls-1" d="M930.11,15.27v60c0,11.34-4.82,12.36-5.37,12.43l0,0.5h53.35l2.48-18.66-0.78,2.09c-3.29,8.85-8,9.73-18.66,9.73H940.75V15.27c0-1.11.16-10.86,5.62-11.54l0-.5H924.52l0,0.5C925.07,3.8,930.11,4.73,930.11,15.27Z" transform="translate(0.25 0.73)"/><path class="cls-1" d="M1024.7,90.09c24.39,0,42.1-19.09,42.1-45.39,0-25.68-16.37-43.62-39.82-43.62-24.54,0-42.35,19.09-42.35,45.39C984.63,72.15,1001.11,90.09,1024.7,90.09Zm-20.47-18.67c-5.61-7.14-8.7-17.31-8.7-28.63,0-20.48,11.62-34.24,28.92-34.24,19,0,31.71,15.7,31.71,39.06,0,10.2-2.79,19-8.06,25.31a26.26,26.26,0,0,1-20.86,9.69A28.35,28.35,0,0,1,1004.23,71.43Z" transform="translate(0.25 0.73)"/><path class="cls-1" d="M1082.65,16.54V76.27c0,9.78-4.69,11.21-6.12,11.42l0,0.5H1097l0-.5c-0.67-.07-6.5-1-6.5-11.42V21.18l57.57,71.14v-77c0-10.37,5.5-11.45,6.12-11.54l0-.5h-22.32l2.23,0.49c1.89,0.42,6.27,2.38,6.27,11.55V65.8L1089.87,3.23H1072l1.15,0.48C1079.46,6.33,1082.65,10.65,1082.65,16.54Z" transform="translate(0.25 0.73)"/><path class="cls-1" d="M1204.38,90.09c10.05,0,21.14-2.3,28.26-5.86l0.14-.07V60.29c0-9.55,5-10.46,5.62-10.53l0-.5H1216.3l0,0.5c0.24,0,5.87.85,5.87,10.66V79.65a47.29,47.29,0,0,1-14.71,2.71c-10.22,0-18.84-4.05-24.93-11.71-5.43-6.84-8.43-16-8.43-25.82,0-18.15,10.89-36.53,31.71-36.53,12.85,0,22.29,5.9,25.89,16.19l0.49,1.39V6.63L1232,6.56c-6.29-3.43-15.2-5.48-23.83-5.48-14.17,0-26,5-34.28,14.57-7.25,8.36-11.24,19.58-11.24,31.58,0,11.44,3.72,22,10.47,29.7C1180.68,85.54,1191.49,90.09,1204.38,90.09Z" transform="translate(0.25 0.73)"/><path class="cls-1" d="M1278.56,15v61.5c0,10-4.57,11-5.49,11.17l0,0.5h21.69l0-.5c-0.57-.06-5.61-0.92-5.61-11.16V15c0-9.85,4.68-11.14,5.62-11.29l0-.5h-24l2,0.49C1276.52,4.65,1278.56,8.67,1278.56,15Z" transform="translate(0.25 0.73)"/><path class="cls-1" d="M1331.88,39.76c-8.91-4.75-17.32-9.23-17.32-18.28,0-6.58,5.33-13.57,15.22-13.57,6.76,0,15.64,2.76,19.54,15.93l0.49,1.65V6.91l-0.09-.07c-4.27-3.45-11.67-5.76-18.42-5.76a28.92,28.92,0,0,0-18.23,6,20.65,20.65,0,0,0-7.89,16.54c0,13.66,10.62,19.45,20.88,25,9.41,5.13,18.3,10,18.3,20.48,0,6.94-5.14,14-16.61,14s-19-6.29-23.09-19.23l-0.49-1.55v21l0.11,0.07a39,39,0,0,0,22,6.64c10.55,0,18.64-3.15,23.4-9.1a22.27,22.27,0,0,0,4.75-14C1354.39,51.76,1342.43,45.39,1331.88,39.76Z" transform="translate(0.25 0.73)"/><path class="cls-1" d="M1399.79,81.35h-20.42V15.27c0-1.11.16-10.86,5.62-11.54l0-.5h-21.81l0,0.5c0.57,0.07,5.61,1,5.61,11.54v60c0,11.34-4.82,12.36-5.37,12.43l0,0.5h53.35l2.48-18.66-0.78,2.09C1415.16,80.47,1410.48,81.35,1399.79,81.35Z" transform="translate(0.25 0.73)"/><path class="cls-1" d="M1494.74,73.26l-30-74-30.29,73.86c-5.35,12.88-9.87,14.39-10.72,14.56l0,0.5h20.67l0-.5c-1.38-.2-4.6-1.17-4.6-5.84,0-1.67.66-3.75,1.88-7l5-12.78H1479l5.13,13.28,0.22,0.6c1.16,3.11,1.92,5.17,1.92,6.8,0,4.74-3.64,5-3.68,5v0.25h0v0.25h23.21l0-.5C1505.6,87.66,1500.11,86.83,1494.74,73.26Zm-18.48-18h-26.91l13.45-33.82Z" transform="translate(0.25 0.73)"/><path class="cls-1" d="M1567.8,3.23L1570,3.73c1.88,0.42,6.27,2.38,6.27,11.55V65.8L1525.82,3.23H1508l1.15,0.48c6.29,2.62,9.49,6.94,9.49,12.83V76.27c0,9.78-4.69,11.21-6.13,11.42l0,0.5h20.42l0-.5c-0.67-.07-6.5-1-6.5-11.42V21.18L1584,92.32v-77c0-10.37,5.5-11.45,6.13-11.54l0-.5H1567.8Z" transform="translate(0.25 0.73)"/><path class="cls-1" d="M1633.1,3.23H1599.5l0,0.5c1.81,0.36,6,2.24,6,11.8v59.6c0,11.27-4.78,12.44-5.74,12.56l0,0.5h33c13.68,0,24.94-4.44,32.57-12.83,7-7.68,10.67-18.2,10.67-30.41C1676,19.61,1659.14,3.23,1633.1,3.23Zm22.74,16.08c5.61,6.08,8.46,15,8.46,26.4,0,9.3-2.51,17.9-7.07,24.22-5.39,7.47-13.47,11.42-23.37,11.42h-17.63V9.95h14.33C1641.6,9.95,1650.11,13.1,1655.84,19.31Z" transform="translate(0.25 0.73)"/><path class="cls-1" d="M1694.73,74.75c-3.9,0-7.86,2.61-7.86,7.6a6.56,6.56,0,0,0,6.84,6.85,6,6,0,0,0,3-.79,10.75,10.75,0,0,1,1,4.72c0,7.2-5.49,14.79-12.78,17.65l-1.53.6,1.64-.12a20.83,20.83,0,0,0,15.43-7.94A23.81,23.81,0,0,0,1705.25,89C1705.25,81.9,1701.64,74.75,1694.73,74.75Z" transform="translate(0.25 0.73)"/><path class="cls-1" d="M53.39,201.43l0,0.5c0.24,0,5.87.85,5.87,10.66v19.23a47.29,47.29,0,0,1-14.71,2.71c-10.22,0-18.84-4.05-24.93-11.71-5.43-6.84-8.43-16-8.43-25.82,0-18.15,10.89-36.52,31.71-36.52,12.85,0,22.29,5.9,25.89,16.19L69.24,178V158.8l-0.13-.07c-6.3-3.43-15.21-5.48-23.83-5.48-14.17,0-26,5-34.29,14.57C3.74,176.18-.25,187.4-0.25,199.4c0,11.44,3.72,22,10.48,29.7,7.54,8.61,18.34,13.16,31.24,13.16,10.05,0,21.15-2.3,28.26-5.86l0.14-.07V212.46c0-9.55,5-10.46,5.62-10.53l0-.5H53.39Z" transform="translate(0.25 0.73)"/><path class="cls-1" d="M125.79,153.24c-24.54,0-42.35,19.09-42.35,45.39,0,25.68,16.48,43.62,40.07,43.62,24.39,0,42.1-19.09,42.1-45.39C165.61,171.18,149.23,153.24,125.79,153.24Zm20.62,18.57c5.52,7,8.55,16.92,8.55,28,0,10.2-2.79,19-8.06,25.31A26.26,26.26,0,0,1,126,234.78a28.35,28.35,0,0,1-23-11.19c-5.61-7.14-8.7-17.31-8.7-28.63,0-20.48,11.62-34.24,28.92-34.24A28.52,28.52,0,0,1,146.41,171.81Z" transform="translate(0.25 0.73)"/><path class="cls-1" d="M173.47,155.4l2,0.49c3.72,0.93,5.77,4.94,5.77,11.3v61.5c0,10-4.57,11-5.49,11.17l0,0.5h21.68l0-.5c-0.57-.06-5.61-0.92-5.61-11.17v-61.5c0-9.86,4.69-11.14,5.63-11.29l0-.5h-24Z" transform="translate(0.25 0.73)"/><path class="cls-1" d="M221.21,155.49l-0.07-.09H203.28l1.15,0.48c6.29,2.62,9.48,6.94,9.48,12.83v59.73c0,9.78-4.69,11.21-6.12,11.42l0,0.5h20.42l0-.5c-0.67-.07-6.5-1-6.5-11.42V173.35l57.57,71.14v-77c0-10.37,5.5-11.46,6.13-11.54l0-.5H263.11l2.24,0.49c1.89,0.42,6.27,2.37,6.27,11.55V218Z" transform="translate(0.25 0.73)"/><path class="cls-1" d="M347.57,201.43l0,0.5c0.24,0,5.87.85,5.87,10.66v19.23a47.28,47.28,0,0,1-14.71,2.71c-10.22,0-18.84-4.05-24.93-11.71-5.43-6.84-8.43-16-8.43-25.82,0-18.15,10.89-36.52,31.71-36.52,12.85,0,22.29,5.9,25.89,16.19l0.49,1.39V158.8l-0.13-.07c-6.29-3.43-15.2-5.48-23.83-5.48-14.17,0-26,5-34.28,14.57-7.25,8.36-11.24,19.58-11.24,31.58,0,11.44,3.72,22,10.48,29.7,7.54,8.61,18.34,13.16,31.24,13.16,10.05,0,21.15-2.3,28.26-5.86l0.14-.07V212.46c0-9.55,5-10.46,5.61-10.53l0-.5H347.57Z" transform="translate(0.25 0.73)"/><path class="cls-1" d="M445.1,195.79c8.39-2.21,14.56-10.54,14.56-20A19.63,19.63,0,0,0,454,161.75c-4.17-4.15-10.33-6.35-17.82-6.35h-32l0,0.5c0.6,0.07,5.87,1,5.87,11.67v60.36c0,10.7-4.57,11.81-5.49,11.93l0,0.5h35.13c16.64,0,24.22-11.5,24.22-22.19A22.48,22.48,0,0,0,445.1,195.79Zm-24.24,4h13.82c10.86,0,17.88,7,17.88,17.88,0,7.23-2.88,15.86-16.62,15.86H420.86V199.78Zm0-37.66h12.05c7.69,0,15.48,5,15.48,14.46,0,9.86-5.86,16.49-14.59,16.49H420.86V162.11Z" transform="translate(0.25 0.73)"/><path class="cls-1" d="M542.19,225.43l-30-74L481.87,225.3c-5.35,12.89-9.87,14.39-10.72,14.56l0,0.5h20.67l0-.5c-1.38-.2-4.6-1.17-4.6-5.84,0-1.66.66-3.75,1.89-7l5-12.78h32.25l5.14,13.28,0.21,0.57c1.16,3.13,1.93,5.19,1.93,6.82,0,4.74-3.64,4.95-3.68,4.95v0.25h0v0.25h23.21l0-.5C553,239.83,547.56,239,542.19,225.43Zm-18.48-18H496.81l13.45-33.82Z" transform="translate(0.25 0.73)"/><path class="cls-1" d="M600.29,234.4c-15.52,0-32.21-11.71-32.21-37.41,0-9.55,2.77-18.45,7.8-25.07A28,28,0,0,1,599,160.59c12.57,0,20.71,5.5,24.87,16.83l0.48,1.32V158.8l-0.13-.07a48,48,0,0,0-22.82-5.48c-13.86,0-25.53,5-33.75,14.59-7.16,8.32-11.27,19.87-11.27,31.69,0,11.36,3.66,21.84,10.3,29.49,7.52,8.66,18.43,13.24,31.54,13.24a36.77,36.77,0,0,0,28.09-12.39l0.06-.07v-9l-0.44.52C619,229.5,609.45,234.4,600.29,234.4Z" transform="translate(0.25 0.73)"/><path class="cls-1" d="M689.62,227l-28.76-33,24.95-25.32c11.37-11.5,18.25-12.64,19-12.74l0-.5h-24l0,0.5c0.92,0.18,2.46.74,2.46,2.42,0,1.23-.8,4.1-6.14,9.59L650.5,195V167.44c0-9.85,4.3-11.33,5.62-11.55l0-.5H634.14l0,0.5c0.57,0.07,5.61,1,5.61,11.54v61c0,10.21-4.57,11.3-5.49,11.42l0,0.5h21.81l0-.5c-0.94-.1-5.61-1.14-5.61-11.42V198.8l36.34,41.47,0.07,0.08H706.3l0-.5C706.07,239.83,700,239,689.62,227Z" transform="translate(0.25 0.73)"/><path class="cls-1" d="M734.72,155.4l-1.2,16.65,0.66-2.26c1.71-5.86,5-7.56,14.47-7.56h14.46v66.07c0,10.06-4.3,11.38-5.61,11.55l0,0.5h21.94l0-.5c-0.57-.06-5.61-0.93-5.61-11.55V162.24h14.33c10.3,0,12.75,2,14.47,7.69l0.65,2.13-1.19-16.65H734.72Z" transform="translate(0.25 0.73)"/><path class="cls-1" d="M848.83,153.24c-24.54,0-42.35,19.09-42.35,45.39,0,25.68,16.48,43.62,40.07,43.62,24.39,0,42.1-19.09,42.1-45.39C888.64,171.18,872.27,153.24,848.83,153.24Zm20.62,18.57c5.52,7,8.55,16.92,8.55,28,0,10.2-2.79,19-8.06,25.31a26.26,26.26,0,0,1-20.86,9.69,28.35,28.35,0,0,1-23-11.19c-5.61-7.14-8.7-17.31-8.7-28.63,0-20.48,11.62-34.24,28.92-34.24A28.52,28.52,0,0,1,869.44,171.81Z" transform="translate(0.25 0.73)"/><path class="cls-1" d="M941,233.13V167.19c0-9.63,4.21-11.08,5.5-11.29l0-.5H922.25l2.23,0.49c2.15,0.48,5.76,2.56,5.76,11.17v66.07c0,13.54-3.63,21.85-11.41,26.16l-0.85.47h1C926.14,259.76,941,253.25,941,233.13Z" transform="translate(0.25 0.73)"/><path class="cls-1" d="M957.33,239.86l0,0.5h53l2.54-17-0.7,1.37c-3.54,6.94-7.09,8.74-17.28,8.74H973.85V200.28H991c7.55,0,8.91,3.82,9.14,5l0.5,0V186.86l-0.49,1.72c-1.17,4.12-5.68,5-9.26,5h-17V162.11h20.42c10.22,0,12.58,4.56,13.07,7.28l0.5,0V155.4h-51l0,0.5c1,0.12,6.24,1.22,6.24,11.67v60.49C963.08,238.61,958.29,239.74,957.33,239.86Z" transform="translate(0.25 0.73)"/><path class="cls-1" d="M1068.81,240.35h19.78l-2.08-.49a14.43,14.43,0,0,1-10-7.12l-14.71-24.09a18.72,18.72,0,0,0-5.91-6.42c15.48-1.59,22.43-12.8,22.43-23.38,0-13.59-11.68-23.46-27.77-23.46h-31.7l2,0.49c3.88,1,6,5.16,6,11.8v60.74c0,9.94-4.3,11.25-5.62,11.42l0,0.5H1043l0-.5c-0.94-.1-5.61-1.14-5.61-11.42V203.33h2.92c4.18,0,7.12,1.15,10.69,7.23l17.75,29.67Zm-31.69-78.24h11.29c12.41,0,18.9,8.74,18.9,17.38,0,11-6.89,17.38-18.9,17.38h-11.29V162.11Z" transform="translate(0.25 0.73)"/><path class="cls-1" d="M1115.49,235.29c-11.46,0-19-6.29-23.09-19.23l-0.49-1.55v21l0.11,0.07a39,39,0,0,0,22,6.64c10.55,0,18.64-3.15,23.4-9.1a22.27,22.27,0,0,0,4.75-14c0-15.25-12-21.63-22.5-27.25-8.91-4.75-17.32-9.23-17.32-18.28,0-6.58,5.33-13.57,15.22-13.57,6.76,0,15.64,2.76,19.54,15.93l0.49,1.65V159.08l-0.09-.08c-4.27-3.45-11.67-5.76-18.42-5.76a28.92,28.92,0,0,0-18.23,6,20.65,20.65,0,0,0-7.89,16.54c0,13.66,10.62,19.45,20.88,25,9.41,5.13,18.3,10,18.3,20.48C1132.11,228.28,1127,235.29,1115.49,235.29Z" transform="translate(0.25 0.73)"/><path class="cls-1" d="M1151.22,239.86l0,0.5h53l2.54-17-0.7,1.37c-3.54,6.94-7.09,8.74-17.28,8.74h-21.06V200.28h17.12c7.54,0,8.9,3.82,9.14,5l0.5,0V186.87l-0.49,1.72c-1.18,4.12-5.69,5-9.26,5h-17V162.11h20.42c10.22,0,12.58,4.56,13.07,7.28l0.5,0V155.4h-51l0,0.5c1,0.12,6.24,1.22,6.24,11.67v60.49C1157,238.6,1152.18,239.74,1151.22,239.86Z" transform="translate(0.25 0.73)"/><path class="cls-1" d="M1230.63,159.58a3.42,3.42,0,0,1,2.85-3.69l2-.49h-25.38l0,0.5c0.2,0,4.86.92,11.62,12.31l21.27,36.59v23.52c0,10.32-4.68,11.43-5.61,11.55l0,0.5h22.07l0-.5c-0.57-.06-5.61-0.94-5.61-11.55V204.67L1275,168.46c6.67-11.42,11.25-12.48,11.75-12.56l0-.5h-19.28l0,0.5c0.47,0.08,2.83.63,2.83,3.81,0,1.87-1.09,4.44-4,9.51l-15.64,27L1234,167.82C1231.67,163.88,1230.63,161.34,1230.63,159.58Z" transform="translate(0.25 0.73)"/><path class="cls-1" d="M1289.72,226.92c-3.9,0-7.86,2.61-7.86,7.61a6.56,6.56,0,0,0,6.84,6.84,6.11,6.11,0,0,0,3-.79,10.73,10.73,0,0,1,1,4.72c0,7.2-5.49,14.79-12.78,17.65l-1.53.6,1.64-.12a20.83,20.83,0,0,0,15.43-7.94,23.81,23.81,0,0,0,4.84-14.37C1300.24,234.06,1296.63,226.92,1289.72,226.92Z" transform="translate(0.25 0.73)"/><path class="cls-1" d="M53.39,353.6l0,0.5c0.24,0,5.87.84,5.87,10.66V384a47.29,47.29,0,0,1-14.71,2.71c-10.22,0-18.84-4.05-24.93-11.71-5.43-6.84-8.43-16-8.43-25.82,0-18.15,10.89-36.53,31.71-36.53,12.85,0,22.29,5.9,25.89,16.19l0.49,1.39V311l-0.13-.07c-6.29-3.43-15.2-5.48-23.83-5.48-14.17,0-26,5-34.29,14.58C3.74,328.35-.25,339.56-0.25,351.57c0,11.44,3.72,22,10.48,29.7,7.54,8.61,18.34,13.16,31.24,13.16,10.05,0,21.14-2.3,28.26-5.86l0.14-.07V364.63c0-9.55,5-10.46,5.62-10.53l0-.5H53.39Z" transform="translate(0.25 0.73)"/><path class="cls-1" d="M125.79,305.41c-24.54,0-42.35,19.09-42.35,45.39,0,25.68,16.48,43.62,40.07,43.62,24.39,0,42.1-19.09,42.1-45.39C165.61,323.35,149.23,305.41,125.79,305.41ZM146.41,324c5.52,7,8.55,16.92,8.55,28,0,10.2-2.79,19-8.06,25.31A26.26,26.26,0,0,1,126,386.95a28.35,28.35,0,0,1-23-11.19c-5.61-7.14-8.7-17.31-8.7-28.63,0-20.48,11.62-34.24,28.92-34.24A28.53,28.53,0,0,1,146.41,324Z" transform="translate(0.25 0.73)"/><path class="cls-1" d="M197.48,308.06l0-.5h-24l2,0.49c3.72,0.93,5.77,4.95,5.77,11.3v61.5c0,10-4.57,11-5.49,11.17l0,0.5h21.68l0-.5c-0.57-.06-5.61-0.92-5.61-11.17v-61.5C191.85,309.5,196.54,308.22,197.48,308.06Z" transform="translate(0.25 0.73)"/><path class="cls-1" d="M263.13,307.57l2.22,0.49c1.89,0.42,6.27,2.38,6.27,11.55v50.53l-50.41-62.48-0.07-.09H203.28l1.15,0.48c6.29,2.62,9.48,6.94,9.48,12.83V380.6c0,9.78-4.69,11.21-6.12,11.42l0,0.5h20.42l0-.5c-0.67-.07-6.5-1-6.5-11.42V325.51l57.57,71.14v-77c0-10.37,5.5-11.46,6.13-11.55l0-.5H263.13Z" transform="translate(0.25 0.73)"/><path class="cls-1" d="M347.57,353.6l0,0.5c0.24,0,5.87.84,5.87,10.66V384a47.28,47.28,0,0,1-14.71,2.71c-10.22,0-18.84-4.05-24.93-11.71-5.43-6.84-8.43-16-8.43-25.82,0-18.15,10.89-36.53,31.71-36.53,12.85,0,22.29,5.9,25.89,16.19l0.49,1.39V311l-0.13-.07c-6.29-3.43-15.2-5.48-23.83-5.48-14.17,0-26,5-34.28,14.58-7.25,8.36-11.24,19.58-11.24,31.58,0,11.44,3.72,22,10.48,29.7,7.54,8.61,18.34,13.16,31.24,13.16,10.05,0,21.15-2.3,28.26-5.86l0.14-.07V364.63c0-9.55,5-10.46,5.61-10.53l0-.5H347.57Z" transform="translate(0.25 0.73)"/><path class="cls-1" d="M445.1,348c8.39-2.21,14.56-10.54,14.56-20A19.63,19.63,0,0,0,454,313.92c-4.17-4.15-10.33-6.35-17.82-6.35h-32l0,0.5c5.7,0.71,5.87,10.55,5.87,11.67V380.1c0,10.7-4.57,11.81-5.49,11.93l0,0.5h35.13c16.64,0,24.22-11.5,24.22-22.19A22.48,22.48,0,0,0,445.1,348Zm-24.24,4h13.82c10.86,0,17.88,7,17.88,17.88,0,7.23-2.88,15.86-16.62,15.86H420.86V351.94Zm0-37.66h12.05c7.69,0,15.48,5,15.48,14.46,0,9.86-5.86,16.49-14.59,16.49H420.86V314.28Z" transform="translate(0.25 0.73)"/><path class="cls-1" d="M542.19,377.6l-30-74-30.29,73.86c-5.35,12.89-9.87,14.39-10.72,14.56l0,0.5h20.67l0-.5c-1.38-.2-4.6-1.16-4.6-5.84,0-1.66.66-3.75,1.89-7l5-12.78h32.25l5.14,13.28,0.21,0.57c1.16,3.13,1.93,5.19,1.93,6.83,0,4.74-3.64,4.95-3.68,4.95v0.25h0v0.25h23.21l0-.5C553,392,547.56,391.16,542.19,377.6Zm-18.48-18H496.81l13.45-33.82Z" transform="translate(0.25 0.73)"/><path class="cls-1" d="M600.29,386.57c-15.52,0-32.21-11.71-32.21-37.41,0-9.55,2.77-18.45,7.8-25.07A28,28,0,0,1,599,312.76c12.57,0,20.71,5.5,24.87,16.83l0.48,1.32V311l-0.13-.07a48,48,0,0,0-22.82-5.48c-13.86,0-25.53,5-33.75,14.59-7.16,8.32-11.27,19.87-11.27,31.69,0,11.36,3.66,21.84,10.3,29.49,7.52,8.66,18.43,13.24,31.54,13.24A36.77,36.77,0,0,0,626.34,382l0.06-.07v-9l-0.44.52C619,381.67,609.45,386.57,600.29,386.57Z" transform="translate(0.25 0.73)"/><path class="cls-1" d="M689.62,379.17l-28.76-33,24.95-25.32c11.36-11.49,18.25-12.64,19-12.74l0-.5h-24l0,0.5c0.92,0.18,2.46.74,2.46,2.42,0,1.23-.8,4.1-6.14,9.59L650.5,347.15V319.61c0-9.84,4.3-11.33,5.62-11.55l0-.5H634.14l0,0.5c5.46,0.68,5.62,10.44,5.62,11.54v61c0,10.21-4.57,11.3-5.49,11.42l0,0.5h21.81l0-.5c-0.94-.1-5.61-1.14-5.61-11.42V351l36.34,41.47,0.07,0.08H706.3l0-.5C706.07,392,700,391.19,689.62,379.17Z" transform="translate(0.25 0.73)"/><path class="cls-1" d="M734.72,307.57l-1.2,16.65,0.66-2.26c1.71-5.86,5-7.55,14.47-7.55h14.46v66.07c0,10.06-4.3,11.38-5.61,11.55l0,0.5h21.94l0-.5c-0.57-.06-5.61-0.93-5.61-11.55V314.41h14.33c10.3,0,12.75,2,14.47,7.68l0.65,2.13-1.19-16.65H734.72Z" transform="translate(0.25 0.73)"/><path class="cls-1" d="M848.83,305.41c-24.54,0-42.35,19.09-42.35,45.39,0,25.68,16.48,43.62,40.07,43.62,24.39,0,42.1-19.09,42.1-45.39C888.64,323.35,872.27,305.41,848.83,305.41ZM869.44,324c5.52,7,8.55,16.92,8.55,28,0,10.2-2.79,19-8.06,25.31a26.26,26.26,0,0,1-20.86,9.69,28.35,28.35,0,0,1-23-11.19c-5.61-7.14-8.7-17.31-8.7-28.63,0-20.48,11.62-34.24,28.92-34.24A28.53,28.53,0,0,1,869.44,324Z" transform="translate(0.25 0.73)"/><path class="cls-1" d="M956,307.56H924.65l0,0.5c0.61,0.08,6,1.06,6,11.67V380.6c0,10.2-4.68,11.3-5.62,11.42l0,0.5h21.81l0-.5c-0.6-.06-5.86-0.89-5.86-11.42V356.85a53.39,53.39,0,0,0,12.68,1.56c9.08,0,16.7-2.75,22-8a25.08,25.08,0,0,0,7.49-18.16,24.1,24.1,0,0,0-6.83-17.12C971.49,310.19,964.42,307.56,956,307.56Zm16.23,25.49c0,11.09-7.37,18.26-18.77,18.26A52.13,52.13,0,0,1,941,350V314.41h12.05C962.59,314.41,972.21,320.17,972.21,333.05Z" transform="translate(0.25 0.73)"/><path class="cls-1" d="M1029.52,385.68h-21.06V352.45h17.12c7.55,0,8.9,3.82,9.14,5l0.5,0V339l-0.49,1.72c-1.18,4.12-5.69,5-9.26,5h-17V314.28h20.42c10.22,0,12.58,4.56,13.07,7.28l0.5,0V307.56h-51l0,0.5c1,0.12,6.24,1.22,6.24,11.67v60.49c0,10.55-4.78,11.68-5.74,11.8l0,0.5h53l2.54-17-0.7,1.37C1043.26,383.88,1039.71,385.68,1029.52,385.68Z" transform="translate(0.25 0.73)"/><path class="cls-1" d="M1111.15,384.91l-14.71-24.09a18.73,18.73,0,0,0-5.91-6.42C1106,352.81,1113,341.6,1113,331c0-13.59-11.68-23.46-27.77-23.46H1053.5l2,0.49c3.88,1,6,5.16,6,11.8v60.74c0,9.94-4.3,11.25-5.61,11.42l0,0.5h21.68l0-.5c-0.94-.1-5.61-1.14-5.61-11.42V355.49h2.92c4.18,0,7.12,1.15,10.69,7.23l17.75,29.67,0.07,0.12h19.78l-2.08-.49A14.43,14.43,0,0,1,1111.15,384.91Zm-9.22-53.26c0,11-6.89,17.38-18.9,17.38h-11.29V314.28H1083C1095.44,314.28,1101.93,323,1101.93,331.66Z" transform="translate(0.25 0.73)"/><path class="cls-1" d="M1123.25,307.57l-1.2,16.65,0.66-2.26c1.71-5.86,5-7.55,14.47-7.55h14.46v66.07c0,10.06-4.3,11.38-5.62,11.55l0,0.5H1168l0-.5c-0.57-.06-5.61-0.93-5.61-11.55V314.41h14.33c10.3,0,12.74,2,14.47,7.68l0.65,2.12-1.19-16.65h-67.42Z" transform="translate(0.25 0.73)"/><path class="cls-1" d="M1277.71,308.06l0-.5h-21.94l0,0.5c5.46,0.68,5.62,10.44,5.62,11.54v26.13h-45.66V319.61c0-9.84,4.31-11.33,5.63-11.55l0-.5h-22.07l0,0.5c5.58,0.7,5.74,10.44,5.74,11.54v60.87c0,10.32-4.68,11.43-5.61,11.55l0,0.5h21.94l0-.5c-0.57-.06-5.61-0.93-5.61-11.55v-27.9h45.66v27.9c0,10.34-4.57,11.43-5.49,11.55l0,0.5h21.81l0-.5c-0.56-.06-5.49-0.92-5.48-11.55V319.61C1272.22,318.5,1272.38,308.73,1277.71,308.06Z" transform="translate(0.25 0.73)"/></svg>